<?xml version="1.0" encoding="utf-8"?>
<!-- Generator: Adobe Illustrator 27.8.0, SVG Export Plug-In . SVG Version: 6.00 Build 0)  -->
<svg version="1.1" id="Layer_1" xmlns="http://www.w3.org/2000/svg" xmlns:xlink="http://www.w3.org/1999/xlink" x="0px" y="0px"
	 viewBox="0 0 100 100" style="enable-background:new 0 0 100 100;" xml:space="preserve">
<g>
	<path d="M43.4,81.8c-2.4,0-4.3,1.9-4.3,4.3s1.9,4.3,4.3,4.3s4.3-1.9,4.3-4.3S45.8,81.8,43.4,81.8z M43.4,88c-1,0-1.9-0.9-1.9-1.9
		s0.8-1.9,1.9-1.9s1.9,0.8,1.9,1.9S44.4,88,43.4,88z"/>
	<path d="M79.8,81.8c-2.4,0-4.3,1.9-4.3,4.3s1.9,4.3,4.3,4.3s4.3-1.9,4.3-4.3S82.2,81.8,79.8,81.8z M79.8,88c-1,0-1.9-0.9-1.9-1.9
		s0.8-1.9,1.9-1.9s1.9,0.8,1.9,1.9S80.8,88,79.8,88z"/>
	<path d="M93,27c-1.2-1.2-2.7-1.9-4.3-1.9l0,0L47,4.1c-2.2-1.1-4.7-1-6.7,0.4c-0.8,0.5-1.4,1.2-1.9,2l-0.1,0.1L32,17.1
		c-0.9-2.3-3.2-3.9-5.9-3.9H11.8c-3.6,0-6.4,2.8-6.4,6.4v13.6c0,3.6,2.8,6.4,6.4,6.4h14.3c1.8,0,3.5-0.8,4.6-2
		c0.1-0.1,0.2-0.2,0.3-0.3l14.9-18.6L70.2,34L48.5,45.9c-0.4,0.1-0.8,0.1-1.1,0.3c-1.1,0.6-1.8,1.7-1.9,3l-2.9,26.2
		c0,0.1,0,0.2,0,0.3c-5.4,0.5-9.6,5-9.6,10.5c0,5.8,4.7,10.5,10.5,10.5c2.8,0,5.3-1.1,7.2-2.9h21.9c1.9,1.8,4.4,2.9,7.2,2.9
		c5.8,0,10.5-4.7,10.5-10.5c0-3.3-1.5-6.2-3.9-8.2V65.6c0-2.6-2-4.6-4.6-4.6L61,61.2c-0.9,0-2.2,0.2-3.4,0.8l1.6-5.2L91.4,37
		c1.8-1.1,3-2.9,3.2-5C94.9,30.2,94.3,28.3,93,27z M30.1,19.6v5.6h-9.9v-9.6h5.9C28.3,15.6,30.1,17.4,30.1,19.6z M11.8,15.6h6v9.6
		h-10v-5.6C7.8,17.4,9.6,15.6,11.8,15.6z M7.8,33.2v-5.6h10v9.6h-6C9.6,37.2,7.8,35.4,7.8,33.2z M20.2,37.2v-9.6h9.9v5.6
		c0,2.2-1.8,4-4,4H20.2z M32.5,31.7V21c0-0.1,0.1-0.1,0.1-0.2l5.2-8.7v0.1c0.3,1.1,1,2.1,1.9,2.6l4.1,2.5L32.5,31.7z M41,12.9
		c-0.4-0.2-0.7-0.6-0.8-1.1c-0.1-0.4-0.2-0.8-0.3-1.4c-0.2-1.5,0.5-3,1.7-3.9c1.3-0.9,2.8-1,4.2-0.2L85,25.9h-0.1l-12.2,6.7L41,12.9
		z M47.8,49.4c0.1-0.5,0.3-0.9,0.7-1.1c0.2-0.1,0.5-0.2,0.8,0l7.6,7.9l-6.6,21.6l-5.2-3L47.8,49.4z M53.8,87.5h15.6
		c0.2,1.4,0.6,2.6,1.3,3.8H52.5C53.2,90.1,53.6,88.9,53.8,87.5z M69.3,85.1H53.9c-0.1-1.4-0.5-2.6-1.1-3.8h17.7
		C69.9,82.5,69.5,83.7,69.3,85.1z M35.3,86.1c0-4.5,3.6-8.1,8.1-8.1c4.4,0,8,3.5,8.1,7.9c-0.1,0.1-0.1,0.3-0.1,0.4s0,0.2,0.1,0.4
		c-0.3,4.2-3.8,7.5-8.1,7.5C38.9,94.2,35.3,90.6,35.3,86.1z M87.9,86.1c0,4.5-3.6,8.1-8.1,8.1s-8.1-3.6-8.1-8.1s3.6-8.1,8.1-8.1
		S87.9,81.6,87.9,86.1z M79.8,75.6c-1.6,0-3.1,0.4-4.5,1V69H84v7.5C82.7,75.9,81.3,75.6,79.8,75.6z M81.8,63.4c1.2,0,2.2,1,2.2,2.2
		v1h-8.7v-3.1L81.8,63.4z M61,63.6l11.9-0.1v14.7c-0.3,0.2-0.5,0.4-0.7,0.7h-0.3H53.6l4.1-14.1C57.9,64.3,59.7,63.6,61,63.6z
		 M92.3,31.8c-0.2,1.3-0.9,2.5-2.1,3.2L59.3,53.8L52,46.7L86.1,28c1.7-1,3.8-0.8,5.1,0.6C92,29.5,92.4,30.6,92.3,31.8z"/>
	<path d="M26.4,58.8l-5.9,5.9V44.3c0-0.3-0.1-0.7-0.4-0.9c-0.5-0.5-1.3-0.5-1.8,0C18.1,43.7,18,44,18,44.3v20.4l-5.9-5.9
		c-0.5-0.5-1.3-0.5-1.8,0c-0.1,0.1-0.2,0.3-0.2,0.4C10,59.4,10,59.5,10,59.7s0,0.3,0.1,0.5c0.1,0.1,0.1,0.3,0.3,0.4l8.1,8
		c0.2,0.2,0.6,0.4,0.9,0.4s0.7-0.1,0.9-0.4l8-8c0.2-0.2,0.4-0.6,0.4-0.9c0-0.3-0.3-0.6-0.5-0.9C27.7,58.3,26.9,58.3,26.4,58.8z"/>
	<path d="M68.5,73c0.8,0,1.5-0.7,1.5-1.5v-4.8c0-0.8-0.7-1.5-1.5-1.5S67,65.9,67,66.7v4.8C67,72.3,67.7,73,68.5,73z"/>
	<path d="M16,71.2h-2.1c-0.4,0.2-0.8,0.4-1.2,0.6c-0.4,0.1-0.9,0.3-1.5,0.4V74h2v5.5h-2.3v2.3H18v-2.3h-2V71.2z"/>
	<path d="M25.1,71.2H23c-0.4,0.2-0.8,0.4-1.2,0.6c-0.4,0.1-0.9,0.3-1.5,0.4V74h2v5.5H20v2.3h7v-2.3h-1.9V71.2z"/>
</g>
</svg>
