<?xml version="1.0" encoding="utf-8"?>
<!-- Generator: Adobe Illustrator 27.8.0, SVG Export Plug-In . SVG Version: 6.00 Build 0)  -->
<svg version="1.1" id="Layer_1" xmlns="http://www.w3.org/2000/svg" xmlns:xlink="http://www.w3.org/1999/xlink" x="0px" y="0px"
	 viewBox="0 0 100 100" style="enable-background:new 0 0 100 100;" xml:space="preserve">
<g>
	<g>
		<path d="M33.6,97.3c-5.7,0-10.4-4.7-10.4-10.4c0-5.7,4.7-10.4,10.4-10.4c5.7,0,10.4,4.7,10.4,10.4C44,92.6,39.3,97.3,33.6,97.3z
			 M33.6,78.7c-4.5,0-8.2,3.7-8.2,8.2s3.7,8.2,8.2,8.2s8.2-3.7,8.2-8.2S38.1,78.7,33.6,78.7z"/>
		<path d="M33.6,91.1c-2.3,0-4.2-1.9-4.2-4.2c0-2.3,1.9-4.2,4.2-4.2s4.2,1.9,4.2,4.2C37.8,89.2,35.9,91.1,33.6,91.1z M33.6,84.9
			c-1.1,0-2,0.9-2,2c0,1.1,0.9,2,2,2s2-0.9,2-2C35.6,85.8,34.7,84.9,33.6,84.9z"/>
		<path d="M70,97.3c-5.7,0-10.4-4.7-10.4-10.4c0-5.7,4.7-10.4,10.4-10.4s10.4,4.7,10.4,10.4C80.4,92.6,75.7,97.3,70,97.3z M70,78.7
			c-4.5,0-8.2,3.7-8.2,8.2s3.7,8.2,8.2,8.2s8.2-3.7,8.2-8.2S74.5,78.7,70,78.7z"/>
		<path d="M70,91.1c-2.3,0-4.2-1.9-4.2-4.2c0-2.3,1.9-4.2,4.2-4.2s4.2,1.9,4.2,4.2C74.2,89.2,72.3,91.1,70,91.1z M70,84.9
			c-1.1,0-2,0.9-2,2c0,1.1,0.9,2,2,2s2-0.9,2-2C72,85.8,71.1,84.9,70,84.9z"/>
		<path d="M62.8,94.4H40.5c-0.6,0-1.1-0.5-1.1-1.1s0.5-1.1,1.1-1.1h22.3c0.6,0,1.1,0.5,1.1,1.1S63.4,94.4,62.8,94.4z"/>
		<path d="M60.7,88.2H42.9c-0.6,0-1.1-0.5-1.1-1.1s0.5-1.1,1.1-1.1h17.8c0.6,0,1.1,0.5,1.1,1.1S61.3,88.2,60.7,88.2z"/>
		<path d="M62.1,82H41.5c-0.6,0-1.1-0.5-1.1-1.1s0.5-1.1,1.1-1.1h20.6c0.6,0,1.1,0.5,1.1,1.1S62.7,82,62.1,82z"/>
		<path d="M63,82H42.2c-0.3,0-0.7-0.2-0.9-0.4c-0.2-0.3-0.3-0.6-0.2-1L45.7,65c0.5-2.2,4.3-2.9,5.5-2.9l20.7-0.2
			c2.5,0,4.5,2,4.5,4.5v12.9c0,0.6-0.5,1.1-1.1,1.1s-1.1-0.5-1.1-1.1V66.4c0-1.3-1-2.3-2.3-2.3l-20.7,0.2c-1.5,0-3.3,0.8-3.5,1.3
			l-4.1,14.3H63c0.6,0,1.1,0.5,1.1,1.1S63.6,82,63,82z"/>
		<path d="M64.3,80.3c-0.6,0-1.1-0.5-1.1-1.1V64.1c0-0.6,0.5-1.1,1.1-1.1s1.1,0.5,1.1,1.1v15.1C65.4,79.8,64.9,80.3,64.3,80.3z"/>
		<path d="M75.3,69.7h-11c-0.6,0-1.1-0.5-1.1-1.1s0.5-1.1,1.1-1.1h11c0.6,0,1.1,0.5,1.1,1.1S75.9,69.7,75.3,69.7z"/>
		<path d="M54.8,63.9c-0.6,0-1-0.4-1.1-1l-2-31.7c0-0.6,0.4-1.1,1-1.2c0.6,0,1.1,0.4,1.2,1l2,31.7C55.9,63.3,55.5,63.8,54.8,63.9
			C54.8,63.9,54.8,63.9,54.8,63.9z"/>
		<path d="M42.2,82C42.2,82,42.2,82,42.2,82c-0.6,0-1.1-0.5-1.1-1.1l2-49.8c0-0.6,0.6-1.1,1.1-1c0.6,0,1.1,0.5,1,1.1l-2,49.8
			C43.3,81.5,42.8,82,42.2,82z"/>
	</g>
	<g>
		<path d="M73.5,23.7c-0.6,0-1.1-0.5-1.1-1.1V7.1c0-1.4-1.1-2.2-2.2-2.2H26.9c-1.4,0-2.2,1.1-2.2,2.2v15.5c0,0.6-0.5,1.1-1.1,1.1
			s-1.1-0.5-1.1-1.1V7.1c0-2.2,1.6-4.4,4.4-4.4h43.3c2.2,0,4.4,1.6,4.4,4.4v15.5C74.6,23.2,74.1,23.7,73.5,23.7z"/>
		<path d="M59.5,23.7c-0.6,0-1.1-0.5-1.1-1.1V3.8c0-0.6,0.5-1.1,1.1-1.1s1.1,0.5,1.1,1.1v18.8C60.6,23.2,60.1,23.7,59.5,23.7z"/>
		<path d="M37.5,23.7c-0.6,0-1.1-0.5-1.1-1.1V3.8c0-0.6,0.5-1.1,1.1-1.1s1.1,0.5,1.1,1.1v18.8C38.6,23.2,38.1,23.7,37.5,23.7z"/>
		<path d="M76.3,31.5H20.7c-0.6,0-1.1-0.5-1.1-1.1v-7.8c0-0.6,0.5-1.1,1.1-1.1h55.6c0.6,0,1.1,0.5,1.1,1.1v7.8
			C77.4,31,76.9,31.5,76.3,31.5z M21.8,29.3h53.4v-5.6H21.8V29.3z"/>
		<path d="M73.4,14.3H23.6c-0.6,0-1.1-0.5-1.1-1.1s0.5-1.1,1.1-1.1h49.8c0.6,0,1.1,0.5,1.1,1.1S74,14.3,73.4,14.3z"/>
	</g>
</g>
</svg>
