<?xml version="1.0" encoding="utf-8"?>
<!-- Generator: Adobe Illustrator 27.3.1, SVG Export Plug-In . SVG Version: 6.00 Build 0)  -->
<svg version="1.1" xmlns="http://www.w3.org/2000/svg" xmlns:xlink="http://www.w3.org/1999/xlink" x="0px" y="0px"
	 viewBox="0 0 2941.6 885.9" style="enable-background:new 0 0 2941.6 885.9;" xml:space="preserve">
<style type="text/css">
	.st0{fill:#E87924;}
	.st1{fill:#FFFFFF;}
</style>
<g id="Layer_1">
</g>
<g id="Layer_2">
	<g>
		<g>
			<path class="st0" d="M2795.6,75c48.9,0,88.6,39.7,88.6,88.6v558.7c0,48.9-39.7,88.6-88.6,88.6H146c-48.9,0-88.6-39.7-88.6-88.6
				V163.6C57.4,114.8,97.1,75,146,75H2795.6 M2795.6,52H146C84.4,52,34.4,102,34.4,163.6v558.7c0,61.6,50,111.6,111.6,111.6h2649.6
				c61.6,0,111.6-50,111.6-111.6V163.6C2907.2,102,2857.2,52,2795.6,52L2795.6,52z"/>
		</g>
		<g>
			<path class="st0" d="M34.4,554.4v167.9c0,61.6,50,111.6,111.6,111.6h2649.6c61.6,0,111.6-50,111.6-111.6V554.4H34.4z"/>
		</g>
		<g>
			<polygon class="st1" points="395.7,270.8 249.7,270.8 249.7,148.9 156.1,148.9 156.1,484.9 249.7,484.9 249.7,340.7 395.7,340.7 
				395.7,484.9 489.3,484.9 489.3,148.9 395.7,148.9 			"/>
			<path class="st1" d="M735.1,148.9h-50h-49.5l-113.2,336h99.6l84.2-249.8c1.3-3.9,6.8-3.9,8.1,0l59.5,176.6h-78.5l27.3,73.2h75.9
				h20.9h78.7l-113.2-336H735.1z"/>
			<path class="st1" d="M1181.3,379.8c0,2.9-4,3.6-5,0.9l-90.6-231.1h-55.8v-0.7h-97v336h97V248c0-2.9,4-3.6,5-0.9l93.6,238.6h52.8
				h36.1h60.9v-336h-97V379.8z"/>
			<polygon class="st1" points="2284.3,270.8 2138.4,270.8 2138.4,148.9 2044.8,148.9 2044.8,484.9 2138.4,484.9 2138.4,340.7 
				2284.3,340.7 2284.3,484.9 2377.9,484.9 2377.9,148.9 2284.3,148.9 			"/>
			<path class="st1" d="M2673.3,148.9h-49.5h-50h-49.5l-113.2,336h99.6l84.2-249.8c1.3-3.9,6.8-3.9,8.1,0l59.5,176.6h-78.5
				l27.3,73.2h75.9h20.9h78.7L2673.3,148.9z"/>
			<path class="st1" d="M1932.4,148.4h-175.7c-41.7,0-75.5,33.8-75.5,75.5v185c0,41.7,33.8,75.5,75.5,75.5h175.7
				c41.7,0,75.5-33.8,75.5-75.5v-37.6h-91.4v10.6c0,16-13,29-29,29h-88.8c-16,0-29-13-29-29V250.8c0-16,13-29,29-29h88.8
				c16,0,29,13,29,29v6.7h91.4v-33.6C2007.8,182.2,1974.1,148.4,1932.4,148.4z"/>
			<path class="st1" d="M1567.4,148.9h-175.7c-41.7,0-75.5,33.8-75.5,75.5v185c0,41.7,33.8,75.5,75.5,75.5h175.7
				c41.7,0,75.5-33.8,75.5-75.5v-51.6v-62.3h-85.9h-85.6v62.3h85.6v24.1c0,16.3-13.2,29.5-29.5,29.5h-93.2
				c-16.3,0-29.5-13.2-29.5-29.5v-130c0-16.3,13.2-29.5,29.5-29.5h93.2c15.9,0,28.8,12.5,29.5,28.2h86v-26.2
				C1642.9,182.7,1609.1,148.9,1567.4,148.9z"/>
		</g>
		<g>
			<path class="st1" d="M303.8,709.8h-102v70.7h-36.5v-89.4c0-22.1,2.3-39.8,6.4-48.8c7.5-15.9,21.3-26.5,40.9-30.6
				c9.5-2.1,14.9-2.6,32.1-2.6h59.1v30.6h-54.5c-14.6,0-27.8,1.8-33.7,4.4c-9.3,4.4-13.9,13.1-13.9,26v9.3h102V709.8z"/>
			<path class="st1" d="M491.7,634.3c10.5,13.6,16.7,36.5,16.7,62.2c0,56-28,85.1-82,85.1c-32.9,0-58.9-10.8-72.2-30.1
				c-10-14.1-14.9-32.9-14.9-56c0-32.6,9-57.6,26-70.9c13.4-10.8,34.4-16.7,59.4-16.7C454.1,607.8,479.1,617.6,491.7,634.3z
				 M387.3,654.1c-5.4,8.5-8,22.1-8,40.3c0,40.1,13.9,58.3,44.7,58.3c30.6,0,44.2-18.2,44.2-58.6c0-39.6-13.9-57.3-44.7-57.3
				C407.4,636.8,394.3,643,387.3,654.1z"/>
			<path class="st1" d="M589.1,780.5h-36.5V609.1h83.8c26,0,41.1,2.8,51.4,10c12.1,8.2,19,22.1,19,37.8c0,26.2-10.5,42.4-32.6,50.1
				c20,5.4,29.8,20.8,31.1,47.5c1.3,15.9,1.8,19.5,4.1,26h-40.9c-1.3-3.9-1.5-5.4-2.1-9.3c-0.5-4.6-1.3-11.8-1.5-15.2
				c-3.3-31.1-14.1-40.6-46.5-40.6h-29.3V780.5z M640.2,684.9c18.8,0,26.2-6.9,26.2-23.6c0-10.3-4.6-17.5-12.6-20.3
				c-2.8-0.8-7.5-1.3-13.6-1.3h-51.1v45.2H640.2z"/>
			<path class="st1" d="M791.1,780.5h-36.5V609.1h36.5V780.5z M857.9,609.1h47.8l-71.4,84.6l68.1,86.9h-48.1l-61.9-86.9L857.9,609.1
				z"/>
			<path class="st1" d="M976.9,609.1v96.1c1.3,29.8,1.8,31.4,8.5,37.3s14.4,7.5,37.5,7.5h35v30.6H1019c-24.2,0-29.8-0.5-38.6-2.8
				c-17.5-4.6-30.6-16.4-36-32.9c-2.6-7.7-4.1-21.8-4.1-39.6v-96.1H976.9z"/>
			<path class="st1" d="M1097.4,609.1h36.5v171.4h-36.5V609.1z"/>
			<path class="st1" d="M1323.8,709.8h-102v70.7h-36.5v-89.4c0-22.1,2.3-39.8,6.4-48.8c7.5-15.9,21.3-26.5,40.9-30.6
				c9.5-2.1,14.9-2.6,32.1-2.6h59.1v30.6h-54.5c-14.6,0-27.8,1.8-33.7,4.4c-9.3,4.4-13.9,13.1-13.9,26v9.3h102V709.8z"/>
			<path class="st1" d="M1352.6,639.7v-30.6h147.8v30.6h-56.5v140.8h-36.5V639.7H1352.6z"/>
			<path class="st1" d="M1699,639.7v-30.6h147.8v30.6h-56.5v140.8h-36.5V639.7H1699z"/>
			<path class="st1" d="M1920.3,780.5h-36.5V609.1h83.8c26,0,41.1,2.8,51.4,10c12.1,8.2,19,22.1,19,37.8c0,26.2-10.5,42.4-32.6,50.1
				c20,5.4,29.8,20.8,31.1,47.5c1.3,15.9,1.8,19.5,4.1,26h-40.9c-1.3-3.9-1.5-5.4-2.1-9.3c-0.5-4.6-1.3-11.8-1.5-15.2
				c-3.3-31.1-14.1-40.6-46.5-40.6h-29.3V780.5z M1971.4,684.9c18.8,0,26.2-6.9,26.2-23.6c0-10.3-4.6-17.5-12.6-20.3
				c-2.8-0.8-7.5-1.3-13.6-1.3h-51.1v45.2H1971.4z"/>
			<path class="st1" d="M2119,711.9c0,16.7,2.6,24.9,9.5,31.4c6.7,5.9,18,9.8,29.6,9.8c16.7,0,29.8-6.2,34.4-16.4
				c2.1-4.9,3.1-12.3,3.1-24.7V609.1h36.5v101c0,27.5-5.7,44.2-18.5,55c-13.6,11.3-31.6,16.7-56.3,16.7c-27.5,0-46.8-6.2-59.1-18.5
				c-11.8-12.1-15.7-24.4-15.7-50.6V609.1h36.5V711.9z"/>
			<path class="st1" d="M2413.2,780.5h-59.6c-29.6,0-43.7-4.1-57.1-17c-14.6-14.1-22.6-37.8-22.6-68.4c0-38.6,13.6-67.1,37.8-78.4
				c9.8-4.6,26.7-7.7,43.4-7.7h58.1v30.6h-53.7c-17,0-29,4.6-36.5,13.9c-5.7,6.9-8.7,20.6-8.7,38.3c0,25.2,5.4,42.9,15.7,50.4
				c6.7,5.1,17,7.7,30.8,7.7h52.4V780.5z"/>
			<path class="st1" d="M2492.9,780.5h-36.5V609.1h36.5V780.5z M2559.7,609.1h47.8l-71.4,84.6l68.1,86.9h-48.1l-61.9-86.9
				L2559.7,609.1z"/>
			<path class="st1" d="M2640.9,749.9h78.1c13.6,0,21.1-1.3,25.4-4.1c5.4-3.3,8.5-9,8.5-15.7c0-8-4.1-14.9-11.1-18.2
				c-3.6-2.1-10.3-3.1-18.5-3.1h-31.6c-20.6,0-33.9-3.6-42.9-11.3c-10.3-9-16.2-22.9-16.2-37.5c0-22.1,11.8-41.1,29.8-47.3
				c7.7-2.8,16.7-3.6,36.8-3.6h84.8v30.6h-76.6c-16.2,0.3-17.5,0.3-22.9,1.5c-7.2,1.8-11.6,8.5-11.6,17.5c0,7.7,3.6,13.9,9.8,16.7
				c5.1,2.3,9.3,2.8,21.6,2.8h27.5c25.2,0,38.8,3.9,48.8,14.1c7.7,7.7,12.8,22.9,12.8,37.5c0,18.5-8.5,35.5-21.8,43.7
				c-8.5,5.4-19.3,6.9-44.7,6.9h-86.1V749.9z"/>
		</g>
	</g>
</g>
</svg>
