<?xml version="1.0" encoding="utf-8"?>
<!-- Generator: Adobe Illustrator 25.4.1, SVG Export Plug-In . SVG Version: 6.00 Build 0)  -->
<svg version="1.1" id="Layer_1" xmlns="http://www.w3.org/2000/svg" xmlns:xlink="http://www.w3.org/1999/xlink" x="0px" y="0px"
	 viewBox="0 0 175 67.1" style="enable-background:new 0 0 175 67.1;" xml:space="preserve">
<style type="text/css">
	.st0{fill-rule:evenodd;clip-rule:evenodd;fill:#FFFFFF;}
	.st1{fill:#FFFFFF;}
	.st2{font-family:'ArialMT';}
	.st3{font-size:5.6875px;}
	.st4{fill-rule:evenodd;clip-rule:evenodd;fill:#EB6C06;}
	.st5{fill:#9D9D9C;}
	.st6{fill:#E42313;}
	.st7{fill:#98C11D;}
</style>
<g>
	<g>
		<path class="st0" d="M149.1,7.3h7.5v30.1h-7.5V7.3z M5.2,7.3h24c0.6,0,1.1,0.2,1.5,0.6l3.9,3.9c0.4,0.4,0.7,0.9,0.7,1.5
			c0,6,0,12,0,18c0,0.7-0.3,1.1-0.7,1.6l-3.9,3.9c-0.4,0.4-0.9,0.6-1.5,0.6h-24C5.2,27.4,5.2,17.3,5.2,7.3z M12.8,31.1H27
			c0.4,0,0.8-0.4,0.8-0.8V14.4c0-0.4-0.3-0.8-0.8-0.8H12.8V31.1z M40.1,7.3h7.5v30.1h-7.5V7.3z M52.5,7.3h7.6L73.3,25V7.3h7.5v30.1
			h-7.6L60,19.7v17.7h-7.5V7.3z M91.6,7.3c-0.6,0-1.1,0.2-1.5,0.6l-3.9,3.9c-0.4,0.4-0.6,0.9-0.6,1.5v18c0,0.7,0.3,1.1,0.7,1.6
			l3.9,3.9c0.4,0.4,0.9,0.6,1.5,0.6c6,0,12,0,18,0c0.6,0,1.1-0.2,1.5-0.6l3.9-3.9c0.5-0.4,0.7-0.9,0.7-1.5c0-4,0-7.9,0-11.9H98.4
			v6.3h9.8v4.5c0,0.4-0.3,0.8-0.8,0.8c-4.4,0-9,0-13.4,0c-0.5,0-0.8-0.4-0.8-0.8V14.4c0-0.4,0.3-0.8,0.8-0.8c4.4,0,9,0,13.4,0
			c0.5,0,0.8,0.4,0.8,0.8V17h7.5v-3.6c0-0.6-0.2-1.1-0.7-1.5l-3.9-3.9c-0.4-0.4-0.9-0.6-1.5-0.6C103.7,7.3,97.6,7.3,91.6,7.3z
			 M144.6,37.4h-18c-0.6,0-1.1-0.2-1.5-0.6l-3.9-3.9c-0.4-0.4-0.7-0.9-0.7-1.5V7.3h7.5v23c0,0.4,0.3,0.8,0.8,0.8h15.8V37.4z"/>
		<path class="st0" d="M166.2,7.2c-2,0-3.6,1.6-3.6,3.6c0,2,1.6,3.6,3.6,3.6s3.6-1.6,3.6-3.6C169.8,8.8,168.2,7.2,166.2,7.2z
			 M166.2,13.8c-1.6,0-3-1.3-3-3c0-1.6,1.3-3,3-3c1.6,0,3,1.3,3,3C169.2,12.4,167.8,13.8,166.2,13.8z"/>
		<text transform="matrix(1 0 0 1 164.2031 12.8345)" class="st1 st2 st3">R</text>
	</g>
	<g>
		<path class="st4" d="M41.7,52.8c0,0,0,0.1-0.1,0.2c0,0.1-0.1,0.2-0.1,0.3c-0.1,0.3-0.3,0.5-0.5,0.7c-0.2,0.2-0.5,0.4-0.8,0.5
			c-0.3,0.1-0.6,0.2-0.9,0.3c-0.3,0.1-0.5,0.1-0.7,0.1h-0.2c-0.1,0-0.1,0-0.2,0c-0.1,0-0.2-0.1-0.3-0.1c-0.1,0-0.2-0.1-0.3-0.1
			c-0.1,0-0.1-0.1-0.2-0.1c-0.1-0.1-0.2-0.1-0.2-0.2c-0.1-0.1-0.1-0.2-0.2-0.3C37.1,54,37,53.9,37,53.8c0-0.1-0.1-0.2-0.1-0.3
			c0-0.3,0.1-0.6,0.2-0.9c0.1-0.3,0.3-0.6,0.5-0.9c0.2-0.3,0.5-0.5,0.7-0.8c0.3-0.2,0.5-0.5,0.8-0.6c0.3-0.2,0.5-0.3,0.8-0.4
			c0.2-0.1,0.5-0.2,0.7-0.2c0.1,0,0.2,0,0.3,0c0.1,0,0.2,0.1,0.3,0.1c0.1,0.1,0.1,0.1,0.2,0.2c0.1,0.1,0.1,0.2,0.1,0.3
			c0,0.1,0,0.2-0.1,0.3c-0.1,0.1-0.1,0.2-0.2,0.3c-0.1,0.1-0.2,0.2-0.3,0.2c-0.1,0.1-0.2,0.1-0.3,0.1c-0.1,0-0.1,0-0.2,0
			c-0.1,0-0.1-0.1-0.2-0.1c-0.1,0-0.1-0.1-0.2-0.1c-0.1,0-0.1,0-0.1,0c-0.2,0-0.4,0.1-0.6,0.2c-0.3,0.2-0.5,0.4-0.7,0.6
			c-0.2,0.2-0.4,0.5-0.6,0.7c-0.2,0.2-0.3,0.5-0.3,0.6c0.1,0.1,0.1,0.1,0.2,0.1c0.1,0,0.2,0,0.3,0h0.4c0,0,0.1,0,0.3,0
			c0.2,0,0.3-0.1,0.4-0.1c0.2,0,0.4-0.1,0.7-0.2c0.3-0.1,0.5-0.1,0.7-0.2c0.1,0,0.1,0,0.2-0.1c0.1,0,0.2-0.1,0.2-0.1
			c0.1,0,0.1-0.1,0.2-0.1c0.1,0,0.1,0,0.1,0h0.2C41.6,52.7,41.7,52.7,41.7,52.8"/>
		<path class="st4" d="M65.3,46.7c-0.1,0.1-0.1,0.2-0.2,0.4c-0.2,0.3-0.4,0.5-0.5,0.7c-0.1,0.2-0.3,0.4-0.4,0.5
			c-0.1,0.2-0.2,0.3-0.3,0.5c-0.1,0.2-0.2,0.3-0.3,0.5c-0.1,0.2-0.2,0.4-0.3,0.6c-0.1,0.2-0.2,0.4-0.3,0.6c-0.3,0.6-0.6,1.2-0.8,1.9
			c-0.3,0.8-0.7,1.5-0.5,1.8c0.1,0.1,0.2,0.2,0.6,0.1c0.1,0,0.1,0,0.2-0.1c0.1,0,0.2-0.1,0.2-0.1c0.3-0.1,0.6-0.3,0.8-0.6
			c0.3-0.2,0.5-0.5,0.8-0.8c0,0,0.1,0,0.1,0c0.1,0,0.2,0,0.2,0.1c0.1,0.1,0.1,0.1,0.1,0.2c0,0-0.1,0.1-0.2,0.3
			c-0.1,0.1-0.2,0.3-0.4,0.4c-0.1,0.2-0.3,0.3-0.4,0.4l-0.1,0.1v0v0l-0.2,0.2c-0.2,0.2-0.6,0.5-0.6,0.5c-0.2,0.1-0.4,0.3-0.6,0.3
			c-0.3,0.1-0.5,0.1-0.8,0.1c-0.1,0-0.2,0-0.4-0.1c-0.1-0.1-0.2-0.1-0.2-0.2c-0.1-0.1-0.1-0.2-0.2-0.2c0-0.1-0.1-0.2-0.1-0.2
			c0,0,0-0.1,0-0.3c0-0.2,0.1-0.3,0.1-0.5c0-0.2,0.1-0.4,0.1-0.5c0-0.2,0.1-0.2,0.1-0.3V53c-0.2,0.2-0.4,0.4-0.6,0.6
			c-0.2,0.2-0.4,0.4-0.7,0.6c-0.1,0.1-0.3,0.2-0.5,0.3c-0.2,0.1-0.3,0.2-0.5,0.3c-0.1,0-0.1,0-0.2,0.1c-0.1,0-0.2,0-0.2,0
			c-0.1,0-0.2,0-0.4-0.1c-0.1-0.1-0.2-0.1-0.4-0.2c-0.1-0.1-0.2-0.2-0.3-0.3c-0.1-0.1-0.2-0.2-0.2-0.3c-0.1-0.1-0.1-0.3-0.1-0.4
			c0-0.1,0-0.2,0-0.3c0-0.2,0-0.4,0.1-0.6c0-0.2,0.1-0.4,0.3-0.6c0.1-0.1,0.2-0.3,0.4-0.4c0.2-0.2,0.3-0.3,0.5-0.4
			c0.1,0,0.2-0.1,0.4-0.2c0.2-0.1,0.4-0.2,0.6-0.3c0.2-0.1,0.4-0.2,0.7-0.3c0.2-0.1,0.4-0.1,0.5-0.1c0.1,0,0.2,0,0.2,0.1
			c0.1,0.1,0.2,0.1,0.2,0.2c0.1,0.1,0.1,0.2,0.2,0.3c0,0.1,0.1,0.2,0.1,0.2c0,0.1-0.1,0.2-0.2,0.3c-0.1,0.1-0.2,0.1-0.3,0.2
			c-0.2,0.1-0.4,0.2-0.7,0.4c-0.3,0.2-0.5,0.4-0.8,0.6c-0.3,0.2-0.5,0.5-0.7,0.7c-0.2,0.3-0.4,0.5-0.5,0.7c0.1,0,0.1,0.1,0.2,0.1
			c0.1,0,0.3,0,0.5-0.1c0.2-0.1,0.4-0.2,0.5-0.3c0.2-0.1,0.4-0.2,0.5-0.4c0.2-0.1,0.3-0.2,0.4-0.3c0.1-0.1,0.2-0.2,0.4-0.4
			c0.2-0.2,0.4-0.3,0.5-0.5c0.2-0.2,0.3-0.4,0.4-0.6c0.2-0.2,0.2-0.4,0.3-0.6c0.3-0.7,0.5-1.3,0.8-2c0.3-0.7,0.6-1.3,0.9-1.9
			c0.1-0.1,0.1-0.3,0.2-0.4c0.1-0.2,0.1-0.5,0.3-0.5C64,46.2,65.7,45.8,65.3,46.7"/>
		<path class="st4" d="M68.7,53.1c-0.2,0-0.4-0.1-0.5-0.2c-0.1-0.1-0.2-0.3-0.2-0.5c0-0.2,0.1-0.4,0.2-0.5c0.1-0.1,0.3-0.2,0.5-0.2
			c0.2,0,0.3,0.1,0.5,0.2c0.1,0.1,0.2,0.3,0.2,0.5c0,0.2-0.1,0.4-0.2,0.5C69,53.1,68.9,53.1,68.7,53.1"/>
		<path class="st4" d="M96.3,51.3c0,0.2,0,0.4-0.1,0.6c-0.1,0.2-0.1,0.5-0.2,0.7c-0.1,0.3-0.2,0.5-0.3,0.7c-0.1,0.2-0.2,0.4-0.4,0.6
			c-0.1,0.1-0.2,0.2-0.2,0.3c-0.1,0.1-0.2,0.2-0.2,0.3c-0.1,0.1-0.2,0.2-0.3,0.2c-0.1,0.1-0.2,0.1-0.3,0.1c-0.1,0-0.1,0-0.2,0
			c-0.1,0-0.1-0.1-0.2-0.1c-0.1,0-0.1-0.1-0.2-0.1c-0.1,0-0.1-0.1-0.1-0.1c-0.2-0.2-0.4-0.3-0.5-0.5c-0.1-0.2-0.2-0.4-0.2-0.6
			c-0.1-0.2-0.1-0.4-0.1-0.7s0-0.4-0.1-0.6c-0.2,0.2-0.4,0.4-0.7,0.7c-0.2,0.3-0.4,0.5-0.6,0.8c-0.2,0.3-0.4,0.5-0.7,0.7
			c-0.2,0.2-0.5,0.3-0.8,0.4c0,0-0.1,0-0.1,0c-0.1,0-0.1,0-0.2,0c-0.1,0-0.1,0-0.2,0c-0.1,0-0.1,0-0.1,0c-0.1,0-0.2,0-0.2-0.1
			c-0.1,0-0.1-0.1-0.2-0.2c0-0.1-0.1-0.1-0.1-0.2c0-0.1,0-0.1,0-0.2c0-0.1,0-0.2,0.1-0.5c0.1-0.2,0.2-0.5,0.3-0.8
			c0.1-0.3,0.2-0.6,0.4-0.9c0.1-0.3,0.3-0.6,0.4-0.9c0.1-0.3,0.2-0.5,0.4-0.7c0.1-0.2,0.2-0.3,0.2-0.3c0.1,0,0.1,0,0.2,0
			c0.1,0,0.2,0.1,0.2,0.1c0.1,0,0.1,0.1,0.2,0.2c0.1,0.1,0.1,0.2,0.1,0.2l-0.7,2.5c0,0,0.1,0,0.1,0c0,0,0,0,0.1,0
			c0.2-0.2,0.4-0.4,0.6-0.6c0.2-0.2,0.4-0.4,0.5-0.6c0.2-0.2,0.3-0.4,0.5-0.6c0.2-0.2,0.3-0.3,0.5-0.4c0,0,0.1,0,0.1,0
			c0.1,0,0.1,0,0.2,0c0.1,0,0.3,0,0.4,0c0.1,0,0.2,0.1,0.3,0.1c0.1,0,0.1,0.1,0.1,0.1c0.1,0.1,0.1,0.1,0.1,0.2c0,0.2,0,0.4,0,0.6
			c0,0.2,0,0.5,0,0.7c0,0.2,0,0.5,0,0.8c0,0.3,0.1,0.5,0.1,0.8c0.1,0,0.1-0.1,0.2-0.2c0.1-0.1,0.1-0.2,0.1-0.3
			c0.1-0.1,0.1-0.3,0.1-0.4c0.1-0.1,0.1-0.2,0.1-0.3c0.1-0.2,0.1-0.4,0.2-0.7c0.1-0.3,0.1-0.6,0.2-0.8c0-0.1,0.1-0.2,0.1-0.3
			c0-0.1,0-0.2,0.1-0.3c0,0,0-0.1,0-0.2c0-0.1,0-0.2,0.1-0.3c0-0.1,0.1-0.2,0.1-0.3c0-0.1,0.1-0.1,0.2-0.1c0.1,0,0.1,0.1,0.2,0.2
			c0.1,0.1,0.1,0.2,0.2,0.3c0,0.1,0.1,0.2,0.1,0.3C96.3,51,96.3,51.1,96.3,51.3"/>
		<path class="st4" d="M116.5,54.6c-0.2-0.2-0.3-0.5-0.3-0.8c0-0.3,0.1-0.6,0.1-0.9c0.1-0.3,0.2-0.7,0.4-1c0.1-0.3,0.3-0.6,0.5-0.9
			c0.3-0.5,0.7-0.9,1.1-0.4c0.4,0.4,0.5,0.4,0.4,1c0,0.2-0.5,0.8-0.7,1c-0.1,0.2-0.2,0.3-0.3,0.4c-0.4,0.6-0.4,1.1-0.1,1.5
			c0.1,0.1,0.1,0.1,0.2,0.2c0,0,0.1,0.1-0.1,0.2C117.5,54.9,116.9,54.9,116.5,54.6"/>
		<path class="st4" d="M119.8,49c0,0.1-0.1,0.3-0.1,0.4c-0.1,0.1-0.2,0.2-0.3,0.3c-0.1,0.1-0.2,0.1-0.3,0.2c-0.1,0-0.2,0.1-0.3,0.1
			c-0.2,0-0.5,0-0.6-0.1c-0.2-0.1-0.2-0.3-0.2-0.5c0-0.1,0.1-0.2,0.1-0.4c0.1-0.1,0.1-0.2,0.2-0.3c0.1-0.1,0.2-0.2,0.3-0.2
			c0.1-0.1,0.2-0.1,0.4-0.1l0.1,0c0.1,0,0.2,0,0.4,0c0.1,0,0.2,0.1,0.2,0.2c0.1,0.1,0.1,0.2,0.1,0.3C119.8,48.8,119.8,48.9,119.8,49
			"/>
		<path class="st4" d="M139,49.7c0,0-0.1,0.1-0.1,0.2c0,0.1-0.1,0.1-0.2,0.2c-0.2,0.2-0.4,0.3-0.5,0.4c-0.2,0.1-0.4,0.2-0.5,0.3
			c-0.2,0.1-0.4,0.1-0.6,0.2c-0.1,0-0.3,0.1-0.5,0.1c-0.2,0-0.3,0.2-0.3,0.2l0,0l0,0v0l0,0v0c-0.4,0.6-1.1,1.8-1.1,2.4
			c0,0.1,0,0.2,0.1,0.2c0.1,0,0.1,0.1,0.2,0.1c0.1,0,0.2,0,0.2,0c0.1,0,0.1,0,0.2,0c0.2,0,0.4,0,0.6-0.1c0.2-0.1,0.5-0.2,0.6-0.3
			c0.2-0.2,0.4-0.3,0.5-0.4c0.2-0.1,0.3-0.2,0.5-0.2c0.2,0,0.2,0,0.3,0.1c0,0.1,0,0.1,0,0.2c0,0.1,0,0.2,0,0.2
			c0,0.1-0.1,0.1-0.1,0.1c0,0-0.1,0.1-0.1,0.1c-0.1,0.1-0.1,0.1-0.2,0.2c-0.1,0.2-0.3,0.3-0.6,0.4c-0.2,0.1-0.5,0.2-0.8,0.3
			c-0.3,0.1-0.6,0.2-0.8,0.2c-0.3,0.1-0.5,0.1-0.7,0.1c-0.1,0-0.2,0-0.3,0c-0.1,0-0.2,0-0.3-0.1c-0.1-0.1-0.2-0.1-0.2-0.2
			c-0.1-0.1-0.1-0.2-0.1-0.4l1.3-3.4c0,0,0,0-0.1-0.1c-0.1,0-0.3,0-0.4,0c-0.2,0-0.3-0.1-0.4-0.2c-0.1,0-0.1-0.1-0.2-0.2
			c-0.1-0.1-0.1-0.2-0.2-0.3c-0.1-0.1-0.1-0.2-0.1-0.3c0-0.1-0.1-0.2-0.1-0.3c0-0.1,0-0.2,0.1-0.2c0.1,0,0.1,0,0.2,0l1.8,0.2
			c0.1-0.2,0.2-0.3,0.2-0.5c0.1-0.2,0.1-0.3,0.2-0.5c0.1-0.3,0.3-0.6,0.5-1c0.2-0.4,0.3-0.7,0.5-1c0.1-0.1,0.1-0.2,0.2-0.4
			c0.1-0.2,0.1-0.3,0.2-0.4c0.1-0.1,0.2-0.3,0.3-0.4c0.1-0.1,0.3-0.1,0.4-0.1c0.2,0,0.4,0.1,0.5,0.2c0.2,0.1,0.3,0.3,0.3,0.5
			c0,0.1,0,0.2-0.1,0.4c-0.1,0.2-0.2,0.3-0.2,0.5c-0.1,0.2-0.2,0.3-0.3,0.4c-0.1,0.1-0.1,0.2-0.2,0.3c-0.2,0.4-0.4,0.7-0.6,1.1
			c-0.2,0.3-0.4,0.6-0.5,0.9v0v0v0v0l0,0c-0.1,0.1,0.1,0.2,0.1,0.2l1.4-0.1c0.1,0,0.1,0,0.1,0C138.9,49.6,138.9,49.6,139,49.7"/>
		<path class="st4" d="M102.3,52.2c-0.5,0.1-1.2,0-1.3-1c0-0.1,0-0.2,0.1-0.2c0.1,0,0.2,0,0.3,0c0.5,0,1,0,1.5,0
			c0.7-1.9,1.6-4.4,1.2-4.6c0.4-0.2,0.8-0.3,1.1-0.2c1,0.4,0,2.2-0.2,2.7c-0.3,0.7-0.5,1.4-0.8,2.1c0.9,0,1.8-0.1,2.7-0.1
			c0.2,0,0.3,0,0.4,0c0.2-0.4,0.3-0.7,0.4-1.1c0.2-0.6,0.5-1.1,0.7-1.7c0.2-0.5,0.5-0.9,0.7-1.3c0.4-0.7,0.8-1,1.6-0.1c0,0,0,0,0,0
			c-0.3,0.5-0.6,1-0.9,1.5c-0.3,0.6-0.5,1.1-0.8,1.7c-0.2,0.6-0.4,1.1-0.6,1.7c-0.1,0.5-0.3,0.9-0.4,1.4c-0.1,0.3-0.1,0.7-0.1,1
			c0,0.2,0.1,0.5,0.4,0.6c0,0-0.1,0.1-0.1,0.1c-0.9,1-2.2,0.6-1.9-0.8c0.2-0.7,0.4-1.6,0.7-2.4c-0.5,0.2-2.1,0.4-3.2,0.6
			c-0.2,0.7-0.4,1.4-0.6,2.1c-0.1,0.4-0.2,0.8-0.3,1.2c-1.7-0.1-0.9-1.8-0.8-2.5C102.1,52.6,102.2,52.5,102.3,52.2"/>
		<path class="st4" d="M110.2,51.6c0,0,0.1-0.1,0.1-0.1c0.1-0.2,0.2-0.3,0.3-0.5c0.2-0.3,0.5-0.6,0.8-0.7c0.3-0.2,0.6-0.2,1-0.2
			c0.3,0,0.7,0.1,0.9,0.4c0.1,0.1,0.1,0.2,0.1,0.4c0.1,0.7-0.7,1.2-1.2,1.4c-0.4,0.2-0.8,0.3-1.1,0.4c-0.3,0.1-0.5,0.3-0.5,0.6
			c0,0.1,0.1,0.2,0.2,0.3c0.6,0.3,1.6,0.2,2.1,0.1c0.9-0.2,1.5-0.7,2.1-1.3c0.1-0.1,0.1-0.1,0.2-0.1c0.1,0,0.1,0.2,0.1,0.3
			c0,0.9-1.1,1.8-1.7,2.1c-0.6,0.3-1.3,0.4-2,0.4c-0.5,0-1.2-0.2-1.6-0.7c-0.2-0.2-0.4-0.5-0.4-0.9
			C109.7,52.5,110.1,51.8,110.2,51.6z M112.2,50.7c-0.4,0.1-1.2,0.7-1.1,1c0.1,0.1,1-0.2,1.3-0.6C112.7,50.8,112.5,50.6,112.2,50.7z
			"/>
		<path class="st4" d="M82.8,51.6c0,0,0.1-0.1,0.1-0.1c0.1-0.2,0.2-0.3,0.3-0.5c0.2-0.3,0.5-0.6,0.9-0.7c0.3-0.2,0.6-0.2,1-0.2
			c0.3,0,0.6,0.1,0.8,0.4c0.1,0.1,0.1,0.2,0.1,0.4c0.1,0.7-0.7,1.2-1.2,1.4c-0.4,0.2-0.7,0.3-1.1,0.4c-0.3,0.1-0.5,0.3-0.5,0.6
			c0,0.1,0.1,0.2,0.2,0.3c0.6,0.3,1.6,0.2,2.1,0.1c0.8-0.2,1.5-0.7,2.1-1.3c0.1-0.1,0.2-0.1,0.2-0.1c0.1,0,0.1,0.2,0.1,0.3
			c0,0.9-1.1,1.8-1.7,2.1c-0.6,0.3-1.2,0.4-1.9,0.4c-0.5,0-1.2-0.2-1.6-0.7c-0.2-0.2-0.3-0.5-0.4-0.9C82.3,52.5,82.7,51.8,82.8,51.6
			z M84.8,50.7c-0.4,0.1-1.1,0.7-1.1,1c0.1,0.1,1-0.2,1.4-0.6C85.3,50.8,85.1,50.6,84.8,50.7z"/>
		<path class="st4" d="M50.2,51.6c0.1,0,0.1-0.1,0.1-0.1c0.1-0.2,0.2-0.3,0.3-0.5c0.2-0.3,0.5-0.6,0.8-0.7c0.3-0.2,0.6-0.2,1-0.2
			c0.3,0,0.7,0.1,0.8,0.4c0.1,0.1,0.1,0.2,0.1,0.4c0.1,0.7-0.7,1.2-1.2,1.4c-0.4,0.2-0.8,0.3-1.1,0.4c-0.3,0.1-0.5,0.3-0.5,0.6
			c0,0.1,0.1,0.2,0.2,0.3c0.6,0.3,1.6,0.2,2.1,0.1c0.9-0.2,1.5-0.7,2.1-1.3c0.1-0.1,0.2-0.1,0.2-0.1c0.1,0,0.1,0.2,0.1,0.3
			c0,0.9-1.1,1.8-1.7,2.1c-0.6,0.3-1.2,0.4-1.9,0.4c-0.5,0-1.2-0.2-1.6-0.7c-0.2-0.2-0.4-0.5-0.4-0.9C49.7,52.5,50.1,51.8,50.2,51.6
			z M52.2,50.7c-0.4,0.1-1.2,0.7-1.1,1c0.1,0.1,1-0.2,1.4-0.6C52.7,50.8,52.5,50.6,52.2,50.7z"/>
		<path class="st4" d="M43.3,51.6c0,0,0.1-0.1,0.1-0.1c0.1-0.2,0.2-0.3,0.3-0.5c0.2-0.3,0.5-0.6,0.9-0.7c0.3-0.2,0.6-0.2,1-0.2
			c0.3,0,0.6,0.1,0.8,0.4c0.1,0.1,0.1,0.2,0.1,0.4c0.1,0.7-0.7,1.2-1.2,1.4c-0.4,0.2-0.7,0.3-1.1,0.4c-0.3,0.1-0.5,0.3-0.5,0.6
			c0,0.1,0.1,0.2,0.2,0.3c0.6,0.3,1.6,0.2,2.1,0.1c0.8-0.2,1.5-0.7,2.1-1.3c0.1-0.1,0.1-0.1,0.2-0.1c0.1,0,0.1,0.2,0.1,0.3
			c0,0.9-1.1,1.8-1.7,2.1c-0.6,0.3-1.2,0.4-1.9,0.4c-0.5,0-1.2-0.2-1.6-0.7c-0.2-0.2-0.3-0.5-0.4-0.9C42.8,52.5,43.2,51.8,43.3,51.6
			z M45.3,50.7c-0.4,0.1-1.1,0.7-1.1,1c0.1,0.1,1-0.2,1.4-0.6C45.8,50.8,45.6,50.6,45.3,50.7z"/>
		<path class="st4" d="M77.3,47.1c0.1,0.6,0.4,3.6,1.4,6.2c0.1-0.4,0.2-0.9,0.4-1.4l0.1-0.5c0.2-0.6,0.4-1.1,0.6-1.7
			c0.2-0.6,0.4-1.1,0.7-1.6c0.2-0.5,0.4-0.9,0.6-1.3c0.2-0.4,0.4-0.6,0.6-0.8c0.1,0,0.1,0,0.3,0.1c0.2,0.1,0.3,0.2,0.5,0.3
			c0.2,0.1,0.3,0.2,0.4,0.4c0.1,0.1,0.1,0.2,0.1,0.3c-0.3,0.4-0.5,0.9-0.8,1.5c-0.2,0.5-0.5,1.1-0.7,1.6c-0.2,0.5-0.4,1.1-0.5,1.6
			c-0.2,0.5-0.3,0.9-0.3,1.3c-0.1,0.4-0.1,0.7-0.1,0.9c0,0.2,0.1,0.3,0.2,0.3c0.2-0.1,0.2,0,0.2,0.1c0,0.1-0.1,0.3-0.2,0.4
			c-0.1,0.2-0.3,0.3-0.4,0.5c-0.2,0.1-0.3,0.2-0.4,0.2c-0.1,0-0.2,0-0.4-0.1c-0.1-0.1-0.3-0.1-0.4-0.2c-0.1-0.1-0.2-0.2-0.4-0.2
			c-0.1-0.1-0.1-0.1-0.2-0.2c0,0-1.6-2.5-1.8-5.7c-0.1-0.6-0.3-0.4-0.4,0c-0.5,1.3-1.1,2.8-1.5,4.1c-0.1,0.4-0.2,0.7-0.2,1
			c-0.1,0.3-0.1,0.5-0.2,0.7c0,0.2,0,0.3,0,0.4c0,0.1-0.1,0.1-0.2,0.1c-1-0.1-0.6-2.5-0.4-3.2l0.2-1c0.1-0.4,0.2-0.8,0.4-1.2
			c0.1-0.4,0.3-0.8,0.4-1.1c0.1-0.4,0.3-0.7,0.4-1c0.1-0.3,0.3-0.6,0.4-0.8c0-0.1,0-0.1,0-0.2c0,0-0.1-0.1-0.1-0.1
			c-0.1,0-0.1,0-0.2,0c-0.1,0-0.1,0-0.1,0c0,0,0-0.1,0.1-0.2c0.1-0.1,0.1-0.2,0.2-0.2c0.1-0.1,0.2-0.2,0.4-0.2
			c0.2-0.1,0.3-0.1,0.5-0.1c0.1,0,0.2,0,0.4,0.1c0.1,0,0.5,0.5,0.6,0.6c0.1,0.1,0.1,0.1,0.1,0.1C77.3,47,77.3,47,77.3,47.1"/>
		<path class="st4" d="M33.3,52.6c0,0.1,0,0.1,0,0.2v0l0,0c0.5,1.2,1.1,1.2,1.2,1.1l0.1,0c0,0,0.1,0,0.1,0c0,0,0.1,0,0.1,0
			c0.1,0,0.1,0,0.2,0c0.1,0.2-0.1,0.8-0.5,0.9c-0.1,0-0.2,0-0.2,0h-0.2c-0.1,0-0.1,0-0.1,0c-0.1,0-0.1,0-0.1,0
			c-0.1,0-0.3-0.1-0.4-0.1c-0.2-0.1-0.3-0.2-0.5-0.3c-0.1-0.1-0.3-0.3-0.4-0.4c-0.1-0.1-0.2-0.2-0.2-0.3c-0.5,0.6-0.9,1.4-1.2,2.5
			c0,0.2-0.1,0.6-0.3,0.7L30,56.4c-0.4-0.3-0.4-0.4-0.1-0.9c0.1-0.2,0.2-0.5,0.4-0.7c0.2-0.2,0.4-0.5,0.6-0.7
			c0.2-0.2,0.4-0.4,0.5-0.6c0.2-0.2,0.3-0.3,0.4-0.5c0.1-0.1,0.2-0.2,0.2-0.2c0,0,0-0.1,0-0.1c0-0.1-0.1-0.1-0.1-0.2
			c0-0.1-0.1-0.2-0.1-0.2c0-0.1-0.1-0.1-0.1-0.2c0-0.1-0.1-0.2-0.1-0.3c0-0.1-0.1-0.2-0.1-0.3c0-0.1,0-0.2-0.1-0.4
			c0-0.1,0-0.2,0-0.3c0-0.4,0.1-0.7,0.4-0.8l1.3-0.2c0.1,0,0,0.2,0,0.5l0,1v0.5v0l0,0v0v0c0.2-0.1,0.4-0.3,0.6-0.4
			c0.2-0.2,0.4-0.4,0.6-0.5c0.2-0.2,0.4-0.3,0.6-0.4c0.2-0.1,0.4-0.2,0.6-0.2c0.1,0,0.2,0,0.3,0c0.1,0,0.2,0.1,0.3,0.1
			c0.2,0.1,0.2,1,0.1,1C35.4,51.5,34.1,52,33.3,52.6"/>
		<path class="st4" d="M126.4,54.1c-0.1,0-0.1,0.1-0.2,0.1c-0.1,0.1-0.2,0.1-0.3,0.2c-0.5,0.3-1.1,0.7-1.7,0.9
			c-0.9,1.5-2.9,5.7-5.2,4.4c-0.2-0.1-0.3-0.2-0.4-0.3c-0.1-0.1-0.2-0.2-0.2-0.4c0-0.1-0.1-0.3-0.1-0.4c0-0.4,0.1-0.7,0.2-1
			c0.2-0.3,0.4-0.6,0.6-0.8c0.2-0.2,0.5-0.5,0.8-0.7c0.3-0.2,0.6-0.4,0.9-0.5c0.6-0.3,1.2-0.5,1.9-0.7c0,0,0.1-0.1,0.1-0.1
			c0-0.1,0.1-0.1,0.1-0.2c0-0.1,0.1-0.2,0.1-0.2c0.1-0.1,0.1-0.2,0.2-0.3c0-0.1,0.1-0.2,0.1-0.3l0.2-0.6c0,0,0,0,0,0c0,0,0,0-0.1,0
			c0,0-0.1,0-0.3,0.1c-0.1,0.1-0.3,0.2-0.5,0.3c-0.2,0.1-0.5,0.3-0.7,0.4c-0.3,0.1-0.5,0.3-0.8,0.4c-0.2,0.1-0.5,0.2-0.7,0.3
			c-0.2,0.1-0.4,0.1-0.4,0.1c-0.2,0-0.3,0-0.4-0.1c-0.1-0.1-0.2-0.2-0.2-0.3c-0.1-0.1-0.1-0.2-0.1-0.3c0-0.1,0-0.2,0-0.3
			c0-0.2,0.1-0.4,0.2-0.6c0.1-0.2,0.2-0.4,0.4-0.6c0.2-0.2,0.4-0.4,0.6-0.6c0.2-0.2,0.4-0.4,0.6-0.5c0.2-0.2,0.4-0.3,0.6-0.4
			c0.2-0.1,0.3-0.2,0.4-0.2c0.1,0,0.1,0,0.2,0c0.1,0,0.1,0,0.2,0c0.1,0,0.1,0,0.2,0c0.1,0,0.1,0,0.1,0c0.2,0,0.4,0.1,0.6,0.2
			c0.2,0.2,0.2,0.3,0.2,0.6c0,0,0,0.1-0.1,0.2c0,0.1-0.1,0.2-0.2,0.2c-0.1,0-0.3,0.1-0.4,0.1c-0.2,0-0.3,0.1-0.5,0.2
			c-0.1,0-0.2,0.1-0.4,0.2c-0.1,0.1-0.2,0.2-0.4,0.3c-0.1,0.1-0.2,0.2-0.4,0.4c-0.1,0.1-0.2,0.2-0.2,0.4c0,0,0,0,0,0s0,0,0,0
			l3.1-1.1c0.1,0,0.1,0,0.2,0c0.1,0,0.2,0.1,0.3,0.1c0.1,0.1,0.2,0.1,0.2,0.2c0.1,0.1,0.1,0.2,0,0.2l-0.4,1.3
			c0.3-0.2,0.9-0.5,1.2-0.7c0.2-0.2,0.4-0.3,0.6-0.5c0.2-0.2,0.3-0.4,0.4-0.5c0.1-0.2,0.1-0.3,0.2-0.5c0.1-0.3,0.3-0.7,0.4-1
			c0.1-0.3,0.2-0.5,0.3-0.8c0.1-0.2,0.1-0.4,0.2-0.4c0.2-0.3,0.3-0.7,0.5-1c0.2-0.4,0.4-0.7,0.6-1.2c0.1-0.2,0.2-0.4,0.3-0.6
			c0.1-0.2,0.2-0.5,0.3-0.7c0-0.1,0.1-0.1,0.1-0.3c0.1-0.1,0.1-0.2,0.2-0.3c0.1-0.1,0.2-0.2,0.3-0.3c0.1-0.1,0.2-0.1,0.3-0.1h0.1
			c0.1,0,0.1,0,0.2,0.1c0.1,0,0.1,0.1,0.2,0.1c0.1,0,0.1,0.1,0.2,0.2c0.1,0.1,0.1,0.1,0.1,0.1c0,0,0,0.1,0,0.1c0,0.1,0,0.1,0,0.1
			c0,0.2-0.1,0.3-0.1,0.5c-0.1,0.2-0.2,0.4-0.4,0.6c-0.1,0.2-0.3,0.4-0.4,0.6c-0.1,0.2-0.3,0.4-0.4,0.5c-0.2,0.3-0.4,0.5-0.6,0.8
			c-0.2,0.3-0.4,0.6-0.6,0.9c-0.1,0.2-0.3,0.5-0.5,0.9c-0.2,0.4-0.4,0.7-0.5,1.1v0c0.1-0.1,0.2-0.2,0.4-0.3c0.1-0.1,0.3-0.2,0.5-0.3
			c0.2-0.1,0.3-0.1,0.5-0.2c0.2,0,0.3-0.1,0.5-0.1h0.1c0.2,0,0.3,0.1,0.4,0.2c0.1,0.1,0.2,0.3,0.3,0.4c0.1,0.2,0.2,0.4,0.2,0.6
			c0.1,0.2,0.1,0.4,0.1,0.6c0.1,0.2,0.1,0.3,0.1,0.5c0,0.1,0,0.2,0,0.2c0,0,0,0,0,0c0,0,0,0,0.1,0c0.1,0,0.2,0,0.3-0.1
			c0.1-0.1,0.3-0.2,0.4-0.3c0.1-0.1,0.2-0.2,0.4-0.3c0.1-0.1,0.2-0.2,0.3-0.3c0,0,0.1,0,0.2,0c0.1,0,0.1,0,0.2,0.1
			c0.1,0,0.1,0.1,0.1,0.2c0,0,0,0.1-0.1,0.2c-0.1,0.1-0.1,0.2-0.1,0.3c-0.1,0.1-0.1,0.2-0.2,0.3c-0.1,0.1-0.2,0.2-0.3,0.3
			c-0.1,0.1-0.2,0.2-0.3,0.3c-0.1,0.1-0.2,0.1-0.3,0.2c-0.1,0.1-0.2,0.1-0.4,0.2c-0.2,0.1-0.8,0.4-1.2,0.5c-0.1,0-0.2,0-0.2,0
			c-0.1,0-0.1,0-0.1,0c-0.1,0-0.1,0-0.1,0c-0.1,0-0.1-0.1-0.2-0.1c0,0-0.1-0.1-0.1-0.1c0-0.1-0.1-0.1-0.1-0.1v-1c0-0.1,0-0.3,0-0.4
			c0-0.2,0-0.3,0-0.5c0-0.2,0-0.3-0.1-0.5c-0.1-0.3-0.5-0.3-0.5-0.3c-0.1,0-0.1,0.1-0.2,0.2c-0.1,0.1-0.3,0.3-0.4,0.5
			c-0.1,0.2-0.3,0.4-0.4,0.5c-0.1,0.2-0.2,0.3-0.3,0.4c-0.1,0.1-0.2,0.3-0.3,0.5c-0.1,0.2-0.2,0.4-0.3,0.6c0,0,0,0-0.1,0
			c0,0-0.1,0-0.1,0c0,0-0.1,0-0.2-0.1c-0.1,0-0.1-0.1-0.2-0.2c0,0,0-0.1-0.1-0.2c0-0.1,0-0.1,0-0.2
			C126.4,54.3,126.4,54.2,126.4,54.1z M122.6,55.8c-0.8,0.2-1.5,0.6-2,0.9c-0.2,0.1-0.4,0.3-0.6,0.4c-0.2,0.2-0.4,0.3-0.5,0.5
			c-0.3,0.5-0.3,1.1,0.4,1.1c0.2,0,0.5-0.1,0.7-0.2c0.2-0.1,0.4-0.2,0.5-0.4c0.2-0.2,0.4-0.4,0.5-0.6C122,57,122.3,56.4,122.6,55.8z
			"/>
		<path class="st4" d="M30.5,46.9c0,0.1-0.1,0.2-0.1,0.3c-0.1,0.1-0.2,0.2-0.4,0.3c-0.1,0.1-0.2,0.2-0.4,0.2
			c-0.1,0.1-0.2,0.1-0.3,0.1c0,0-0.1,0-0.1,0c-0.1,0-0.1,0-0.2,0.1c-0.1,0-0.2,0-0.2,0.1c-0.1,0-0.2,0-0.2,0c-0.1,0-0.2,0-0.3,0
			c-0.1,0-0.1,0-0.2,0c-0.1,0-0.1,0-0.2,0c-0.1,0-0.2,0-0.3,0c-0.1,0-0.3,0-0.5,0c-0.2,0-0.2,0-0.6,0L25,50.3h2.1c0,0,0.1,0,0.1,0
			c0.1,0,0.1,0,0.2,0c0.1,0,0.1,0,0.2,0c0.1,0,0.1,0,0.1,0c0,0,0.1,0,0.1,0c0.1,0,0.1,0,0.2,0c0.1,0,0.1,0,0.2,0c0.1,0,0.1,0,0.1,0
			c0,0,0.1,0,0.2,0c0.1,0,0.1,0.1,0.1,0.2c0,0.1,0,0.1-0.1,0.2c0,0.1-0.1,0.2-0.1,0.2c-0.1,0.1-0.1,0.1-0.2,0.2
			c-0.1,0.1-0.1,0.1-0.2,0.1c-0.1,0.1-0.3,0.2-0.5,0.2c-0.2,0.1-0.4,0.1-0.7,0.2c-0.2,0.1-0.5,0.1-0.7,0.1c-0.2,0-0.4,0-0.6,0
			c-0.5,0-0.8,0.1-1.4,0.1c-0.1,0.2-0.2,0.4-0.2,0.7c-0.1,0.2-0.1,0.5-0.1,0.7c0.1,0.1,0.2,0.1,0.4,0.1c0.7,0,1,0,1.8-0.2
			c0.6-0.1,1.1-0.3,1.7-0.4c0.1,0,0.2-0.1,0.4-0.1c0.1-0.1,0.3-0.1,0.4-0.2c0.2-0.1,0.4-0.2,0.6-0.3c0.2-0.1,0.4-0.2,0.6-0.2
			c0.1,0,0.2,0,0.2,0.1c0,0,0.1,0.1,0.1,0.2c0,0.3-0.1,0.5-0.3,0.8c-0.2,0.3-0.4,0.5-0.7,0.7c-0.3,0.2-0.6,0.4-0.8,0.6
			c-0.3,0.2-0.5,0.3-0.7,0.3c-0.1,0-0.1,0-0.2,0.1c-0.1,0-0.1,0-0.2,0.1c-0.1,0-0.2,0.1-0.4,0.1c-0.2,0-0.3,0.1-0.4,0.1
			c-0.1,0-0.2,0.1-0.4,0.1c-0.1,0-0.1,0-0.2,0c0,0-0.1,0-0.1,0c-0.1,0-0.1,0-0.2,0c-0.1,0-0.2,0-0.2,0c-0.1,0-0.1,0-0.1,0h-0.5
			c-0.6,0-1-0.1-1.3-0.4c-0.3-0.2-0.4-0.6-0.4-1.2c0,0,0-0.1,0-0.1c0-0.1,0-0.1,0-0.2c0-0.1,0-0.2,0-0.3c0-0.1,0.1-0.2,0.1-0.2
			c0-0.1,0.1-0.2,0.1-0.3c0-0.1,0.1-0.2,0.1-0.3c0.1-0.1,0.1-0.2,0.1-0.3c0-0.1,0-0.1,0-0.1c0,0,0-0.1,0-0.1c0,0-0.1,0-0.1-0.1
			c0-0.1-0.1-0.2-0.1-0.4c0-0.1,0-0.2,0-0.3c0-0.2,0-0.3,0.1-0.4c0.1-0.1,0.2-0.2,0.4-0.2c0,0,0.1,0,0.1,0c0.1,0,0.1,0,0.1,0
			l1.3-2.3c-0.1-0.1-0.2-0.2-0.2-0.4c-0.1-0.2-0.1-0.3-0.1-0.4c0-0.2,0.1-0.3,0.2-0.3c0.1,0,0.3-0.1,0.4-0.1l4.7,0
			c0.1,0,0.1,0,0.2,0c0.1,0,0.1,0,0.2,0.1c0.1,0,0.1,0.1,0.2,0.1C30.5,46.8,30.5,46.9,30.5,46.9"/>
	</g>
</g>
</svg>
