<?xml version="1.0" encoding="UTF-8"?>
<svg id="Layer_1" data-name="Layer 1" xmlns="http://www.w3.org/2000/svg" version="1.1" viewBox="0 0 175 67.1">
  <defs>
    <style>
      .cls-1 {
        fill: #eb6c06;
      }

      .cls-1, .cls-2 {
        fill-rule: evenodd;
        stroke-width: 0px;
      }

      .cls-3 {
        font-family: ArialMT, Arial;
        font-size: 5.7px;
        isolation: isolate;
      }

      .cls-3, .cls-2 {
        fill: #000;
      }
    </style>
  </defs>
  <g>
    <path class="cls-2" d="M149.1,7.3h7.5v30.1h-7.5V7.3ZM5.2,7.3h24c.6,0,1.1.2,1.5.6l3.9,3.9c.4.4.7.9.7,1.5v18c0,.7-.3,1.1-.7,1.6l-3.9,3.9c-.4.4-.9.6-1.5.6H5.2c0-10,0-20.1,0-30.1ZM12.8,31.1h14.2c.4,0,.8-.4.8-.8v-15.9c0-.4-.3-.8-.8-.8h-14.2v17.5ZM40.1,7.3h7.5v30.1h-7.5V7.3ZM52.5,7.3h7.6l13.2,17.7V7.3h7.5v30.1h-7.6l-13.2-17.7v17.7h-7.5V7.3ZM91.6,7.3c-.6,0-1.1.2-1.5.6l-3.9,3.9c-.4.4-.6.9-.6,1.5v18c0,.7.3,1.1.7,1.6l3.9,3.9c.4.4.9.6,1.5.6h18c.6,0,1.1-.2,1.5-.6l3.9-3.9c.5-.4.7-.9.7-1.5v-11.9h-17.4v6.3h9.8v4.5c0,.4-.3.8-.8.8h-13.4c-.5,0-.8-.4-.8-.8v-15.9c0-.4.3-.8.8-.8h13.4c.5,0,.8.4.8.8v2.6h7.5v-3.6c0-.6-.2-1.1-.7-1.5l-3.9-3.9c-.4-.4-.9-.6-1.5-.6-5.9,0-12,0-18,0ZM144.6,37.4h-18c-.6,0-1.1-.2-1.5-.6l-3.9-3.9c-.4-.4-.7-.9-.7-1.5V7.3h7.5v23c0,.4.3.8.8.8h15.8v6.3Z"/>
    <path class="cls-2" d="M166.2,7.2c-2,0-3.6,1.6-3.6,3.6s1.6,3.6,3.6,3.6,3.6-1.6,3.6-3.6-1.6-3.6-3.6-3.6ZM166.2,13.8c-1.6,0-3-1.3-3-3s1.3-3,3-3,3,1.3,3,3-1.4,3-3,3Z"/>
    <text class="cls-3" transform="translate(164.2 12.8)"><tspan x="0" y="0">R</tspan></text>
  </g>
  <g>
    <path class="cls-1" d="M41.7,52.8s0,0,0,.2c0,0,0,.2,0,.3,0,.3-.3.5-.5.7s-.5.4-.8.5-.6.2-.9.3c-.3,0-.5,0-.7,0h-.4c0,0-.2,0-.3,0s-.2,0-.3,0,0,0-.2,0c0,0-.2,0-.2-.2,0,0,0-.2-.2-.3,0-.1,0-.2,0-.3s0-.2,0-.3c0-.3,0-.6.2-.9,0-.3.3-.6.5-.9.2-.3.5-.5.7-.8.3-.2.5-.5.8-.6.3-.2.5-.3.8-.4.2,0,.5-.2.7-.2h.3c0,0,.2,0,.3,0l.2.2c0,0,0,.2,0,.3s0,.2,0,.3,0,.2-.2.3c0,0-.2.2-.3.2,0,0-.2,0-.3,0h-.2c0,0,0,0-.2,0s0,0-.2,0h0c-.2,0-.4,0-.6.2-.3.2-.5.4-.7.6-.2.2-.4.5-.6.7-.2.2-.3.5-.3.6q0,0,.2,0h1c.2,0,.3,0,.4,0,.2,0,.4,0,.7-.2.3,0,.5,0,.7-.2q0,0,.2,0c0,0,.2,0,.2,0,0,0,0,0,.2,0h.3c0,.3,0,.3,0,.4"/>
    <path class="cls-1" d="M65.3,46.7c0,0,0,.2-.2.4-.2.3-.4.5-.5.7s-.3.4-.4.5c0,.2-.2.3-.3.5,0,.2-.2.3-.3.5s-.2.4-.3.6c0,.2-.2.4-.3.6-.3.6-.6,1.2-.8,1.9-.3.8-.7,1.5-.5,1.8,0,0,.2.2.6,0q0,0,.2,0c0,0,.2,0,.2,0,.3,0,.6-.3.8-.6.3-.2.5-.5.8-.8h0c0,0,.2,0,.2,0q0,0,0,.2s0,0-.2.3c0,0-.2.3-.4.4,0,.2-.3.3-.4.4h0c0,0-.2.3-.2.3-.2.2-.6.5-.6.5-.2,0-.4.3-.6.3-.3,0-.5,0-.8,0s-.2,0-.4,0c0,0-.2,0-.2-.2,0,0,0-.2-.2-.2,0,0,0-.2,0-.2v-.3c0-.2,0-.3,0-.5s0-.4,0-.5c0-.2,0-.2,0-.3h0c-.2.2-.4.4-.6.6s-.4.4-.7.6c0,0-.3.2-.5.3s-.3.2-.5.3q0,0-.2,0h-.2c0,0-.2,0-.4,0,0,0-.2,0-.4-.2l-.3-.3c0,0-.2-.2-.2-.3,0,0,0-.3,0-.4v-.3c0-.2,0-.4,0-.6,0-.2,0-.4.3-.6,0,0,.2-.3.4-.4.2-.2.3-.3.5-.4,0,0,.2,0,.4-.2.2,0,.4-.2.6-.3.2,0,.4-.2.7-.3.2,0,.4,0,.5,0s.2,0,.2,0c0,0,.2,0,.2.2,0,0,0,.2.2.3,0,0,0,.2,0,.2,0,0,0,.2-.2.3,0,0-.2,0-.3.2-.2,0-.4.2-.7.4s-.5.4-.8.6c-.3.2-.5.5-.7.7-.2.3-.4.5-.5.7,0,0,0,0,.2,0s.3,0,.5,0,.4-.2.5-.3c.2,0,.4-.2.5-.4.2,0,.3-.2.4-.3l.4-.4c.2-.2.4-.3.5-.5.2-.2.3-.4.4-.6.2-.2.2-.4.3-.6.3-.7.5-1.3.8-2s.6-1.3.9-1.9c0,0,0-.3.2-.4,0-.2,0-.5.3-.5.4,0,2.1-.4,1.7.5"/>
    <path class="cls-1" d="M68.7,53.1c-.2,0-.4,0-.5-.2,0,0-.2-.3-.2-.5s0-.4.2-.5.3-.2.5-.2.3,0,.5.2c0,0,.2.3.2.5s0,.4-.2.5c-.2.2-.3.2-.5.2"/>
    <path class="cls-1" d="M96.3,51.3c0,.2,0,.4,0,.6,0,.2,0,.5-.2.7,0,.3-.2.5-.3.7,0,.2-.2.4-.4.6,0,0-.2.2-.2.3,0,0-.2.2-.2.3,0,0-.2.2-.3.2,0,0-.2,0-.3,0h-.2c0,0,0,0-.2,0s0,0-.2,0,0,0,0,0c-.2-.2-.4-.3-.5-.5s-.2-.4-.2-.6c0-.2,0-.4,0-.7s0-.4,0-.6c-.2.2-.4.4-.7.7-.2.3-.4.5-.6.8s-.4.5-.7.7c-.2.2-.5.3-.8.4h-.6c0,0-.2,0-.2,0,0,0,0,0-.2-.2,0,0,0,0,0-.2v-.2c0,0,0-.2,0-.5,0-.2.2-.5.3-.8,0-.3.2-.6.4-.9,0-.3.3-.6.4-.9,0-.3.2-.5.4-.7,0-.2.2-.3.2-.3h.2c0,0,.2,0,.2,0,0,0,0,0,.2.2,0,0,0,.2,0,.2l-.7,2.5h.2c.2-.2.4-.4.6-.6.2-.2.4-.4.5-.6.2-.2.3-.4.5-.6.2-.2.3-.3.5-.4h.7c0,0,.2,0,.3,0s0,0,0,0q0,0,0,.2v2.1c0,.3,0,.5,0,.8,0,0,0,0,.2-.2,0,0,0-.2,0-.3,0,0,0-.3,0-.4,0,0,0-.2,0-.3,0-.2,0-.4.2-.7s0-.6.2-.8c0,0,0-.2,0-.3s0-.2,0-.3v-.2c0,0,0-.2,0-.3,0,0,0-.2,0-.3s0,0,.2,0,0,0,.2.2c0,0,0,.2.2.3,0,0,0,.2,0,.3.1.4.1.5.1.7"/>
    <path class="cls-1" d="M116.5,54.6c-.2-.2-.3-.5-.3-.8s0-.6,0-.9c0-.3.2-.7.4-1,0-.3.3-.6.5-.9.3-.5.7-.9,1.1-.4.4.4.5.4.4,1,0,.2-.5.8-.7,1,0,.2-.2.3-.3.4-.4.6-.4,1.1,0,1.5q0,0,.2.2s0,0,0,.2c-.2,0-.8,0-1.2-.3"/>
    <path class="cls-1" d="M119.8,49c0,0,0,.3,0,.4,0,0-.2.2-.3.3,0,0-.2,0-.3.2,0,0-.2,0-.3,0-.2,0-.5,0-.6,0-.2,0-.2-.3-.2-.5s0-.2,0-.4c0,0,0-.2.2-.3s.2-.2.3-.2c0,0,.2,0,.4,0h.5c0,0,.2,0,.2.2,0,0,0,.2,0,.3,0-.1,0,0,0,0"/>
    <path class="cls-1" d="M139,49.7s-.1,0-.1.2-.1,0-.2.2c-.2.2-.4.3-.5.4-.2,0-.4.2-.5.3-.2,0-.4,0-.6.2-.1,0-.3,0-.5,0s-.3.2-.3.2h0c-.4.6-1.1,1.8-1.1,2.4s0,.2.1.2.1,0,.2,0h.4c.2,0,.4,0,.6,0,.2,0,.5-.2.6-.3.2-.2.4-.3.5-.4.2,0,.3-.2.5-.2s.2,0,.3,0v.4c0,0-.1,0-.1,0h-.1q-.1.2-.2.3c-.1.2-.3.3-.6.4-.2,0-.5.2-.8.3s-.6.2-.8.2c-.3,0-.5,0-.7,0h-.3c-.1,0-.2,0-.3,0s-.2,0-.2-.2c-.1,0-.1-.2-.1-.4l1.3-3.4h-.1c-.1,0-.3,0-.4,0-.2,0-.3,0-.4-.2-.1,0-.1,0-.2-.2-.1,0-.1-.2-.2-.3-.1,0-.1-.2-.1-.3s-.1-.2-.1-.3,0-.2.1-.2h.2l1.8.2c.1-.2.2-.3.2-.5.1-.2.1-.3.2-.5.1-.3.3-.6.5-1s.3-.7.5-1c.1,0,.1-.2.2-.4.1-.2.1-.3.2-.4.1,0,.2-.3.3-.4.1,0,.3,0,.4,0,.2,0,.4,0,.5.2.2,0,.3.3.3.5s0,.2-.1.4-.2.3-.2.5c-.1.2-.2.3-.3.4-.1,0-.1.2-.2.3-.2.4-.4.7-.6,1.1-.2.3-.4.6-.5.9h0c-.1,0,.1.2.1.2h1.5q-.2,0,0,0"/>
    <path class="cls-1" d="M102.3,52.2c-.5,0-1.2,0-1.3-1,0,0,0-.2,0-.2h1.8c.7-1.9,1.6-4.4,1.2-4.6.4-.2.8-.3,1.1-.2,1,.4,0,2.2-.2,2.7-.3.7-.5,1.4-.8,2.1.9,0,1.8,0,2.7,0h.4c.2-.4.3-.7.4-1.1.2-.6.5-1.1.7-1.7.2-.5.5-.9.7-1.3.4-.7.8-1,1.6,0h0c-.3.5-.6,1-.9,1.5-.3.6-.5,1.1-.8,1.7-.2.6-.4,1.1-.6,1.7,0,.5-.3.9-.4,1.4,0,.3,0,.7,0,1s0,.5.4.6h0c-.9,1.1-2.2.7-1.9-.7.2-.7.4-1.6.7-2.4-.5.2-2.1.4-3.2.6-.2.7-.4,1.4-.6,2.1,0,.4-.2.8-.3,1.2-1.7,0-.9-1.8-.8-2.5,0-.3.1-.4.2-.7"/>
    <path class="cls-1" d="M110.2,51.6h0c0-.3.2-.4.3-.6.2-.3.5-.6.8-.7.3-.2.6-.2,1-.2s.7,0,.9.4c0,0,0,.2,0,.4,0,.7-.7,1.2-1.2,1.4-.4.2-.8.3-1.1.4-.3,0-.5.3-.5.6s0,.2.2.3c.6.3,1.6.2,2.1,0,.9-.2,1.5-.7,2.1-1.3s0,0,.2,0,0,.2,0,.3c0,.9-1.1,1.8-1.7,2.1s-1.3.4-2,.4-1.2-.2-1.6-.7c-.2-.2-.4-.5-.4-.9,0-1,.5-1.7.6-1.9ZM112.2,50.7c-.4,0-1.2.7-1.1,1,0,0,1-.2,1.3-.6.3-.3,0-.5-.2-.4Z"/>
    <path class="cls-1" d="M82.8,51.6h0c0-.3.2-.4.3-.6.2-.3.5-.6.9-.7.3-.2.6-.2,1-.2s.6,0,.8.4c0,0,0,.2,0,.4,0,.7-.7,1.2-1.2,1.4-.4.2-.7.3-1.1.4-.3,0-.5.3-.5.6s0,.2.2.3c.6.3,1.6.2,2.1,0,.8-.2,1.5-.7,2.1-1.3s.2,0,.2,0c0,0,0,.2,0,.3,0,.9-1.1,1.8-1.7,2.1s-1.2.4-1.9.4-1.2-.2-1.6-.7c-.2-.2-.3-.5-.4-.9,0-1,.4-1.7.5-1.9ZM84.8,50.7c-.4,0-1.1.7-1.1,1,0,0,1-.2,1.4-.6.2-.3,0-.5-.3-.4Z"/>
    <path class="cls-1" d="M50.2,51.6c0,0,0,0,0,0,0-.2.2-.3.3-.5.2-.3.5-.6.8-.7.3-.2.6-.2,1-.2s.7,0,.8.4c0,0,0,.2,0,.4,0,.7-.7,1.2-1.2,1.4-.4.2-.8.3-1.1.4-.3,0-.5.3-.5.6s0,.2.2.3c.6.3,1.6.2,2.1,0,.9-.2,1.5-.7,2.1-1.3s.2,0,.2,0c0,0,0,.2,0,.3,0,.9-1.1,1.8-1.7,2.1-.6.3-1.2.4-1.9.4s-1.2-.2-1.6-.7c-.2-.2-.4-.5-.4-.9.1-1,.5-1.7.6-1.9ZM52.2,50.7c-.4,0-1.2.7-1.1,1,0,0,1-.2,1.4-.6.2-.3,0-.5-.3-.4Z"/>
    <path class="cls-1" d="M43.3,51.6h0c0-.3.2-.4.3-.6.2-.3.5-.6.9-.7.3-.2.6-.2,1-.2s.6,0,.8.4c0,0,0,.2,0,.4,0,.7-.7,1.2-1.2,1.4-.4.2-.7.3-1.1.4-.3,0-.5.3-.5.6s0,.2.2.3c.6.3,1.6.2,2.1,0,.8-.2,1.5-.7,2.1-1.3s0,0,.2,0,0,.2,0,.3c0,.9-1.1,1.8-1.7,2.1-.6.3-1.2.4-1.9.4s-1.2-.2-1.6-.7c-.2-.2-.3-.5-.4-.9,0-1,.4-1.7.5-1.9ZM45.3,50.7c-.4,0-1.1.7-1.1,1,0,0,1-.2,1.4-.6.2-.3,0-.5-.3-.4Z"/>
    <path class="cls-1" d="M77.3,47.1c0,.6.4,3.6,1.4,6.2,0-.4.2-.9.4-1.4v-.5c.3-.6.5-1.1.7-1.7.2-.6.4-1.1.7-1.6.2-.5.4-.9.6-1.3.2-.4.4-.6.6-.8q0,0,.3,0c.2,0,.3.2.5.3s.3.2.4.4c0,0,0,.2,0,.3-.3.4-.5.9-.8,1.5-.2.5-.5,1.1-.7,1.6s-.4,1.1-.5,1.6c-.2.5-.3.9-.3,1.3,0,.4,0,.7,0,.9s0,.3.2.3c.2,0,.2,0,.2,0s0,.3-.2.4c0,.2-.3.3-.4.5-.2,0-.3.2-.4.2s-.2,0-.4,0c0,0-.3,0-.4-.2,0,0-.2-.2-.4-.2q0,0-.2-.2s-1.6-2.5-1.8-5.7c0-.6-.3-.4-.4,0-.5,1.3-1.1,2.8-1.5,4.1,0,.4-.2.7-.2,1,0,.3,0,.5-.2.7v.4c0,0,0,0-.2,0-1,0-.6-2.5-.4-3.2l.2-1c0-.4.2-.8.4-1.2,0-.4.3-.8.4-1.1,0-.4.3-.7.4-1s.3-.6.4-.8v-.2h0q0,0-.2,0h0s0,0,0-.2c0,0,0-.2.2-.2,0,0,.2-.2.4-.2.2,0,.3,0,.5,0s.2,0,.4,0c0,0,.5.5.6.6h0q-.3.2-.3.3"/>
    <path class="cls-1" d="M33.3,52.6v.2h0c.5,1.2,1.1,1.2,1.2,1.1h.5c0,.2,0,.8-.5.9h-.6c0,0-.3,0-.4,0-.2,0-.3-.2-.5-.3l-.4-.4c0,0-.2-.2-.2-.3-.5.6-.9,1.4-1.2,2.5,0,.2-.1.6-.3.7l-.9-.5c-.4-.3-.4-.4-.1-.9.1-.2.2-.5.4-.7.2-.2.4-.5.6-.7s.4-.4.5-.6c.2-.2.3-.3.4-.5.1,0,.2-.2.2-.2h0c0-.2-.1-.2-.1-.3s-.1-.2-.1-.2c0,0-.1,0-.1-.2s-.1-.2-.1-.3-.1-.2-.1-.3,0-.2-.1-.4v-.3c0-.4.1-.7.4-.8l1.3-.2c0,0,0,.2,0,.5v1.5h0c.2,0,.4-.3.6-.4.2-.2.4-.4.6-.5.2-.2.4-.3.6-.4.2,0,.4-.2.6-.2h.3c0,0,.2,0,.3,0,.2,0,.2,1,0,1-.8.1-2.1.6-2.9,1.2"/>
    <path class="cls-1" d="M126.4,54.1c0,0,0,0-.2,0,0,0-.2,0-.3.2-.5.3-1.1.7-1.7.9-.9,1.5-2.9,5.7-5.2,4.4-.2,0-.3-.2-.4-.3s-.2-.2-.2-.4,0-.3,0-.4c0-.4,0-.7.2-1,.2-.3.4-.6.6-.8s.5-.5.8-.7.6-.4.9-.5c.6-.3,1.2-.5,1.9-.7h0c0-.2,0-.2,0-.3s0-.2,0-.2c0,0,0-.2.2-.3,0,0,0-.2,0-.3l.2-.6h0s0,0-.3,0c0,0-.3.2-.5.3s-.5.3-.7.4c-.3,0-.5.3-.8.4-.2,0-.5.2-.7.3s-.4,0-.4,0c-.2,0-.3,0-.4,0s-.2-.2-.2-.3c0,0,0-.2,0-.3v-.3c0-.2,0-.4.2-.6,0-.2.2-.4.4-.6.2-.2.4-.4.6-.6.2-.2.4-.4.6-.5.2-.2.4-.3.6-.4.2,0,.3-.2.4-.2h.7c.2,0,.4,0,.6.2.2.2.2.3.2.6,0,0,0,0,0,.2,0,0,0,.2-.2.2s-.3,0-.4,0c-.2,0-.3,0-.5.2,0,0-.2,0-.4.2,0,0-.2.2-.4.3,0,0-.2.2-.4.4,0,0-.2.2-.2.4h0l3.1-1.1h.2c0,0,.2,0,.3,0,0,0,.2,0,.2.2,0,0,0,.2,0,.2l-.4,1.3c.3-.2.9-.5,1.2-.7.2-.2.4-.3.6-.5s.3-.4.4-.5c0-.2,0-.3.2-.5,0-.3.3-.7.4-1s.2-.5.3-.8c0-.2,0-.4.2-.4.2-.3.3-.7.5-1,.2-.4.4-.7.6-1.2.1-.2.2-.4.3-.6.1-.2.2-.5.3-.7,0,0,.1,0,.1-.3.1,0,.1-.2.2-.3.1,0,.2-.2.3-.3s.2,0,.3,0h.1q.1,0,.2,0c.1,0,.1,0,.2,0s.1,0,.2.2h.1v.2h0c0,.3-.1.4-.1.6-.1.2-.2.4-.4.6-.1.2-.3.4-.4.6-.1.2-.3.4-.4.5-.2.3-.4.5-.6.8-.2.3-.4.6-.6.9-.1.2-.3.5-.5.9s-.4.7-.5,1.1h0c0,0,.2-.2.4-.3.1,0,.3-.2.5-.3s.3,0,.5-.2c.2,0,.3,0,.5,0h.1c.2,0,.3,0,.4.2.1,0,.2.3.3.4.1.2.2.4.2.6.1.2.1.4.1.6.1.2.1.3.1.5v.2h.1c.1,0,.2,0,.3,0s.3-.2.4-.3c.1,0,.2-.2.4-.3.1,0,.2-.2.3-.3h.2q.1,0,.2,0c.1,0,.1,0,.1.2,0,0,0,0-.1.2-.1,0-.1.2-.1.3-.1,0-.1.2-.2.3-.1,0-.2.2-.3.3s-.2.2-.3.3-.2,0-.3.2c-.1,0-.2,0-.4.2-.2,0-.8.4-1.2.5h-.4c-.1,0-.1,0-.2,0h-.1c0-.2-.1-.2-.1-.2v-1.9c0-.2,0-.3-.1-.5-.1-.3-.5-.3-.5-.3-.1,0-.1,0-.2.2-.1,0-.3.3-.4.5s-.3.4-.4.5c0,.2-.2.3-.3.4,0,0-.2.3-.3.5,0,.2-.2.4-.3.6h-.2s0,0-.2,0c0,0,0,0-.2-.2,0,0,0,0,0-.2v-.2c.6,0,.6-.1.6-.2ZM122.6,55.8c-.8.2-1.5.6-2,.9-.2,0-.4.3-.6.4-.2.2-.4.3-.5.5-.3.5-.3,1.1.4,1.1s.5,0,.7-.2c.2,0,.4-.2.5-.4.2-.2.4-.4.5-.6.4-.5.7-1.1,1-1.7Z"/>
    <path class="cls-1" d="M30.5,46.9c0,0-.1.2-.1.3-.1,0-.2.2-.4.3-.1,0-.2.2-.4.2-.1,0-.2,0-.3,0h-.1q-.1,0-.2,0c-.1,0-.2,0-.2,0h-2.3l-1.5,2.3h3.5c.1,0,.1,0,.1.2s0,0-.1.2c0,0-.1.2-.1.2q-.1,0-.2.2t-.2,0c-.1,0-.3.2-.5.2-.2,0-.4,0-.7.2-.2,0-.5,0-.7,0h-.6c-.5,0-.8,0-1.4,0-.1.2-.2.4-.2.7-.1.2-.1.5-.1.7.1,0,.2,0,.4,0,.7,0,1,0,1.8-.2.6,0,1.1-.3,1.7-.4.1,0,.2,0,.4,0,.1,0,.3,0,.4-.2.2,0,.4-.2.6-.3s.4-.2.6-.2.2,0,.2,0c0,0,.1,0,.1.2,0,.3-.1.5-.3.8-.2.3-.4.5-.7.7-.3.2-.6.4-.8.6-.3.2-.5.3-.7.3s-.1,0-.2,0q-.1,0-.2,0c-.1,0-.2,0-.4,0s-.3,0-.4,0-.2,0-.4,0h-1.3c-.6,0-1,0-1.3-.4-.3-.2-.4-.6-.4-1.2h0v-.6c0,0,.1-.2.1-.2,0,0,.1-.2.1-.3s.1-.2.1-.3c.1,0,.1-.2.1-.3h0v-.2s-.1,0-.1,0-.1-.2-.1-.4v-.3c0-.2,0-.3.1-.4.1,0,.2-.2.4-.2h.2l1.3-2.3c-.1,0-.2-.2-.2-.4-.1-.2-.1-.3-.1-.4,0-.2.1-.3.2-.3s.3,0,.4,0h4.9q.1,0,.2,0c.1,0,.1,0,.2,0-.2,0-.2,0-.2,0"/>
  </g>
</svg>