<?xml version="1.0" encoding="UTF-8"?>
<svg id="Layer_1" data-name="Layer 1" xmlns="http://www.w3.org/2000/svg" viewBox="0 0 250 250">
  <defs>
    <style>
      .cls-1 {
        fill: #fff;
      }
    </style>
  </defs>
  <path class="cls-1" d="M188.19,238.49H61.73c-26.75,0-48.64-21.89-48.64-48.64v-1.62l4.86-129.7c.81-26.75,22.7-47.02,48.64-47.02h116.73c25.94,0,47.83,20.27,48.64,47.02l4.86,129.7c.81,12.97-4.05,25.13-12.97,34.86s-21.08,15.4-34.05,15.4h-1.62ZM66.59,27.72c-17.83,0-31.62,13.78-32.43,30.8l-4.86,131.33c0,17.83,14.59,32.43,32.43,32.43h128.08c8.92,0,17.02-4.05,22.7-10.54,5.67-6.49,8.92-14.59,8.92-23.51l-4.86-129.7c-.81-17.83-14.59-30.8-32.43-30.8h-117.54Z"/>
  <path class="cls-1" d="M124.96,108.79c-31.62,0-56.75-25.13-56.75-56.75,0-4.86,3.24-8.11,8.11-8.11s8.11,3.24,8.11,8.11c0,22.7,17.83,40.53,40.53,40.53s40.53-17.83,40.53-40.53c0-4.86,3.24-8.11,8.11-8.11s8.11,3.24,8.11,8.11c0,31.62-25.13,56.75-56.75,56.75Z"/>
</svg>