<?xml version="1.0" encoding="utf-8"?>
<!-- Generator: Adobe Illustrator 24.2.1, SVG Export Plug-In . SVG Version: 6.00 Build 0)  -->
<svg version="1.1" id="Layer_1" xmlns="http://www.w3.org/2000/svg" xmlns:xlink="http://www.w3.org/1999/xlink" x="0px" y="0px"
	 viewBox="0 0 512 512" style="enable-background:new 0 0 512 512;" xml:space="preserve">
<style type="text/css">
	.st0{fill:#478BCC;}
	.st1{fill:none;stroke:#478BCC;stroke-width:13.5715;stroke-linecap:round;stroke-linejoin:round;stroke-miterlimit:10;}
</style>
<g>
	<path class="st0" d="M389.2,106.2l-166,66.4c-4.2-2.9-9.1-4.5-14.2-4.5c-13.7,0-24.9,11.2-24.9,24.9v62c0,12.1,8.7,22.2,20.2,24.5
		l91.7,91.7v20.7H256c-30.9,0-55.9,25-55.9,55.9c0,1,0,1.9,0.1,2.9c0,0.1,0,0.1,0,0.2c1.6,29.4,26,52.8,55.8,52.8
		c28.2,0,51.5-20.8,55.3-47.9h81c3.9,27.1,27.2,47.9,55.3,47.9c29.8,0,54.2-23.4,55.8-52.8c0-0.1,0-0.1,0-0.2c0-1,0.1-1.9,0.1-2.9
		c0-30.9-25-55.9-55.9-55.9h-8v-16h39.9c13.2,0,24-10.8,24-24V264c0-8.8-7.2-16-16-16h-18.2c-6.9,0-13,4.4-15.2,10.9l-12.3,37h-71.6
		l-106.5-76.1l169.9-68c21-1.1,37.9-18.4,37.9-39.7v-16c0-22-17.9-39.9-39.9-39.9c-6.3,0-11.9,2.5-16.2,6.4 M469.5,264h18.2v32
		h-28.9L469.5,264z M439.7,311.9h47.9v39.9c0,4.4-3.6,8-8,8h-39.9V311.9z M423.8,80.3c0-4.4,3.6-8,8-8c13.2,0,24,10.8,24,24v16
		c0,13.2-10.8,24-24,24c-4.4,0-8-3.6-8-8V80.3z M375.8,311.9h47.9v16h-47.9V311.9z M375.8,343.9h47.9v16h-47.9V343.9z M375.8,375.8
		h47.9v16h-47.9V375.8z M408.1,77.6c-0.1,0.9-0.3,1.7-0.3,2.6v13 M407.8,116v12.2c0,5.6,2,10.7,5.3,14.8l-156.4,62.6
		c-0.2-0.3-0.4-0.6-0.7-0.8l-20-20L407.8,116z M209,264c-4.9,0-9-4-9-9v-62c0-4.9,4-9,9-9c2.4,0,4.6,0.9,6.3,2.6l29.3,29.3
		c2.1,2.1,3.3,5,3.3,8c0,3-1.2,5.9-3.3,8l-29.3,29.3C213.7,263.1,211.4,264,209,264z M223,275.7c1.3-0.9,2.5-1.9,3.6-3l29.3-29.3
		c1.9-1.9,3.3-4,4.5-6.2l86.7,61.9c-24.2,7.3-43,27-49.1,51.7L223,275.7z M359.9,312.6v79.2h-47.9v-24
		C311.9,339.7,332.8,316.5,359.9,312.6z M216.1,447.7c0-22,17.9-39.9,39.9-39.9c22,0,39.9,17.9,39.9,39.9c0,22-17.9,39.9-39.9,39.9
		C234,487.7,216.1,469.7,216.1,447.7z M407.8,447.7c0-22,17.9-39.9,39.9-39.9s39.9,17.9,39.9,39.9c0,22-17.9,39.9-39.9,39.9
		S407.8,469.7,407.8,447.7z M392.4,439.7h-81c-1.8-12.4-7.7-23.6-16.2-32h113.5C400,416.2,394.2,427.3,392.4,439.7z"/>
	<ellipse transform="matrix(0.9732 -0.2298 0.2298 0.9732 -45.4819 57.4689)" class="st0" cx="224" cy="224" rx="8" ry="8"/>
</g>
<path class="st0" d="M168.1,35.3l238.6,42.1l8.9-14.7L163.4,18.2c-4.4-5.9-11.4-9.9-19.3-9.9h-16c-10.4,0-19.2,6.7-22.5,16H24.3
	c-8.8,0-16,7.2-16,16v24l14.3,114.8c1.5,12,11.7,21,23.8,21h51.7c12.1,0,22.3-9,23.8-21l13.3-106.8h8.9c6.3,0,11.9-2.5,16.2-6.4
	l228.9,40.4l8.9-14.7L167.9,51c0.1-0.9,0.3-1.7,0.3-2.7V35.3z M24.3,40.3h79.9v8c0,2.8,0.6,5.5,1.5,8H24.3V40.3z M25.4,72.3h38.9v32
	H29.4L25.4,72.3z M31.4,120.2h32.9v32H35.4L31.4,120.2z M106,177.1c-0.5,4-3.9,7-7.9,7H46.4c-4,0-7.4-3-7.9-7l-1.1-9h69.8L106,177.1
	z M109.1,152.1H80.3v-32h32.9L109.1,152.1z M115.1,104.2H80.3v-32h38.9L115.1,104.2z M152.1,48.3c0,4.4-3.6,8-8,8h-16
	c-4.4,0-8-3.6-8-8v-16c0-4.4,3.6-8,8-8h16c4.4,0,8,3.6,8,8V48.3z"/>
<path class="st0" d="M256,423.8c-13.2,0-24,10.8-24,24c0,13.2,10.8,24,24,24c13.2,0,24-10.8,24-24C280,434.5,269.2,423.8,256,423.8z
	 M256,455.7c-4.4,0-8-3.6-8-8c0-4.4,3.6-8,8-8c4.4,0,8,3.6,8,8C264,452.1,260.4,455.7,256,455.7z"/>
<path class="st0" d="M447.7,423.8c-13.2,0-24,10.8-24,24c0,13.2,10.8,24,24,24c13.2,0,24-10.8,24-24
	C471.7,434.5,460.9,423.8,447.7,423.8z M447.7,455.7c-4.4,0-8-3.6-8-8c0-4.4,3.6-8,8-8c4.4,0,8,3.6,8,8
	C455.7,452.1,452.1,455.7,447.7,455.7z"/>
</svg>
