<svg xmlns="http://www.w3.org/2000/svg" xmlns:xlink="http://www.w3.org/1999/xlink" width="31" height="29" viewBox="0 0 31 29"><defs><clipPath id="a"><path d="M0,0,31,1.036V29H4.566Z" fill="none"/></clipPath></defs><path d="M0,0,31,1.036V29H4.566Z" fill="none"/><g clip-path="url(#a)"><path d="M21.389,24H.611A.606.606,0,0,1,0,23.4V.6A.606.606,0,0,1,.611,0H21.389A.606.606,0,0,1,22,.6V23.4A.606.606,0,0,1,21.389,24ZM1.222,1.2V22.8H20.777V1.2Z" transform="translate(6 1)" fill="#53565a"/><path d="M.656,0A.621.621,0,0,0,0,.581V3.429A.624.624,0,0,0,.667,4H3.333A.625.625,0,0,0,4,3.429V.581A.622.622,0,0,0,3.343,0a.628.628,0,0,0-.676.563V2.857H1.333V.581A.622.622,0,0,0,.677,0Z" transform="translate(9 25)" fill="#53565a"/><path d="M.656,0A.62.62,0,0,0,0,.581V3.429A.624.624,0,0,0,.667,4H3.333A.625.625,0,0,0,4,3.429V.581A.623.623,0,0,0,3.342,0a.627.627,0,0,0-.675.563V2.857H1.333V.581A.622.622,0,0,0,.677,0Z" transform="translate(22 25)" fill="#53565a"/><path d="M.637,0A.58.58,0,0,0,0,.493.571.571,0,0,0,.62,1H21.363A.579.579,0,0,0,22,.507.571.571,0,0,0,21.381,0H.637Z" transform="translate(6 17)" fill="#53565a"/><path d="M.492,0A.571.571,0,0,0,0,.625V15.376A.57.57,0,0,0,.493,16,.562.562,0,0,0,1,15.394V.625A.572.572,0,0,0,.508,0Z" transform="translate(17 2)" fill="#53565a"/><path d="M.667,0A.619.619,0,0,0,0,.556V4.437A.614.614,0,0,0,.657,5a.622.622,0,0,0,.676-.547V1.111H3.324A.622.622,0,0,0,4,.563.615.615,0,0,0,3.343,0H.667Z" transform="translate(3 3)" fill="#53565a"/><path d="M.676,0A.622.622,0,0,0,0,.548a.615.615,0,0,0,.657.563H2.667V4.437A.615.615,0,0,0,3.325,5,.622.622,0,0,0,4,4.453V.556A.619.619,0,0,0,3.333,0Z" transform="translate(27 3)" fill="#53565a"/><path d="M.623,0A.631.631,0,0,0,0,.643.667.667,0,0,0,.42,1.3l1.788.661a.59.59,0,0,0,.761-.422A.687.687,0,0,0,2.589.7L.8.037A.525.525,0,0,0,.623,0" transform="translate(10 20)" fill="#53565a"/><path d="M2.419,0A.55.55,0,0,0,2.2.037L.412.7a.687.687,0,0,0-.381.845.59.59,0,0,0,.761.422L2.58,1.3A.685.685,0,0,0,2.972.467.615.615,0,0,0,2.419,0" transform="translate(22 20)" fill="#53565a"/></g></svg>