<svg xmlns="http://www.w3.org/2000/svg" xmlns:xlink="http://www.w3.org/1999/xlink" id="Capa_1" x="0px" y="0px" viewBox="0 0 512 512" style="enable-background:new 0 0 512 512;" xml:space="preserve">
<style type="text/css">
	.st0{fill:#478BCC;}
</style>
<g>
	<path class="st0" d="M391,251.5h35.7c8.1,0,14.6-6.6,14.6-14.6v-35.7c0-8.1-6.6-14.6-14.6-14.6H391c-8.1,0-14.6,6.6-14.6,14.6v35.7   C376.4,244.9,382.9,251.5,391,251.5z M391.4,201.5h35v35h-35V201.5z M391,346.5h35.7c8.1,0,14.6-6.6,14.6-14.6v-35.7   c0-8.1-6.6-14.6-14.6-14.6H391c-8.1,0-14.6,6.6-14.6,14.6v35.7C376.4,339.9,382.9,346.5,391,346.5z M391.4,296.5h35v35h-35V296.5z    M289.1,251.5h35.7c8.1,0,14.6-6.6,14.6-14.6v-35.7c0-8.1-6.6-14.6-14.6-14.6h-35.7c-8.1,0-14.6,6.6-14.6,14.6v35.7   C274.5,244.9,281,251.5,289.1,251.5z M289.5,201.5h35v35h-35V201.5z M121,372H85.3c-8.1,0-14.6,6.6-14.6,14.6v35.7   c0,8.1,6.6,14.6,14.6,14.6H121c8.1,0,14.6-6.6,14.6-14.6v-35.7C135.6,378.6,129.1,372,121,372z M120.6,422h-35v-35h35V422z    M121,186.5H85.3c-8.1,0-14.6,6.6-14.6,14.6v35.7c0,8.1,6.6,14.6,14.6,14.6H121c8.1,0,14.6-6.6,14.6-14.6v-35.7   C135.6,193,129.1,186.5,121,186.5z M120.6,236.5h-35v-35h35V236.5z M289.1,344.2h35.7c8.1,0,14.6-6.6,14.6-14.6v-35.7   c0-8.1-6.6-14.6-14.6-14.6h-35.7c-8.1,0-14.6,6.6-14.6,14.6v35.7C274.5,337.7,281,344.2,289.1,344.2z M289.5,294.2h35v35h-35V294.2   z M448.8,34.3h-32.1V22.8c0-12.6-10.2-22.8-22.8-22.8h-3.4c-12.6,0-22.8,10.2-22.8,22.8v11.5H144.3V22.8   c0-12.6-10.2-22.8-22.8-22.8H118c-12.6,0-22.8,10.2-22.8,22.8v11.5H63.2c-20.7,0-37.5,16.8-37.5,37.6v402.7   c0,20.7,16.8,37.5,37.5,37.5h385.7c20.7,0,37.5-16.8,37.5-37.5V71.8C486.4,51.1,469.5,34.3,448.8,34.3L448.8,34.3z M382.7,22.8   c0-4.3,3.5-7.8,7.8-7.8h3.4c4.3,0,7.8,3.5,7.8,7.8v11.5h-19.1V22.8z M110.2,22.8c0-4.3,3.5-7.8,7.8-7.8h3.4c4.3,0,7.8,3.5,7.8,7.8   v11.5h-19.1L110.2,22.8L110.2,22.8z M471.4,474.5c0,12.4-10.1,22.5-22.5,22.5H63.1c-12.4,0-22.5-10.1-22.5-22.5v0   c6.3,4.7,14.1,7.5,22.6,7.5h304.1c10,0,19.5-3.9,26.6-11l77.6-77.6V474.5z M386.2,457.4c0.6-2.4,0.9-5,0.9-7.6v-50.1   c0-9.4,7.7-17.1,17.1-17.1h50.1c2.6,0,5.1-0.3,7.6-0.9L386.2,457.4z M471.4,141.5H151.8c-4.1,0-7.5,3.4-7.5,7.5s3.4,7.5,7.5,7.5   h319.6v194.1c0,9.4-7.7,17.1-17.1,17.1h-50.1c-17.7,0-32.1,14.4-32.1,32.1v50.1c0,9.4-7.7,17.1-17.1,17.1H63.2   c-12.4,0-22.5-10.1-22.5-22.6v-288h81.2c4.1,0,7.5-3.4,7.5-7.5s-3.4-7.5-7.5-7.5H40.6V71.8c0-12.4,10.1-22.5,22.5-22.5h32.1v22.1   c0,12.6,10.2,22.8,22.8,22.8c4.1,0,7.5-3.4,7.5-7.5s-3.4-7.5-7.5-7.5c-4.3,0-7.8-3.5-7.8-7.8V49.3h257.5v22.1   c0,12.6,10.2,22.8,22.8,22.8c4.1,0,7.5-3.4,7.5-7.5s-3.4-7.5-7.5-7.5c-4.3,0-7.8-3.5-7.8-7.8V49.3h66.1c12.4,0,22.5,10.1,22.5,22.5   L471.4,141.5z M121,279.2H85.3c-8.1,0-14.6,6.6-14.6,14.6v35.7c0,8.1,6.6,14.6,14.6,14.6H121c8.1,0,14.6-6.6,14.6-14.6v-35.7   C135.6,285.8,129.1,279.2,121,279.2z M120.6,329.2h-35v-35h35V329.2z M187.2,251.5h35.7c8.1,0,14.6-6.6,14.6-14.6v-35.7   c0-8.1-6.6-14.6-14.6-14.6h-35.7c-8.1,0-14.6,6.6-14.6,14.6v35.7C172.5,244.9,179.1,251.5,187.2,251.5z M187.5,201.5h35v35h-35   V201.5z M289.4,422c-0.2-4-3.5-7.1-7.5-7.1c-4.1,0-7.5,3.4-7.5,7.5c0,8.1,6.6,14.6,14.6,14.6h35.7c8.1,0,14.6-6.6,14.6-14.6v-35.7   c0-8.1-6.6-14.6-14.6-14.6h-35.7c-8.1,0-14.6,6.6-14.6,14.6v10.3c0,4.1,3.4,7.5,7.5,7.5s7.5-3.4,7.5-7.5V387h35v35H289.4z    M187.2,344.2h35.7c8.1,0,14.6-6.6,14.6-14.6v-35.7c0-8.1-6.6-14.6-14.6-14.6h-35.7c-8.1,0-14.6,6.6-14.6,14.6v35.7   C172.5,337.7,179.1,344.2,187.2,344.2z M187.5,294.2h35v35h-35V294.2z M187.2,437h35.7c8.1,0,14.6-6.6,14.6-14.6v-35.7   c0-8.1-6.6-14.6-14.6-14.6h-35.7c-8.1,0-14.6,6.6-14.6,14.6v35.7C172.5,430.4,179.1,437,187.2,437z M187.5,387h35v35h-35V387z"></path>
</g>
</svg>