<?xml version="1.0" encoding="UTF-8"?>
<svg id="Layer_1" xmlns="http://www.w3.org/2000/svg" version="1.1" viewBox="0 0 512 512">
  <!-- Generator: Adobe Illustrator 29.8.2, SVG Export Plug-In . SVG Version: 2.1.1 Build 3)  -->
  <defs>
    <style>
      .st0 {
        fill: #53565a;
      }

      .st1 {
        fill: none;
        stroke: #53565a;
        stroke-linecap: round;
        stroke-miterlimit: 10;
        stroke-width: 25.3px;
      }
    </style>
  </defs>
  <g id="_01">
    <path class="st0" d="M371.1,57.3c38.5,0,69.6,30,70.7,68.3h0c0,0,0,.2,0,.2l9.6,256v.3s0,.3,0,.3c1.1,18-5.4,35.4-19,50.2-13.1,14.3-30.4,22.2-48.6,22.2h-252.8c-18.8,0-36.5-7.4-49.9-20.8-13.4-13.4-20.8-31.1-20.8-49.9v-2.7l9.6-255.5h0c0,0,0-.2,0-.2,1.2-38.3,32.2-68.3,70.7-68.3h230.4M371.1,32h-230.4c-51.2,0-94.4,40-96,92.8l-9.6,256v3.2c0,52.8,43.2,96,96,96h252.8c25.6,0,49.6-11.2,67.2-30.4,17.6-19.2,27.2-43.2,25.6-68.8l-9.6-256c-1.6-52.8-44.8-92.8-96-92.8h0Z"/>
    <path class="st1" d="M175.9,112c0,44.8,35.2,80,80,80s80-35.2,80-80"/>
  </g>
</svg>