<?xml version="1.0" encoding="utf-8"?>
<svg width="229px" height="26px" viewBox="0 0 229 26" version="1.1" xmlns:xlink="http://www.w3.org/1999/xlink" xmlns="http://www.w3.org/2000/svg">
  <defs>
    <radialGradient gradientUnits="objectBoundingBox" cx="49.42%" cy="50.450726%" fx="49.42%" fy="50.450726%" r="49.73714%" gradientTransform="translate(0.4942,0.50450724),scale(1,0.96019536),scale(1,0),translate(-0.4942,-0.50450724)" id="gradient_1">
      <stop offset="0.5618%" stop-color="#FFEEE0" />
      <stop offset="10.96%" stop-color="#FEE9D7" />
      <stop offset="27.93%" stop-color="#FDDBBF" />
      <stop offset="49.35%" stop-color="#FBC597" />
      <stop offset="74.4%" stop-color="#F8A560" />
      <stop offset="100%" stop-color="#F48120" />
    </radialGradient>
  </defs>
  <g id="credit-card-icons">
    <g id="v-copy" transform="translate(46.92623 0)">
      <path d="M39.418 24.5882C39.418 25.3529 38.8047 26 38.0799 26L1.33809 26C0.613293 26 0 25.3529 0 24.5882L0 1.41176C0 0.647059 0.613293 0 1.33809 0L38.0799 0C38.8047 0 39.418 0.647059 39.418 1.41176L39.418 24.5882L39.418 24.5882Z" transform="matrix(1 0 0 1 -3.3768368E-13 2.213614E-13)" id="Path" fill="#FCFCFC" fill-rule="evenodd" stroke="none" />
      <g id="Group" transform="translate(7.91706 8.941176)">
        <g id="Group">
          <path d="M1.95139 7.76471L0 7.76471L1.22659 0L3.12222 0L1.95139 7.76471Z" transform="translate(8.307338 0.1764706)" id="Path" fill="#0066B2" fill-rule="evenodd" stroke="none" />
          <path d="M6.69047 0.117647L4.85059 5.47059L4.62758 4.29412L4.62758 4.29412L3.95853 0.764706C3.95853 0.764706 3.90278 0.0588235 3.06647 0.0588235L0.0557539 0.0588235L0 0.176471C0 0.176471 0.947817 0.352941 2.00714 1.05882L3.67976 7.82353L5.6869 7.82353L8.75337 0L6.69047 0L6.69047 0.117647Z" transform="translate(0 0.05882353)" id="Path" fill="#0066B2" fill-rule="evenodd" stroke="none" />
          <path d="M5.07361 7.82353L6.85773 7.82353L5.29662 0L3.73551 0C3.01071 0 2.84345 0.588235 2.84345 0.588235L0 7.82353L2.00714 7.82353L2.39742 6.64706L4.85059 6.64706L5.07361 7.82353ZM2.95496 5.05882L3.95853 2.11765L4.51607 5.05882L2.95496 5.05882Z" transform="translate(16.781937 0.11764706)" id="Shape" fill="#0066B2" stroke="none" />
          <path d="M5.46389 2L5.74266 0.352941C5.74266 0.352941 4.90635 0 4.01428 0C3.06647 0 0.780555 0.411765 0.780555 2.58824C0.780555 4.58824 3.45674 4.64706 3.45674 5.70588C3.45674 6.76471 1.05932 6.58824 0.27877 5.88235L0 7.64706C0 7.64706 0.836309 8.05882 2.1744 8.05882C3.5125 8.05882 5.46389 7.35294 5.46389 5.41177C5.46389 3.41176 2.7877 3.17647 2.7877 2.29412C2.7877 1.41176 4.62758 1.52941 5.46389 2Z" transform="translate(11.429559 -6.9661053E-15)" id="Path" fill="#0066B2" fill-rule="evenodd" stroke="none" />
        </g>
        <path d="M4.62758 4.23529L3.95853 0.705882C3.95853 0.705882 3.90278 0 3.06647 0L0.0557539 0L0 0.117647C0 0.117647 1.4496 0.411765 2.84345 1.64706C4.2373 2.82353 4.62758 4.23529 4.62758 4.23529Z" transform="translate(0 0.11764706)" id="Path" fill="#F9A533" fill-rule="evenodd" stroke="none" />
      </g>
    </g>
    <g id="pp-copy">
      <path d="M39.418 24.5882C39.418 25.3529 38.8047 26 38.0799 26L1.33809 26C0.613293 26 0 25.3529 0 24.5882L0 1.41176C0 0.647059 0.613293 0 1.33809 0L38.0799 0C38.8047 0 39.418 0.647059 39.418 1.41176L39.418 24.5882L39.418 24.5882Z" transform="matrix(1 0 0 1 2.1527334E-13 2.213614E-13)" id="Path" fill="#FCFCFC" fill-rule="evenodd" stroke="none" />
      <g id="pp" transform="translate(7.8468018 10.294118)">
        <path d="M3.28948 0.235294C3.06647 0.117647 2.67619 0 2.11865 0C1.83988 0 1.61686 0 1.33809 0.0588235C1.11508 0.117647 1.11508 0.117647 1.00357 0.117647C0.780555 0.176471 0.724801 0.411765 0.724801 0.411765L0.669047 0.764706C0.613293 1 0.724801 1 0.780555 0.941177C0.892063 0.882353 0.947817 0.882353 1.17083 0.82353C1.39385 0.764706 1.61686 0.705882 1.78413 0.764706C2.0629 0.764706 2.23016 0.82353 2.39742 0.882353C2.50893 0.941177 2.62043 1.05882 2.62043 1.17647C2.62043 1.23529 2.62043 1.23529 2.62043 1.29412C2.62043 1.29412 2.56468 1.35294 2.50893 1.35294C2.11865 1.35294 1.83988 1.41176 1.56111 1.47059C1.22659 1.52941 0.947817 1.58824 0.724801 1.70588C0.501785 1.82353 0.27877 2 0.167262 2.17647C0.0557539 2.35294 0 2.58824 0 2.88235C0 3.17647 0.111508 3.35294 0.27877 3.52941C0.446031 3.70588 0.669047 3.76471 0.947817 3.76471C1.11508 3.76471 1.28234 3.76471 1.33809 3.70588C1.4496 3.70588 1.56111 3.64706 1.67262 3.58824C1.78413 3.52941 1.83988 3.47059 1.95139 3.41177C2.0629 3.35294 2.11865 3.29412 2.1744 3.23529L2.1744 3.23529L2.1744 3.35294C2.1744 3.35294 2.1744 3.35294 2.1744 3.35294L2.1744 3.35294C2.1744 3.47059 2.23016 3.58824 2.34167 3.58824L2.34167 3.58824L2.34167 3.58824L2.34167 3.58824C2.39742 3.58824 2.73194 3.58824 2.84345 3.58824L2.95496 3.58824C2.95496 3.58824 2.95496 3.58824 2.95496 3.58824C3.06647 3.58824 3.23373 3.47059 3.23373 3.35294L3.73551 1.17647C3.73551 1.11765 3.73551 1.05882 3.73551 1C3.73551 0.941177 3.73551 0.882353 3.73551 0.82353C3.67976 0.588235 3.56825 0.352941 3.28948 0.235294ZM2.1744 2.82353C2.11865 2.88235 2.00714 2.94118 1.89563 2.94118C1.78413 3 1.67262 3 1.56111 3C1.39385 3 1.28234 3 1.17083 2.94118C1.05932 2.88235 1.05932 2.82353 1.05932 2.70588C1.05932 2.58824 1.11508 2.47059 1.17083 2.35294C1.22659 2.29412 1.33809 2.17647 1.4496 2.17647C1.56111 2.11765 1.72837 2.11765 1.89563 2.05882C2.0629 2.05882 2.34167 2 2.39742 2C2.45317 2 2.45317 2 2.45317 2.05882C2.45317 2.11765 2.34167 2.47059 2.34167 2.64706C2.23016 2.76471 2.1744 2.82353 2.1744 2.82353Z" transform="translate(16.12739 1.0588237)" id="Shape" fill="#336699" stroke="none" />
        <path d="M3.06873 0.0588235C2.90146 0.0588235 2.7342 0.176471 2.67845 0.352941C2.67845 0.352941 1.73063 2.05882 1.61912 2.23529C1.56337 2.35294 1.50762 2.29412 1.50762 2.23529C1.50762 2.17647 1.22885 0.352941 1.22885 0.352941C1.17309 0.235294 1.06158 0.0588235 0.894322 0.0588235L0.281029 0.0588235C0.113767 0.0588235 0.058013 0.176471 0.058013 0.294118C0.058013 0.294118 0.504044 3 0.615552 3.58824C0.671306 3.94118 0.615552 4 0.615552 4L0.058013 5.05882C-0.0534949 5.17647 0.00225906 5.29412 0.169521 5.29412L0.838568 5.29412C1.00583 5.29412 1.17309 5.17647 1.22885 5.05882L3.84928 0.411765C3.84928 0.411765 4.0723 0 3.84928 0C3.68202 0.0588235 3.06873 0.0588235 3.06873 0.0588235" transform="translate(8.152319 1.0588237)" id="Path" fill="#003366" fill-rule="evenodd" stroke="none" />
        <path d="M2.96946 2.05882C2.74645 2.23529 2.52343 2.29412 2.13315 2.29412L1.96589 2.29412C1.79863 2.29412 1.74288 2.17647 1.74288 2.05882L1.96589 1.17647C2.02164 1.05882 2.13315 0.941177 2.30041 0.941177L2.52343 0.941177C2.74645 0.941177 2.96946 1 3.08097 1.05882C3.19248 1.11765 3.24823 1.29412 3.24823 1.47059C3.24823 1.70588 3.13672 1.88235 2.96946 2.05882M4.36331 0.705882C4.30756 0.529412 4.14029 0.411765 4.02879 0.294118C3.86152 0.176471 3.69426 0.117647 3.47125 0.0588235C3.24823 0 2.96946 0 2.69069 0L1.29684 0C1.12958 0 1.01807 0.117647 0.96232 0.235294L0.0145032 4.47059C-0.0412507 4.58824 0.0702572 4.70588 0.237519 4.70588L0.906566 4.70588C1.07383 4.70588 1.18534 4.58824 1.24109 4.47059L1.46411 3.47059C1.51986 3.35294 1.63137 3.23529 1.79863 3.23529L1.96589 3.23529C2.74645 3.23529 3.41549 3.05882 3.86152 2.70588C4.30756 2.35294 4.53057 1.88235 4.53057 1.35294C4.47482 1.05882 4.47482 0.82353 4.36331 0.705882" id="Shape" fill="#003366" stroke="none" />
        <path d="M2.91371 2.05882C2.69069 2.23529 2.46768 2.29412 2.0774 2.29412L1.91014 2.29412C1.74288 2.29412 1.68712 2.17647 1.68712 2.05882L1.91014 1.17647C1.96589 1.05882 2.0774 0.941177 2.24466 0.941177L2.46768 0.941177C2.74645 0.941177 2.91371 1 3.02522 1.05882C3.13672 1.17647 3.19248 1.29412 3.19248 1.47059C3.19248 1.70588 3.13672 1.94118 2.91371 2.05882M4.36331 0.705882C4.30756 0.529412 4.14029 0.411765 4.02879 0.294118C3.86152 0.176471 3.69426 0.117647 3.47125 0.0588235C3.24823 0 2.96946 0 2.69069 0L1.29684 0C1.12958 0 1.01807 0.117647 0.96232 0.235294L0.0145032 4.47059C-0.0412507 4.58824 0.0702572 4.70588 0.237519 4.70588L0.906566 4.70588C1.01807 4.70588 1.18534 4.58824 1.24109 4.47059L1.46411 3.47059C1.51986 3.35294 1.63137 3.17647 1.79863 3.23529L1.96589 3.23529C2.74645 3.23529 3.41549 3.05882 3.86152 2.70588C4.30756 2.35294 4.53057 1.88235 4.53057 1.35294C4.47482 1.05882 4.41906 0.882353 4.36331 0.705882" transform="translate(11.931342 0)" id="Shape" fill="#336699" stroke="none" />
        <path d="M3.34524 0.235294C3.12222 0.117647 2.73194 0 2.1744 0C1.89563 0 1.67262 0 1.39385 0.0588235C1.17083 0.117647 1.17083 0.117647 1.05932 0.117647C0.836309 0.176471 0.780555 0.411765 0.780555 0.411765L0.724801 0.764706C0.613293 1 0.724801 1 0.780555 1C0.892063 0.941177 0.947817 0.941177 1.17083 0.882353C1.39385 0.82353 1.61686 0.764706 1.78413 0.82353C2.0629 0.82353 2.23016 0.882353 2.39742 0.941177C2.50893 1 2.62043 1.11765 2.62043 1.23529C2.62043 1.29412 2.62043 1.29412 2.62043 1.35294C2.62043 1.35294 2.56468 1.41176 2.50893 1.41176C2.11865 1.41176 1.83988 1.47059 1.56111 1.52941C1.22659 1.58824 0.947817 1.64706 0.724801 1.76471C0.501785 1.88235 0.27877 2.05882 0.167262 2.23529C0.0557539 2.41177 0 2.64706 0 2.94118C0 3.23529 0.111508 3.41177 0.27877 3.58824C0.446031 3.76471 0.669047 3.82353 0.947817 3.82353C1.11508 3.82353 1.28234 3.82353 1.33809 3.76471C1.4496 3.76471 1.56111 3.70588 1.67262 3.64706C1.78413 3.58824 1.83988 3.52941 1.95139 3.47059C2.0629 3.41177 2.11865 3.35294 2.1744 3.29412L2.1744 3.29412L2.1744 3.41177C2.1744 3.41177 2.1744 3.41177 2.1744 3.41177L2.1744 3.41177C2.1744 3.52941 2.23016 3.64706 2.34167 3.64706L2.34167 3.64706L2.34167 3.64706L2.34167 3.64706C2.45317 3.64706 2.73194 3.64706 2.84345 3.64706L2.95496 3.64706C2.95496 3.64706 2.95496 3.64706 2.95496 3.64706C3.06647 3.64706 3.23373 3.52941 3.23373 3.41177L3.73551 1.23529C3.73551 1.17647 3.73551 1.11765 3.73551 1.05882C3.73551 1 3.73551 0.941177 3.73551 0.882353C3.67976 0.588235 3.56825 0.352941 3.34524 0.235294ZM2.1744 2.82353C2.11865 2.88235 2.00714 2.94118 1.89563 2.94118C1.78413 3 1.67262 3 1.56111 3C1.39385 3 1.28234 3 1.17083 2.94118C1.05932 2.88235 1.05932 2.82353 1.05932 2.70588C1.05932 2.58824 1.11508 2.47059 1.17083 2.35294C1.22659 2.29412 1.33809 2.17647 1.4496 2.17647C1.56111 2.11765 1.72837 2.11765 1.89563 2.05882C2.0629 2.05882 2.34167 2 2.39742 2C2.45317 2 2.45317 2 2.45317 2.05882C2.45317 2.11765 2.34167 2.47059 2.34167 2.64706C2.28591 2.70588 2.1744 2.82353 2.1744 2.82353Z" transform="translate(4.1960483 1.0588237)" id="Shape" fill="#003366" stroke="none" />
        <path d="M1.78413 0L1.17083 0C1.17083 0 1.17083 0 1.17083 0L1.17083 0C1.05932 0 0.892063 0.117647 0.892063 0.235294C0.892063 0.235294 0.892063 0.235294 0.892063 0.235294C0.892063 0.235294 0.892063 0.294118 0.836309 0.411765L0.0557539 4.29412C0.0557539 4.41177 0 4.47059 0 4.47059L0 4.47059C0 4.58824 0.0557539 4.70588 0.167262 4.70588L0.167262 4.70588L0.780555 4.70588C0.892063 4.70588 1.05932 4.58824 1.05932 4.47059C1.05932 4.47059 1.05932 4.47059 1.05932 4.47059L1.95139 0.294118L1.95139 0.294118C2.00714 0.117647 1.89563 0 1.78413 0Z" transform="translate(19.918657 0.058823537)" id="Path" fill="#336699" fill-rule="evenodd" stroke="none" />
        <g id="Group" transform="translate(22.120937 0)">
          <path d="M0.473909 0.962963C0.473909 0.962963 0.418155 0.962963 0.418155 0.962963C0.418155 0.962963 0.362401 0.962963 0.362401 0.962963C0.306647 0.962963 0.250893 0.962963 0.195139 0.898766C0.139385 0.898766 0.139385 0.834568 0.139385 0.77037L0.139385 0.320988L0.0836309 0.320988L0.0836309 0.192593L0.139385 0.192593L0.139385 0L0.250893 0L0.250893 0.192593L0.473909 0.192593L0.473909 0.320988L0.250893 0.320988L0.250893 0.641975C0.250893 0.706173 0.250893 0.706173 0.250893 0.706173C0.250893 0.706173 0.250893 0.77037 0.250893 0.77037C0.250893 0.77037 0.250893 0.77037 0.306647 0.834568C0.306647 0.834568 0.362401 0.834568 0.362401 0.834568C0.362401 0.834568 0.418155 0.834568 0.418155 0.834568C0.418155 0.834568 0.473909 0.834568 0.473909 0.834568L0.473909 0.834568L0.473909 0.962963L0.473909 0.962963Z" id="Path" fill="#336699" fill-rule="evenodd" stroke="none" />
          <path d="M1.00357 0.706173L0.892063 0.706173L0.892063 0.25679C0.892063 0.25679 0.892063 0.192593 0.892063 0.192593C0.892063 0.192593 0.892063 0.128395 0.892063 0.128395C0.892063 0.128395 0.892063 0.0641975 0.836309 0.0641975C0.836309 0.0641975 0.780555 0.0641975 0.780555 0.0641975C0.724801 0.0641975 0.724801 0.0641975 0.669047 0.0641975C0.613293 0.0641975 0.613293 0.128395 0.557539 0.128395C0.557539 0.128395 0.557539 0.128395 0.557539 0.192593C0.557539 0.192593 0.557539 0.192593 0.557539 0.25679L0.557539 0.706173L0.446032 0.706173L0.446032 0.25679C0.446032 0.192593 0.446032 0.192593 0.446032 0.192593C0.446032 0.192593 0.446032 0.128395 0.446032 0.128395C0.446032 0.128395 0.446032 0.0641975 0.390278 0.0641975C0.390278 0.0641975 0.334524 0.0641975 0.334524 0.0641975C0.27877 0.0641975 0.27877 0.0641975 0.223016 0.0641975C0.167262 0.0641975 0.167262 0.128395 0.111508 0.128395L0.111508 0.706173L0 0.706173L0 0L0.167262 0L0.167262 0.0641975C0.223016 0.0641975 0.223016 0 0.27877 0C0.334524 0 0.334524 0 0.390278 0C0.446032 0 0.446032 0 0.501786 0C0.557539 0 0.557539 0.0641975 0.557539 0.0641975C0.613293 0 0.613293 0 0.669047 0C0.724801 0 0.724801 0 0.780555 0C0.836309 0 0.892063 0 0.947817 0.0641975C1.00357 0.128395 1.00357 0.192593 1.00357 0.25679L1.00357 0.706173L1.00357 0.706173Z" transform="translate(0.5296625 0.25679016)" id="Path" fill="#336699" fill-rule="evenodd" stroke="none" />
        </g>
      </g>
    </g>
    <g id="mc-copy" transform="translate(94.790985 0)">
      <path d="M39.418 24.5882C39.418 25.3529 38.8047 26 38.0799 26L1.33809 26C0.613293 26 0 25.3529 0 24.5882L0 1.41176C0 0.647059 0.613293 0 1.33809 0L38.0799 0C38.8047 0 39.418 0.647059 39.418 1.41176L39.418 24.5882Z" id="Path" fill="#FCFCFC" fill-rule="evenodd" stroke="none" />
      <g id="Group-8" transform="translate(8.446721 5.7777777)">
        <path d="M7.0087 14.4444L7.37102 14.4346L7.72869 14.4079L8.07935 14.3618L8.42749 14.2983L8.76611 14.2179L9.10021 14.1204L9.42703 14.006L9.74684 13.8769L10.0594 13.7307L10.3626 13.5723L10.6563 13.3969L10.9429 13.2093L11.2176 13.0072L11.4829 12.7928L11.7388 12.5661L11.9827 12.325L12.2172 12.074L12.4374 11.8109L12.6459 11.538L12.8424 11.2555L13.0248 10.9607L13.1954 10.6585L13.3493 10.3468L13.4914 10.025L13.617 9.69636L13.7283 9.35994L13.8231 9.01655L13.9013 8.66814L13.9628 8.31004L14.0077 7.9495L14.0338 7.5816L14.0434 7.20881L14.0338 6.83846L14.0077 6.47314L13.9628 6.11247L13.9013 5.75928L13.8231 5.41086L13.7283 5.0698L13.617 4.73363L13.4914 4.40714L13.3493 4.08801L13.1954 3.77623L13.0248 3.47657L12.8424 3.18168L12.6459 2.89905L12.4374 2.62868L12.2172 2.36566L11.9827 2.11463L11.7388 1.87586L11.4829 1.64934L11.2176 1.43495L10.9429 1.23268L10.6563 1.04512L10.3626 0.872141L10.0594 0.713863L9.74684 0.567582L9.42703 0.438586L9.10021 0.324038L8.76611 0.226517L8.42749 0.146152L8.07935 0.0828154L7.72869 0.0365058L7.37102 0.00980369L7.0087 0L6.64864 0.00980369L6.29096 0.0365058L5.94043 0.0828154L5.59454 0.146152L5.25593 0.226517L4.92195 0.324038L4.59738 0.438586L4.27771 0.567582L3.96744 0.713863L3.66657 0.872141L3.37298 1.04512L3.08867 1.23268L2.81389 1.43495L2.54864 1.64934L2.29518 1.87586L2.05125 2.11463L1.81911 2.36566L1.59889 2.62868L1.39045 2.89905L1.19619 3.18168L1.01371 3.47657L0.845659 3.77623L0.689394 4.08801L0.549559 4.40714L0.424021 4.73363L0.315163 5.0698L0.22035 5.41086L0.142218 5.75928L0.0806405 6.11247L0.0356173 6.47314L0.00953138 6.83846L0 7.20881L0.00953138 7.5816L0.0356173 7.9495L0.0806405 8.31004L0.142218 8.66814L0.22035 9.01655L0.315163 9.35994L0.424021 9.69636L0.549559 10.025L0.689394 10.3468L0.845659 10.6585L1.01371 10.9607L1.19619 11.2555L1.39045 11.538L1.59889 11.8109L1.81911 12.074L2.05125 12.325L2.29518 12.5661L2.54864 12.7928L2.81389 13.0072L3.08867 13.2093L3.37298 13.3969L3.66657 13.5723L3.96744 13.7307L4.27771 13.8769L4.59738 14.006L4.92195 14.1204L5.25593 14.2179L5.59454 14.2983L5.94043 14.3618L6.29096 14.4079L6.64864 14.4346L7.0087 14.4444" transform="translate(9.41976 0)" id="Fill-4" fill="#F1AD3D" fill-rule="evenodd" stroke="none" />
        <path d="M7.03466 14.4444L7.39472 14.4346L7.7524 14.4079L8.10292 14.3618L8.44869 14.2983L8.78743 14.2179L9.1214 14.1204L9.44585 14.006L9.76565 13.8769L10.0759 13.7307L10.3767 13.5723L10.6705 13.3969L10.9547 13.2093L11.2295 13.0072L11.4947 12.7928L11.748 12.5661L11.9921 12.325L12.2242 12.074L12.4445 11.8109L12.6529 11.538L12.8472 11.2555L13.0295 10.9607L13.1977 10.6585L13.354 10.3468L13.4937 10.025L13.6193 9.69636L13.7282 9.35994L13.8229 9.01655L13.9011 8.66814L13.9627 8.31004L14.0077 7.9495L14.0338 7.5816L14.0432 7.20881L14.0338 6.83846L14.0077 6.47314L13.9627 6.11247L13.9011 5.75928L13.8229 5.41086L13.7282 5.0698L13.6193 4.73363L13.4937 4.40714L13.354 4.08801L13.1977 3.77623L13.0295 3.47657L12.8472 3.18168L12.6529 2.89905L12.4445 2.62868L12.2242 2.36566L11.9921 2.11463L11.748 1.87586L11.4947 1.64934L11.2295 1.43495L10.9547 1.23268L10.6705 1.04512L10.3767 0.872141L10.0759 0.713863L9.76565 0.567582L9.44585 0.438586L9.1214 0.324038L8.78743 0.226517L8.44869 0.146152L8.10292 0.0828154L7.7524 0.0365058L7.39472 0.00980369L7.03466 0L6.67234 0.00980369L6.31466 0.0365058L5.96401 0.0828154L5.61586 0.146152L5.27725 0.226517L4.94327 0.324038L4.61632 0.438586L4.29652 0.567582L3.98399 0.713863L3.68074 0.872141L3.38702 1.04512L3.10046 1.23268L2.82568 1.43495L2.56043 1.64934L2.30459 1.87586L2.06066 2.11463L1.82614 2.36566L1.60591 2.62868L1.39748 2.89905L1.20083 3.18168L1.01848 3.47657L0.847916 3.77623L0.693909 4.08801L0.551942 4.40714L0.426404 4.73363L0.315037 5.0698L0.220225 5.41086L0.142093 5.75928L0.080515 6.11247L0.0354918 6.47314L0.00940596 6.83846L0 7.20881L0.00940596 7.5816L0.0354918 7.9495L0.080515 8.31004L0.142093 8.66814L0.220225 9.01655L0.315037 9.35994L0.426404 9.69636L0.551942 10.025L0.693909 10.3468L0.847916 10.6585L1.01848 10.9607L1.20083 11.2555L1.39748 11.538L1.60591 11.8109L1.82614 12.074L2.06066 12.325L2.30459 12.5661L2.56043 12.7928L2.82568 13.0072L3.10046 13.2093L3.38702 13.3969L3.68074 13.5723L3.98399 13.7307L4.29652 13.8769L4.61632 14.006L4.94327 14.1204L5.27725 14.2179L5.61586 14.2983L5.96401 14.3618L6.31466 14.4079L6.67234 14.4346L7.03466 14.4444" id="Fill-5" fill="#D82332" fill-rule="evenodd" stroke="none" />
        <path d="M0 0.392277L3.73053 0.392277L3.73053 0L0.32206 0L0 0.392277" transform="translate(10.909665 2.3777812)" id="Fill-6" fill="#F1AD3D" fill-rule="evenodd" stroke="none" />
        <path d="M0 0.392148L4.2895 0.392148L4.2895 0L0.224991 0L0 0.392148" transform="translate(10.350699 3.2500515)" id="Fill-7" fill="#F1AD3D" fill-rule="evenodd" stroke="none" />
        <path d="M0 0.392276L4.70637 0.392276L4.70637 0L0.165796 0L0 0.392276" transform="translate(9.933827 4.1196127)" id="Fill-8" fill="#F1AD3D" fill-rule="evenodd" stroke="none" />
        <path d="M0 0.392148L4.99306 0.392148L4.99306 0L0.118515 0L0 0.392148" transform="translate(9.647133 4.9918833)" id="Fill-9" fill="#F1AD3D" fill-rule="evenodd" stroke="none" />
        <path d="M0.118515 0.392277L4.95745 0.392277L4.95745 0L0 0L0.118515 0.392277" transform="translate(9.694539 9.206566)" id="Fill-10" fill="#F1AD3D" fill-rule="evenodd" stroke="none" />
        <path d="M0.177585 0.392277L4.65896 0.392277L4.65896 0L0 0L0.177585 0.392277" transform="translate(9.993022 10.078707)" id="Fill-11" fill="#F1AD3D" fill-rule="evenodd" stroke="none" />
        <path d="M0.239288 0.392277L4.21851 0.392277L4.21851 0L0 0L0.239288 0.392277" transform="translate(10.433472 10.948526)" id="Fill-12" fill="#F1AD3D" fill-rule="evenodd" stroke="none" />
        <path d="M0.333974 0.394598L3.62155 0.394598L3.62155 0L0 0L0.333974 0.394598" transform="translate(11.0304365 11.818217)" id="Fill-13" fill="#F1AD3D" fill-rule="evenodd" stroke="none" />
        <path d="M0 0.392276L5.16112 0.392276L5.16112 0L0.0733665 0L0 0.392276" transform="translate(9.47908 5.861573)" id="Fill-14" fill="#F1AD3D" fill-rule="evenodd" stroke="none" />
        <path d="M0 0.392277L1.96823 0.392277L1.96823 0L0.0709837 0L0 0.392277" transform="translate(12.62456 8.336876)" id="Fill-15" fill="#F1AD3D" fill-rule="evenodd" stroke="none" />
        <path d="M0 0.394727L1.81196 0.394727L1.81196 0L0.0711091 0L0 0.394727" transform="translate(12.780825 7.4646053)" id="Fill-16" fill="#F1AD3D" fill-rule="evenodd" stroke="none" />
        <path d="M0 0L0.511684 0L0.511684 0.394727L0.023703 0.394727L0 0" transform="translate(9.348776 7.4646053)" id="Fill-17" fill="#F1AD3D" fill-rule="evenodd" stroke="none" />
        <path d="M1.98968 0.61402L1.95644 0.61157L1.92333 0.606668L1.89248 0.601766L1.86175 0.596864L1.83329 0.592091L1.80256 0.587189L1.77171 0.582287L1.7386 0.577386L1.70549 0.572484L1.66749 0.570033L1.62497 0.567711L1.57995 0.56526L1.53016 0.56526L1.47573 0.567711L1.41403 0.572484L1.34543 0.577386L1.29802 0.584738L1.253 0.592091L1.21274 0.606668L1.17725 0.621244L1.14402 0.638272L1.11329 0.657879L1.06827 0.70406L1.0541 0.730891L1.04218 0.757722L1.03742 0.786875L1.03742 0.816286L1.04456 0.84789L1.0541 0.879494L1.07303 0.911227L1.09674 0.942831L1.14402 0.989011L1.20095 1.02578L1.26717 1.05738L1.33828 1.08421L1.41403 1.10846L1.49216 1.13529L1.57042 1.16457L1.64617 1.19631L1.71728 1.23759L1.78362 1.2888L1.84282 1.34968L1.89248 1.42515L1.93048 1.51777L1.95418 1.62754L1.96359 1.75899L1.95418 1.91249L1.9375 2.02691L1.90916 2.12688L1.87116 2.2195L1.82375 2.29987L1.76932 2.37043L1.70775 2.43131L1.6414 2.48498L1.56804 2.53129L1.49216 2.56779L1.41403 2.59953L1.33352 2.62378L1.25074 2.64338L1.1701 2.65796L1.09197 2.66531L1.01371 2.67021L0.940346 2.67254L0.838511 2.67254L0.743824 2.67021L0.660926 2.67021L0.582668 2.66763L0.511685 2.66531L0.447724 2.66028L0.390912 2.65551L0.336357 2.64829L0.286694 2.64338L0.241671 2.63358L0.196647 2.62636L0.15639 2.6141L0.116132 2.60443L0.0782576 2.58985L0.0402575 2.57515L0 2.56044L0.106601 2.02214L0.128047 2.02691L0.154007 2.03427L0.187116 2.04407L0.227374 2.05374L0.270014 2.06355L0.31742 2.07335L0.369592 2.08535L0.426404 2.09528L0.485599 2.10495L0.547176 2.11463L0.611137 2.12211L0.67748 2.12934L0.746207 2.13179L0.814807 2.13411L0.883534 2.13411L0.95226 2.13179L1.02086 2.11721L1.07542 2.0976L1.11806 2.07077L1.15116 2.03672L1.17487 2.00266L1.19381 1.96358L1.20572 1.92462L1.21513 1.88811L1.21989 1.81742L1.19857 1.75667L1.15831 1.70791L1.09899 1.66637L1.02801 1.62986L0.945111 1.59336L0.852682 1.55917L0.760378 1.52035L0.665692 1.47649L0.575645 1.42515L0.492747 1.36181L0.416872 1.28635L0.357678 1.19373L0.315037 1.08421L0.293717 0.952506L0.2961 0.796679L0.308014 0.701609L0.324569 0.61157L0.348272 0.528754L0.376615 0.450712L0.41449 0.3777L0.457255 0.314234L0.506919 0.253348L0.566114 0.199815L0.63484 0.153505L0.710589 0.114548L0.79587 0.0779135L0.890682 0.0512114L0.997283 0.0292821L1.11329 0.0122546L1.24109 0.00245092L1.38092 0L1.46858 0L1.5491 0.00245092L1.62247 0.00490184L1.68881 0.00735277L1.748 0.0122546L1.80256 0.0171565L1.84984 0.0219293L1.89248 0.0268311L1.93286 0.031733L1.96597 0.0389568L1.9967 0.0438586L2.02517 0.0487604L2.04887 0.0535333L2.07019 0.0559842L2.09151 0.0610151L2.11045 0.063466L1.98968 0.61402" transform="translate(6.404584 6.375622)" id="Fill-18" fill="#FFFFFE" fill-rule="evenodd" stroke="none" />
        <path d="M0.466661 0L1.1227 0L1.02563 0.589511L1.42118 0.589511L1.3359 1.14007L0.919026 1.12794L0.691652 2.4873L0.689269 2.53606L0.701058 2.57747L0.724886 2.60907L0.755613 2.6359L0.798253 2.65293L0.845659 2.66763L0.897705 2.67731L0.954517 2.68221L1.00669 2.67976L1.05397 2.67486L1.09674 2.66763L1.13449 2.65783L1.16534 2.64816L1.18666 2.6408L1.20095 2.6359L1.20559 2.63358L1.1227 3.08661L1.10614 3.09874L1.08959 3.10854L1.07303 3.11822L1.05635 3.12815L1.0398 3.13537L1.02086 3.14273L0.999541 3.15008L0.978221 3.1573L0.954517 3.16466L0.930814 3.16943L0.902471 3.17433L0.874002 3.17923L0.843276 3.18401L0.807784 3.18891L0.769784 3.19381L0.729527 3.19858L0.549559 3.19858L0.454747 3.19136L0.371849 3.18168L0.2961 3.16698L0.232139 3.15008L0.17771 3.12815L0.132687 3.10364L0.0923039 3.07449L0.0615777 3.04275L0.0380001 3.0087L0.0213202 2.96729L0.00953138 2.92576L0.00238284 2.87957L0 2.82836L0 2.7747L0.00714853 2.71885L0.0141717 2.65783L0.466661 0" transform="translate(8.488945 5.837322)" id="Fill-20" fill="#FFFFFE" fill-rule="evenodd" stroke="none" />
        <path d="M0.691526 1.52035L0.684503 1.56162L0.682121 1.60548L0.686886 1.65179L0.696418 1.6981L0.712972 1.74441L0.731909 1.78827L0.757995 1.83445L0.786339 1.87586L0.819573 1.91739L0.855065 1.9539L0.89294 1.99041L0.93558 2.01969L0.97822 2.04652L1.02563 2.06845L1.07291 2.08535L1.12031 2.09528L1.18189 2.10495L1.24109 2.11218L1.30279 2.11953L1.36424 2.12443L1.42582 2.12688L1.48978 2.12688L1.55136 2.12443L1.61544 2.11953L1.67928 2.10986L1.74324 2.0976L1.80958 2.08303L1.87354 2.0611L1.93989 2.03427L2.00849 2.00498L2.07483 1.96616L2.14356 1.92462L2.04874 2.52393L2.011 2.54341L1.97299 2.56302L1.93512 2.5776L1.89963 2.59217L1.86414 2.60443L1.82614 2.61655L1.78826 2.62636L1.748 2.63358L1.70536 2.64093L1.65808 2.64571L1.60829 2.65061L1.55374 2.65551L1.49229 2.65796L1.42833 2.65796L1.35483 2.66028L1.2767 2.66028L1.16057 2.65796L1.04218 2.64571L0.923791 2.62868L0.805276 2.59952L0.689269 2.56302L0.577902 2.51658L0.471301 2.45582L0.371849 2.38513L0.27942 2.30232L0.198905 2.20248L0.130304 2.09038L0.0733665 1.96125L0.033109 1.81742L0.00702312 1.65424L0 1.47391L0.0119142 1.27409L0.0213202 1.19631L0.0356172 1.10614L0.0544292 1.01107L0.080515 0.908647L0.116132 0.804031L0.158647 0.699158L0.213202 0.592091L0.27942 0.489668L0.355295 0.392276L0.447724 0.299657L0.551817 0.216842L0.670332 0.14383L0.807659 0.0828154L0.961666 0.0389568L1.13223 0.00980369L1.32398 0L1.41641 0.00245092L1.51348 0.0122546L1.61068 0.0292821L1.70775 0.0535333L1.80243 0.0901681L1.89486 0.134027L1.98014 0.192462L2.05828 0.260701L2.12938 0.343516L2.18858 0.441037L2.23586 0.553134L2.26909 0.68213L2.28803 0.828283L2.29041 0.993913L2.27386 1.17915L2.23824 1.38387L2.22645 1.53234L0.49977 1.53234L0.608754 1.05248L1.64617 1.05248L1.65093 0.991591L1.64855 0.933156L1.64379 0.879494L1.63438 0.830862L1.6177 0.784424L1.60115 0.743016L1.57744 0.70651L1.55374 0.672456L1.5254 0.643173L1.49454 0.618793L1.45905 0.596864L1.42356 0.577386L1.38569 0.562809L1.34769 0.553134L1.30743 0.545782L1.26479 0.54088L1.21977 0.543331L1.17725 0.550554L1.13687 0.560358L1.09661 0.574935L1.05635 0.594413L1.02086 0.616471L0.985369 0.643173L0.954517 0.672456L0.923791 0.70651L0.895322 0.743016L0.869236 0.781973L0.848042 0.82351L0.826596 0.867368L0.810042 0.916129L0.79587 0.96476L0.786339 1.01584L0.691526 1.52035" transform="translate(9.741945 6.375622)" id="Fill-22" fill="#FFFFFE" fill-rule="evenodd" stroke="none" />
        <path d="M2.41595 0.84531L2.38523 0.828283L2.3545 0.813706L2.32127 0.79655L2.28577 0.779522L2.25028 0.764946L2.2099 0.75024L2.16964 0.735664L2.127 0.721087L2.0821 0.708962L2.03696 0.699158L1.98729 0.689354L1.9375 0.68213L1.88307 0.677229L1.82852 0.672327L1.65332 0.672327L1.59174 0.677229L1.52778 0.684581L1.46156 0.696707L1.39509 0.716185L1.32887 0.743016L1.26253 0.777071L1.19606 0.82093L1.13235 0.874592L1.07065 0.937929L1.01145 1.01584L0.954643 1.10601L0.902596 1.21321L0.852682 1.33498L0.807784 1.47146L0.769909 1.62728L0.755738 1.715L0.746081 1.80027L0.741315 1.88553L0.743824 1.96848L0.750972 2.05116L0.767401 2.12921L0.788721 2.20222L0.814807 2.27549L0.850424 2.34115L0.89294 2.40461L0.942728 2.46047L0.99954 2.51168L1.06363 2.55554L1.13699 2.59217L1.21751 2.62378L1.30755 2.64571L1.33828 2.65293L1.37377 2.66028L1.41641 2.66518L1.46382 2.67009L1.51587 2.67486L1.62961 2.67486L1.68881 2.67009L1.75039 2.66273L1.81209 2.65061L1.87116 2.63358L1.93048 2.6141L1.98967 2.58727L2.0441 2.55554L2.09389 2.51658L2.1413 2.47272L2.0347 3.12325L2.02053 3.13537L2.00623 3.14995L1.98729 3.16711L1.96597 3.18168L1.93989 3.20116L1.90665 3.21819L1.8689 3.23522L1.82626 3.24979L1.77171 3.26695L1.71013 3.27908L1.63915 3.28888L1.55612 3.29855L1.46382 3.30346L1.35734 3.30591L1.23645 3.30346L1.10376 3.29623L0.9949 3.28398L0.885916 3.25973L0.777058 3.22309L0.667949 3.17433L0.563731 3.1159L0.464278 3.04276L0.369592 2.95762L0.281928 2.8601L0.20367 2.75045L0.137452 2.62868L0.0806405 2.4922L0.0380001 2.3436L0.00953138 2.18029L0 2.00743L0.00476569 1.81742L0.0308516 1.61516L0.0497889 1.51532L0.0711091 1.41779L0.0948121 1.32285L0.118515 1.23268L0.144601 1.14742L0.175327 1.06215L0.206179 0.981788L0.239162 0.906196L0.274905 0.830605L0.310397 0.760044L0.350529 0.691805L0.393169 0.628468L0.435935 0.567582L0.483216 0.509147L0.530622 0.455485L0.580285 0.404402L0.63484 0.355642L0.689269 0.309332L0.746081 0.267924L0.805401 0.228968L0.869362 0.192333L0.933322 0.160729L0.99954 0.131447L1.06827 0.104616L1.14176 0.0803645L1.21513 0.0608861L1.29087 0.0437296L1.37151 0.0291531L1.4519 0.0168985L1.53731 0.00722377L1.62259 0.00232193L1.71264 0L1.78839 0.00232193L1.86175 0.00722377L1.93274 0.0144475L2.00385 0.0242512L2.07019 0.0340549L2.13415 0.0486315L2.19573 0.0608861L2.25254 0.0754626L2.30709 0.0900391L2.3545 0.104616L2.3994 0.119321L2.4374 0.133898L2.47051 0.146152L2.49885 0.155827L2.5203 0.165631L2.53434 0.170533L2.41595 0.84531" transform="translate(13.6666155 5.7276754)" id="Fill-24" fill="#FFFFFE" fill-rule="evenodd" stroke="none" />
        <path d="M2.16964 3.18646L1.51361 3.18646L1.56089 2.91621L1.56089 2.8917L1.52314 2.94046L1.48276 2.98432L1.4425 3.02341L1.39986 3.05746L1.35722 3.08919L1.3147 3.11602L1.27206 3.13795L1.22691 3.15975L1.18202 3.17678L1.09197 3.20129L1.04456 3.20851L0.997158 3.21587L0.95226 3.22064L0.904854 3.22322L0.857448 3.22322L0.734418 3.21329L0.620543 3.18646L0.516325 3.14518L0.421638 3.08919L0.336357 3.0185L0.260608 2.93569L0.194265 2.84552L0.137453 2.74323L0.0900465 2.63345L0.0521718 2.51916L0.0260859 2.39971L0.00714853 2.27549L0 2.15114L0.00250826 2.02446L0.0141717 1.90024L0.0354918 1.77602L0.0711091 1.63231L0.113749 1.49584L0.163538 1.37161L0.222733 1.25461L0.284311 1.14497L0.355295 1.04758L0.428787 0.959858L0.506919 0.879494L0.589817 0.808804L0.677606 0.747918L0.767527 0.694385L0.857448 0.652848L0.95226 0.618793L1.04695 0.596864L1.14176 0.582158L1.23883 0.577386L1.30755 0.579708L1.37377 0.587189L1.43535 0.599315L1.49229 0.616342L1.54672 0.635821L1.59412 0.65775L1.64153 0.684581L1.68417 0.711283L1.72204 0.740565L1.75754 0.772298L1.78826 0.803902L1.81686 0.835635L1.84043 0.867368L1.86175 0.898972L1.88069 0.928254L1.89499 0.957408L2.06078 0L2.70503 0L2.16964 3.18646" transform="translate(19.744373 5.8494477)" id="Fill-26" fill="#FFFFFE" fill-rule="evenodd" stroke="none" />
        <path d="M0.333974 1.4325L0.400318 1.42773L0.461895 1.41315L0.518707 1.39599L0.573262 1.36916L0.622925 1.33988L0.670331 1.30337L0.715229 1.2621L0.755612 1.21811L0.791104 1.16948L0.824213 1.11581L0.855064 1.05983L0.88115 1.00127L0.904728 0.940509L0.923665 0.877172L0.94022 0.811384L0.952134 0.745596L0.964048 0.677357L0.971071 0.606668L0.971071 0.54088L0.968688 0.47277L0.961665 0.409304L0.952134 0.348418L0.935579 0.289983L0.916642 0.23387L0.892939 0.185238L0.864596 0.138929L0.833744 0.0999718L0.798127 0.0657879L0.757869 0.0366348L0.715229 0.0170275L0.670331 0.00490184L0.620542 0L0.556582 0.00490184L0.497387 0.0147055L0.442833 0.0341839L0.388403 0.0585641L0.340997 0.0901681L0.293717 0.129254L0.253459 0.170662L0.213076 0.216842L0.177585 0.270375L0.144476 0.326489L0.113624 0.384924L0.0875381 0.448261L0.0639605 0.514049L0.0450232 0.579837L0.0259604 0.650526L0.0119142 0.721216L0 0.828412L0.00476569 0.945282L0.0213202 1.06473L0.0520463 1.17915L0.0994523 1.27912L0.16103 1.35949L0.239162 1.41315L0.333974 1.4325" transform="translate(20.507133 7.0138936)" id="Fill-28" fill="#F1AD3D" fill-rule="evenodd" stroke="none" />
        <path d="M2.15773 2.10005L2.06304 2.6408L1.4662 2.6408L1.48276 2.54096L1.49467 2.45092L1.50408 2.38281L1.51361 2.34605L1.48037 2.38513L1.4425 2.42409L1.39748 2.4606L1.34781 2.49478L1.29087 2.52884L1.23168 2.55812L1.1701 2.58727L1.10614 2.61165L1.03742 2.63358L0.968814 2.65074L0.900088 2.66531L0.829104 2.67499L0.760378 2.67989L0.691652 2.68234L0.625309 2.67499L0.561348 2.66531L0.47845 2.64338L0.402701 2.61913L0.336357 2.58727L0.277162 2.55076L0.225116 2.51181L0.17771 2.46795L0.139835 2.42164L0.106601 2.37288L0.0781322 2.3218L0.0545546 2.26813L0.0354918 2.2146L0.0213202 2.16107L0.0119142 2.10495L0.00476569 2.04897L0 1.99531L0 1.94178L0.00714853 1.84671L0.0213202 1.75654L0.0450232 1.67127L0.0757494 1.58846L0.113749 1.51054L0.15639 1.43985L0.206053 1.37174L0.262991 1.31073L0.322186 1.25461L0.388529 1.20353L0.45713 1.15735L0.528239 1.11827L0.603988 1.08421L0.682246 1.05738L0.762761 1.03545L0.845533 1.02087L0.850425 1.02087L0.862213 1.01829L0.878893 1.01597L0.904854 1.01352L0.933197 1.00862L0.966431 1.0063L1.00192 1.00127L1.04218 0.996364L1.08244 0.991591L1.1227 0.98669L1.16534 0.984368L1.20334 0.979466L1.24121 0.977015L1.2767 0.974435L1.30994 0.972113L1.39045 0.972113L1.44726 0.974435L1.49931 0.977015L1.55148 0.977015L1.59412 0.979466L1.62723 0.981788L1.65093 0.984368L1.65796 0.984368L1.66285 0.967211L1.67702 0.923353L1.68881 0.87227L1.69358 0.825961L1.68404 0.772298L1.66285 0.723538L1.63438 0.679679L1.59651 0.643174L1.55148 0.61157L1.50169 0.58964L1.44488 0.574935L1.3833 0.570162L1.31696 0.567711L1.24585 0.56526L1.17248 0.56526L1.09661 0.567711L1.01848 0.572613L0.942728 0.579837L0.866979 0.587189L0.793487 0.596993L0.722503 0.606668L0.653777 0.618793L0.5922 0.631048L0.535388 0.643174L0.483216 0.657879L0.440575 0.672456L0.407466 0.689483L0.38138 0.70406L0.549559 0.116999L0.601605 0.09507L0.653777 0.0755916L0.710589 0.0584351L0.767401 0.0463095L0.824339 0.0340549L0.885916 0.0243802L0.947494 0.0147055L1.01145 0.00980369L1.0778 0.00490184L1.1464 0.00245092L1.21751 0L1.44488 0L1.52778 0.00245092L1.61068 0.00490184L1.67702 0.00980369L1.748 0.0219293L1.8215 0.0390858L1.89725 0.0608861L1.97074 0.0901681L2.04172 0.124352L2.11283 0.165631L2.17917 0.21194L2.23824 0.265603L2.29042 0.324038L2.33782 0.389826L2.37331 0.462966L2.39702 0.54088L2.41119 0.623695L2.41119 0.716314L2.39702 0.813706L2.15773 2.10005" transform="translate(4.1378717 6.3951006)" id="Fill-29" fill="#FFFFFE" fill-rule="evenodd" stroke="none" />
        <path d="M0.850299 0.0438586L0.847916 0.031733L0.838511 0.0194784L0.824214 0.0121256L0.800636 0.00722377L0.77455 0.00245092L0.743698 0L0.672715 0L0.634715 0.00245092L0.594457 0.00722377L0.556582 0.0121256L0.518708 0.0170274L0.483216 0.0218003L0.449981 0.029282L0.421638 0.0366348L0.395552 0.0438586L0.378872 0.0486314L0.359935 0.0559842L0.333975 0.0657879L0.307889 0.0779135L0.277037 0.09249L0.246311 0.109646L0.213202 0.126674L0.18235 0.146152L0.149241 0.170532L0.11839 0.194784L0.0900465 0.224195L0.0639606 0.253348L0.0402575 0.285081L0.023703 0.319136L0.00940597 0.358092L0.00238284 0.397178L0 0.479864L0.0117888 0.545781L0.0354918 0.594413L0.0663434 0.630919L0.101835 0.655428L0.142218 0.670004L0.179967 0.677357L0.217968 0.679679L0.288951 0.677357L0.352912 0.670004L0.41449 0.660201L0.468919 0.645495L0.516325 0.628597L0.561348 0.606667L0.601606 0.584738L0.637097 0.557907L0.667949 0.533527L0.696418 0.504374L0.719995 0.477542L0.738933 0.44826L0.755613 0.419107L0.769784 0.389825L0.781573 0.362994L0.788722 0.336163L0.807659 0.265602L0.824214 0.185109L0.838511 0.107196L0.850299 0.0438586" transform="translate(4.874547 7.8154745)" id="Fill-31" fill="#D82332" fill-rule="evenodd" stroke="none" />
        <path d="M0.644246 3.19858L0 3.19858L0.537645 0L1.65796 0L1.76456 1.89779L2.53911 0L3.70921 0L3.15965 3.19858L2.51541 3.19858L2.92275 0.808804L2.89679 0.808804L1.93274 3.19858L1.20559 3.19858L1.20083 3.09874L1.18427 2.83314L1.16295 2.45569L1.11555 1.58588L1.09423 1.2034L1.07767 0.925674L1.07291 0.808804L1.03742 0.808804L0.644246 3.19858" transform="translate(0.6679489 5.837322)" id="Fill-32" fill="#FFFFFE" fill-rule="evenodd" stroke="none" />
        <path d="M2.14594 2.10005L2.04887 2.6408L1.45441 2.6408L1.45905 2.54096L1.46144 2.45324L1.46144 2.38758L1.46608 2.3583L1.43535 2.39481L1.39986 2.43131L1.35722 2.4655L1.30981 2.49968L1.26015 2.53129L1.20321 2.56044L1.14402 2.58972L1.08482 2.6141L1.02086 2.63358L0.954517 2.65306L0.888174 2.66531L0.821956 2.67499L0.75323 2.67989L0.686886 2.68234L0.622926 2.67499L0.558965 2.66531L0.473684 2.64338L0.397935 2.61913L0.331592 2.58727L0.270014 2.55076L0.217842 2.51181L0.172944 2.46795L0.134944 2.42164L0.101835 2.37288L0.0734919 2.3218L0.0521717 2.26813L0.0332344 2.2146L0.0213202 2.16107L0.0119142 2.10495L0.00476569 2.04897L0 1.99531L0 1.94178L0.00476569 1.84671L0.0189373 1.75654L0.0402575 1.67127L0.0709837 1.58846L0.106601 1.51054L0.151624 1.43985L0.201288 1.37174L0.255842 1.31073L0.317294 1.25461L0.38138 1.20353L0.449981 1.15735L0.523473 1.11827L0.596965 1.08421L0.675097 1.05738L0.75323 1.03545L0.833745 1.02087L0.838385 1.02087L0.850299 1.01829L0.866854 1.01597L0.890557 1.01352L0.921408 1.00862L0.954517 1.0063L0.990009 1.00127L1.02788 0.996364L1.06827 0.991591L1.11078 0.98669L1.15116 0.984368L1.19142 0.979466L1.2293 0.977015L1.26241 0.974435L1.29564 0.972113L1.37854 0.972113L1.43535 0.974435L1.48978 0.977015L1.54195 0.977015L1.58697 0.979466L1.62485 0.981788L1.64617 0.984368L1.6557 0.984368L1.66034 0.967211L1.66749 0.923353L1.67451 0.87227L1.6794 0.825961L1.66975 0.772298L1.65093 0.723538L1.62008 0.679679L1.58459 0.643174L1.54195 0.61157L1.49216 0.58964L1.43999 0.574935L1.38318 0.570162L1.31696 0.567711L1.24585 0.56526L1.17248 0.56526L1.09661 0.567711L1.01848 0.572613L0.942728 0.579837L0.866854 0.587189L0.793487 0.596993L0.722503 0.606668L0.653777 0.618793L0.592199 0.631048L0.535262 0.643174L0.48309 0.657879L0.440575 0.672456L0.407341 0.689483L0.38138 0.70406L0.547176 0.116999L0.599223 0.09507L0.653777 0.0755916L0.708081 0.0584351L0.765144 0.0463095L0.824213 0.0340549L0.883534 0.0243802L0.944986 0.0147055L1.00907 0.00980369L1.07529 0.00490184L1.14402 0.00245092L1.21274 0L1.43535 0L1.51587 0.00245092L1.59638 0.00490184L1.66272 0.00980369L1.73383 0.0219293L1.8072 0.0390858L1.88307 0.0608861L1.95657 0.0901681L2.02981 0.124352L2.10092 0.165631L2.16726 0.21194L2.22645 0.265603L2.28088 0.324038L2.32829 0.389826L2.36391 0.462966L2.38999 0.54088L2.40642 0.623695L2.40642 0.716314L2.39463 0.813706L2.14594 2.10005" transform="translate(15.9049835 6.3951006)" id="Fill-34" fill="#FFFFFE" fill-rule="evenodd" stroke="none" />
        <path d="M0.0141716 0.560229L0.0283432 0.545653L0.125538 0.00490185L0.0970692 0L0 0.540751L0.0141716 0.526174L0.0141716 0.560229L0.0259604 0.557907L0.0283432 0.545653L0.0141716 0.560229" transform="translate(17.939682 8.492831)" id="Fill-35" fill="#FFFFFE" fill-rule="evenodd" stroke="none" />
        <path d="M0.00225743 0.064369L0.0166799 0.0815254L0.611137 0.0815254L0.611137 0.0474705L0.0166799 0.0474705L0.0307262 0.064369L0.00225743 0.064369L0 0.0815254L0.0166799 0.0815254L0.00225743 0.064369" transform="translate(17.342716 8.971536)" id="Fill-36" fill="#FFFFFE" fill-rule="evenodd" stroke="none" />
        <path d="M0.0817059 0.0193494L0.0603859 0L0.0508546 0.0389567L0.0484717 0.104616L0.0484717 0.192333L0.0437061 0.292175L0.0721746 0.292175L0.0769403 0.192333L0.0817059 0.104616L0.0793231 0.0389567L0.0793231 0.0193494L0.0581285 0L0.0817059 0.0193494" transform="translate(17.301268 8.743728)" id="Fill-37" fill="#FFFFFE" fill-rule="evenodd" stroke="none" />
        <path d="M0 0.331261L0 0.331261L0.0663434 0.340936L0.130304 0.348289L0.196647 0.345838L0.265373 0.340936L0.333974 0.331261L0.400318 0.319007L0.466661 0.299528L0.532879 0.280179L0.592199 0.25567L0.653651 0.226517L0.710589 0.197234L0.760378 0.16318L0.810041 0.129125L0.852682 0.0949409L0.890556 0.0558552L0.921408 0.0193494L0.89783 0L0.866979 0.0365058L0.833744 0.0706897L0.791104 0.104616L0.746206 0.138799L0.696417 0.168081L0.63948 0.197234L0.582668 0.226517L0.523473 0.250897L0.461895 0.270504L0.395552 0.289853L0.329209 0.302108L0.265373 0.311783L0.196647 0.316685L0.130304 0.319007L0.0663434 0.311783L0.00476569 0.302108L0 0.331261" transform="translate(16.461567 8.743728)" id="Fill-38" fill="#FFFFFE" fill-rule="evenodd" stroke="none" />
        <path d="M0 0L0 0L0.00238285 0.0535333L0.00714854 0.107196L0.0141717 0.165631L0.023703 0.221615L0.0354919 0.275148L0.0544292 0.331261L0.0758748 0.387246L0.106601 0.438457L0.13971 0.489539L0.177585 0.535978L0.224991 0.582158L0.279545 0.621244L0.341123 0.660201L0.409724 0.691805L0.487982 0.716185L0.573137 0.738114L0.577903 0.708961L0.492622 0.687032L0.419255 0.662523L0.355295 0.630919L0.293717 0.596864L0.243803 0.557907L0.201288 0.51637L0.163413 0.470061L0.130179 0.42388L0.104218 0.372669L0.0828979 0.321587L0.0639606 0.270375L0.0520464 0.216713L0.0426404 0.160858L0.0354919 0.107196L0.0307262 0.0535333L0.033109 0L0 0" transform="translate(15.888429 8.336876)" id="Fill-39" fill="#FFFFFE" fill-rule="evenodd" stroke="none" />
        <path d="M0.850299 0L0.850299 0L0.767401 0.0145765L0.686886 0.0365059L0.608754 0.063208L0.532879 0.0972629L0.459387 0.136349L0.388404 0.18498L0.324443 0.236321L0.262865 0.294756L0.206053 0.355513L0.156264 0.423881L0.108858 0.496892L0.0733665 0.577257L0.0426404 0.660201L0.0213202 0.74779L0.00714853 0.840409L0 0.935479L0.033109 0.935479L0.0354918 0.840409L0.0497889 0.752691L0.0709837 0.669876L0.101835 0.587061L0.137327 0.511469L0.179967 0.443359L0.229631 0.37512L0.281803 0.314234L0.34338 0.260572L0.407341 0.209489L0.473684 0.165631L0.547051 0.126545L0.61816 0.0924901L0.696292 0.0656589L0.772041 0.0437296L0.850299 0.0291531L0.850299 0" transform="translate(15.888429 7.401397)" id="Fill-40" fill="#FFFFFE" fill-rule="evenodd" stroke="none" />
        <path d="M0.487982 0.0243157L0.461896 0.0243157L0.428661 0.0290886L0.395552 0.0316685L0.357678 0.0339904L0.31742 0.0387633L0.277037 0.0413432L0.234522 0.046245L0.194139 0.0510179L0.156265 0.0559197L0.120773 0.0608216L0.0876637 0.0632725L0.0568121 0.0681743L0.033109 0.0704963L0.0141717 0.0729472L0.00464028 0.0755271L0 0.0755271L0 0.10468L0.00464028 0.10468L0.0189374 0.102229L0.033109 0.0997783L0.0568121 0.0973274L0.0876637 0.0924256L0.120773 0.0901036L0.156265 0.0852018L0.194139 0.0802999L0.234522 0.0755271L0.277037 0.0704963L0.31742 0.0681743L0.357678 0.0632725L0.395552 0.0608216L0.428661 0.0583706L0.487982 0.0583706L0.487982 0.0243157" transform="translate(16.73873 7.32587)" id="Fill-41" fill="#FFFFFE" fill-rule="evenodd" stroke="none" />
        <path d="M0.319677 0.0681098L0.333974 0.0558552L0.324443 0.0558552L0.303123 0.0535333L0.265248 0.0510824L0.220225 0.0461805L0.113624 0.0461805L0.056812 0.0414077L0 0.0414077L0 0.0754626L0.113624 0.0754626L0.168053 0.0803644L0.265248 0.0803644L0.303123 0.0826864L0.324443 0.0852663L0.333974 0.0852663L0.348021 0.0730117L0.333974 0.0852663L0.345763 0.0875882L0.348021 0.0730117L0.319677 0.0681098" transform="translate(17.22671 7.3087783)" id="Fill-42" fill="#FFFFFE" fill-rule="evenodd" stroke="none" />
        <path d="M0.0591945 0L0.0568116 0L0.0544288 0.0463095L0.0474057 0.094941L0.0402572 0.1388L0.0354916 0.155827L0.0638347 0.160729L0.0686004 0.143572L0.0757488 0.0998429L0.0828973 0.0463095L0.0899204 0L0.0591945 0" transform="translate(17.510897 7.221061)" id="Fill-43" fill="#FFFFFE" fill-rule="evenodd" stroke="none" />
        <path d="M0 0.031733L0 0.0341839L0.0545545 0.0366348L0.104218 0.0512114L0.151624 0.0731407L0.191881 0.102423L0.22499 0.136478L0.253584 0.177885L0.272522 0.221744L0.281928 0.272955L0.310396 0.272955L0.300865 0.216971L0.281928 0.163309L0.248819 0.116999L0.210944 0.0780426L0.165795 0.0439876L0.113749 0.0219293L0.0593202 0.00735277L0 0L0 0.031733" transform="translate(17.288162 6.9481053)" id="Fill-44" fill="#FFFFFE" fill-rule="evenodd" stroke="none" />
        <path d="M0 0.153505L0.0235776 0.168082L0.0472807 0.155827L0.0781323 0.1388L0.11839 0.124223L0.170436 0.109647L0.227248 0.097392L0.288826 0.0852663L0.357552 0.0730117L0.426279 0.063337L0.499645 0.0535333L0.57552 0.0463096L0.651269 0.0389568L0.729402 0.0340549L0.949752 0.0340549L1.01597 0.0365059L1.01597 0.00722377L0.949752 0.00477285L0.878643 0L0.805277 0L0.729402 0.00477285L0.651269 0.0096747L0.57552 0.0170275L0.499645 0.0243802L0.426279 0.0340549L0.352787 0.0438586L0.28406 0.0559843L0.222608 0.0682389L0.16567 0.0803645L0.113624 0.094941L0.0686009 0.109647L0.0329836 0.126674L0.00464028 0.143702L0.0283433 0.158278L0 0.153505" transform="translate(16.272192 6.9433327)" id="Fill-45" fill="#FFFFFE" fill-rule="evenodd" stroke="none" />
        <path d="M0.175202 0L0.165671 0.0121256L0 0.599315L0.0283434 0.604088L0.194139 0.0170275L0.184608 0.0291531L0.175202 0L0.168054 0.00232193L0.165671 0.0121256L0.175202 0" transform="translate(16.272192 6.497523)" id="Fill-46" fill="#FFFFFE" fill-rule="evenodd" stroke="none" />
        <path d="M1.05397 0.00735277L1.05397 0.00735277L0.973455 0.00245092L0.89294 0L0.670332 0L0.601606 0.00490185L0.53288 0.00735277L0.466662 0.0122546L0.402576 0.0170275L0.338615 0.0268312L0.279545 0.0365059L0.220225 0.0487605L0.163413 0.0610151L0.106601 0.0779136L0.0520464 0.097392L0 0.11945L0.00940597 0.148603L0.0615778 0.126674L0.116007 0.107196L0.168179 0.0901682L0.224991 0.0779136L0.284311 0.065788L0.343381 0.0561133L0.402576 0.0463096L0.466662 0.0414077L0.53288 0.0365059L0.601606 0.034184L0.89294 0.034184L0.973455 0.0365059L1.05397 0.0365059L1.05397 0.00735277" transform="translate(16.447395 6.3780727)" id="Fill-47" fill="#FFFFFE" fill-rule="evenodd" stroke="none" />
        <path d="M0.812425 0.825832L0.812425 0.825832L0.824339 0.725989L0.824339 0.63337L0.807784 0.548104L0.781699 0.467739L0.743824 0.392277L0.696292 0.324038L0.63948 0.263152L0.580285 0.209489L0.511685 0.16318L0.440575 0.119321L0.364826 0.0852663L0.291334 0.0559842L0.213202 0.0340549L0.139835 0.0170275L0.0663434 0.00490185L0 0L0 0.0291531L0.0663434 0.0340549L0.13507 0.0461805L0.208562 0.063337L0.281803 0.0852663L0.355295 0.114419L0.426404 0.148603L0.497388 0.18756L0.561348 0.23387L0.620668 0.287532L0.672715 0.343516L0.720121 0.406724L0.75323 0.477543L0.77919 0.553006L0.79587 0.63337L0.79587 0.725989L0.783956 0.821059L0.812425 0.825832" transform="translate(17.501364 6.3854256)" id="Fill-48" fill="#FFFFFE" fill-rule="evenodd" stroke="none" />
        <path d="M0.0284687 1.29125L0.0284687 1.29125L0.277037 0.00477285L0.248568 0L0 1.28635L0.0284687 1.29125" transform="translate(18.036753 7.206485)" id="Fill-49" fill="#FFFFFE" fill-rule="evenodd" stroke="none" />
        <path d="M0.836002 0.0463095L0.831362 0.031733L0.821956 0.0194784L0.805276 0.0122546L0.781573 0.00490184L0.755487 0.00245092L0.724761 0L0.689144 0L0.653652 0.00245092L0.615777 0.00735277L0.577777 0.0122546L0.540028 0.0170275L0.504411 0.0219293L0.468919 0.0292821L0.438067 0.0341839L0.407341 0.0414077L0.383638 0.0463095L0.367084 0.0487604L0.348146 0.0561132L0.324443 0.063337L0.298357 0.0730117L0.267631 0.0877172L0.239162 0.102294L0.206053 0.11945L0.14435 0.163309L0.113624 0.19014L0.0875382 0.216842L0.0614523 0.248575L0.0402575 0.282501L0.0235776 0.319265L0.00940597 0.358093L0.00238284 0.399629L0 0.482316L0.0117888 0.548233L0.0307262 0.596864L0.0591949 0.63337L0.0946867 0.657879L0.134944 0.672456L0.175202 0.679808L0.215459 0.68213L0.286568 0.679808L0.352786 0.672456L0.41449 0.660201L0.468919 0.643174L0.521091 0.623695L0.566114 0.601766L0.608629 0.577386L0.646504 0.548233L0.679738 0.521272L0.708081 0.489668L0.734167 0.460386L0.755487 0.428782L0.772042 0.399629L0.783956 0.370347L0.793362 0.341065L0.800511 0.314363L0.810042 0.245995L0.821956 0.175434L0.831362 0.107196L0.836002 0.0463095" transform="translate(16.641659 7.813023)" id="Fill-50" fill="#F1AD3D" fill-rule="evenodd" stroke="none" />
        <path d="M0 0.328939L0.00476569 0.272826L0.023703 0.207038L0.056812 0.148603L0.097195 0.0975209L0.146858 0.0559842L0.20367 0.0268311L0.265248 0.00722377L0.331592 0L0.397935 0.00722377L0.459513 0.0268311L0.516325 0.0559842L0.566114 0.0975209L0.606371 0.148603L0.639606 0.207038L0.658418 0.272826L0.663183 0.328939L0.5922 0.328939L0.589691 0.285081L0.57552 0.231419L0.551942 0.182787L0.52109 0.14125L0.483216 0.107196L0.438067 0.0828153L0.386021 0.0657879L0.331592 0.060757L0.277162 0.0657879L0.224991 0.0828153L0.180093 0.107196L0.142093 0.14125L0.111367 0.182787L0.0875382 0.231419L0.0733665 0.285081L0.0687262 0.328939L0 0.328939" transform="translate(22.356974 8.373381)" id="Fill-51" fill="#FFFFFE" fill-rule="evenodd" stroke="none" />
        <path d="M0 0.146152L0 0L0.130304 0L0.158773 0.00232193L0.184859 0.00722378L0.203796 0.0145766L0.220351 0.0242513L0.232265 0.0389568L0.241671 0.0535333L0.246437 0.0705608L0.248819 0.0875883L0.246437 0.109518L0.241671 0.126545L0.234648 0.141122L0.229757 0.146152L0.130304 0.146152L0.139835 0.143702L0.156515 0.141122L0.170687 0.136349L0.182476 0.131447L0.192007 0.124223L0.196773 0.11687L0.201413 0.104616L0.201413 0.0875883L0.19903 0.0754627L0.194265 0.065788L0.187242 0.0607571L0.180093 0.0558553L0.168179 0.0535333L0.156515 0.0510824L0.0593203 0.0510824L0.0593203 0.146152L0 0.146152" transform="translate(22.57005 8.556169)" id="Fill-52" fill="#FFFFFE" fill-rule="evenodd" stroke="none" />
        <path d="M0.00238285 0L0 0.0145765L0.00714854 0.0852662L0.0260859 0.150925L0.0591949 0.209489L0.0995779 0.25825L0.149241 0.299657L0.206054 0.331261L0.267631 0.35074L0.333975 0.358092L0.400318 0.35074L0.461896 0.331261L0.518708 0.299657L0.568497 0.25825L0.608755 0.209489L0.641989 0.150925L0.660801 0.0852662L0.66795 0.0145765L0.665567 0L0.594583 0L0.596841 0.0145765L0.592075 0.0730116L0.577903 0.126674L0.554325 0.172854L0.523474 0.214262L0.485599 0.248446L0.44045 0.275148L0.388404 0.292304L0.333975 0.297077L0.279546 0.292304L0.227374 0.275148L0.182476 0.248446L0.144476 0.214262L0.11375 0.172854L0.0899211 0.126674L0.0757495 0.0730116L0.0711092 0.0145765L0.0711092 0L0.00238285 0" transform="translate(22.354591 8.70232)" id="Fill-53" fill="#FFFFFE" fill-rule="evenodd" stroke="none" />
        <path d="M0 0L0 0.148603L0.0593201 0.148603L0.0593201 0.0268312L0.118515 0.0268312L0.189624 0.148603L0.236904 0.148603L0.165921 0.0268312L0.182475 0.0268312L0.19903 0.0218003L0.213327 0.0168985L0.22499 0.00722378L0.229756 0L0.130304 0L0.118515 0.00232193L0.0593201 0.00232193L0.0593201 0L0 0" transform="translate(22.57005 8.70232)" id="Fill-54" fill="#FFFFFE" fill-rule="evenodd" stroke="none" />
        <path d="M0 2.6359L0.667949 2.6359L0.907362 1.24971L0.916643 1.19618L0.93094 1.14252L0.945112 1.08898L0.964049 1.03545L0.987752 0.981788L1.01622 0.930705L1.04695 0.881945L1.08495 0.835635L1.12759 0.794228L1.17474 0.755271L1.2293 0.718636L1.29088 0.689483L1.3596 0.665103L1.43548 0.645624L1.51837 0.630919L1.61068 0.626146L1.66987 0.626146L1.77647 0L1.71013 0.00490184L1.64617 0.0122546L1.58698 0.0243802L1.53004 0.0414077L1.47799 0.0608861L1.42833 0.0852663L1.38092 0.112097L1.33602 0.141379L1.29338 0.175434L1.253 0.209489L1.17725 0.287532L1.14176 0.328939L1.10627 0.375249L1.07065 0.418979L1.03754 0.467739L1.10852 0.0268311L0.442958 0.0268311L0 2.6359" transform="translate(18.228508 6.400002)" id="Fill-56" fill="#FFFFFE" fill-rule="evenodd" stroke="none" />
        <path d="M0 2.6359L0.679738 2.6359L0.907111 1.24971L0.916517 1.19618L0.940345 1.09389L0.956775 1.04512L0.975837 0.996364L0.999415 0.950184L1.02788 0.906196L1.06099 0.864917L1.09899 0.828283L1.14163 0.791906L1.19368 0.762495L1.25049 0.735793L1.31696 0.713863L1.3902 0.694385L1.47084 0.68213L1.56315 0.674778L1.57029 0.674778L1.57983 0.677228L1.59161 0.679679L1.60353 0.679679L1.61532 0.68213L1.62485 0.684581L1.63187 0.687032L1.63425 0.687032L1.64379 0.648075L1.65319 0.604217L1.66511 0.550554L1.68166 0.487217L1.69822 0.418979L1.74086 0.28263L1.75979 0.23632L1.7835 0.190011L1.8072 0.14383L1.83078 0.102294L1.85222 0.0657879L1.86878 0.0366348L1.88069 0.0194784L1.88533 0.0122546L1.88295 0.0122546L1.87342 0.00980369L1.86163 0.00735277L1.84507 0.00490184L1.82852 0.00490184L1.80946 0.00245092L1.7929 0L1.77647 0L1.70298 0.00490184L1.63664 0.0122546L1.57506 0.0243802L1.51825 0.0390858L1.46369 0.0584351L1.41403 0.0828154L1.36901 0.107196L1.32637 0.136478L1.28598 0.168082L1.24823 0.204587L1.21262 0.241222L1.17712 0.28263L1.14163 0.324038L1.1084 0.370347L1.07291 0.418979L1.03741 0.467739L1.1227 0.0268311L0.442958 0.0268311L0 2.6359" transform="translate(11.956611 6.400002)" id="Fill-58" fill="#FFFFFE" fill-rule="evenodd" stroke="none" />
        <path d="M0 0.270504L0 0.260571L0.0189374 0.197234L0.0520464 0.141379L0.0924293 0.0926189L0.142093 0.0535332L0.198905 0.0242512L0.260483 0.00735276L0.326826 0L0.39317 0.00735276L0.454747 0.0242512L0.511559 0.0535332L0.561348 0.0926189L0.601606 0.141379L0.63484 0.197234L0.653652 0.260571L0.653652 0.270504L0.584926 0.270504L0.570754 0.219293L0.547177 0.172983L0.516325 0.131447L0.47845 0.0975208L0.433302 0.0706896L0.381255 0.0535332L0.326826 0.0487604L0.272397 0.0535332L0.220225 0.0706896L0.175327 0.0975208L0.137327 0.131447L0.106601 0.172983L0.0827725 0.219293L0.0686009 0.270504L0 0.270504" transform="translate(22.361738 11.328548)" id="Fill-60" fill="#F1AD3D" fill-rule="evenodd" stroke="none" />
        <path d="M0 0.107196L0 0.0218003L0.158773 0.0218003L0.184859 0.0267022L0.203796 0.031604L0.220351 0.0412787L0.232265 0.0535333L0.241671 0.0681098L0.246437 0.0852663L0.248819 0.107196L0.201413 0.107196L0.201413 0.094941L0.19903 0.0826864L0.194265 0.0730117L0.187242 0.0681098L0.180093 0.063337L0.168179 0.0607571L0.156515 0.0584351L0.0593203 0.0584351L0.0593203 0.107196L0 0.107196" transform="translate(22.57005 11.491858)" id="Fill-61" fill="#F1AD3D" fill-rule="evenodd" stroke="none" />
        <path d="M0.0248316 0.0912646L0.0319801 0.0377313L0.10058 0.0377313L0.10058 0.0400532L0.0959402 0.0912646L0.0248316 0.0912646" transform="translate(22.329758 11.561321)" id="Fill-62" fill="#F1AD3D" fill-rule="evenodd" stroke="none" />
        <path d="M0 0.0912646L0 0.0377313L0.0593203 0.0377313L0.0593203 0.0863627L0.118515 0.0863627L0.139835 0.0814609L0.156515 0.07901L0.170687 0.0742371L0.182476 0.0693353L0.192007 0.0619825L0.196773 0.0546298L0.201413 0.0425041L0.201413 0.0377313L0.248819 0.0377313L0.246437 0.0546298L0.241671 0.0693353L0.234648 0.0814609L0.224991 0.0912646L0 0.0912646" transform="translate(22.57005 11.561321)" id="Fill-63" fill="#F1AD3D" fill-rule="evenodd" stroke="none" />
        <path d="M0.0295345 0.0912646L0.0247689 0.0400532L0.0247689 0.0377313L0.0934946 0.0377313L0.100643 0.0912646L0.0295345 0.0912646" transform="translate(22.921896 11.561321)" id="Fill-64" fill="#F1AD3D" fill-rule="evenodd" stroke="none" />
        <path d="M0 0L0 0.00722376L0.00714854 0.0779134L0.0260859 0.143701L0.0591949 0.202136L0.0995779 0.253348L0.149241 0.294755L0.206054 0.323908L0.267631 0.343516L0.333975 0.350739L0.400318 0.343516L0.461896 0.323908L0.518708 0.294755L0.568497 0.253348L0.608755 0.202136L0.641989 0.143701L0.660801 0.0779134L0.66795 0.00722376L0.66795 0L0.596841 0L0.596841 0.00722376L0.592075 0.0656588L0.577903 0.119321L0.554325 0.165631L0.523474 0.207038L0.485599 0.241222L0.44045 0.267924L0.388404 0.284952L0.333975 0.289853L0.279546 0.284952L0.227374 0.267924L0.182476 0.241222L0.144476 0.207038L0.11375 0.165631L0.0899211 0.119321L0.0757495 0.0656588L0.0711092 0.00722376L0.0711092 0L0 0" transform="translate(22.354591 11.652586)" id="Fill-65" fill="#F1AD3D" fill-rule="evenodd" stroke="none" />
        <path d="M0 0L0 0.141251L0.0593201 0.141251L0.0593201 0.0194784L0.118515 0.0194784L0.189624 0.141251L0.236904 0.141251L0.165921 0.0194784L0.182475 0.0194784L0.19903 0.0145765L0.213327 0.0096747L0.22499 0L0 0" transform="translate(22.57005 11.652586)" id="Fill-66" fill="#F1AD3D" fill-rule="evenodd" stroke="none" />
      </g>
    </g>
    <g id="dc-copy" transform="translate(142.65575 0)">
      <path d="M39.3624 24.5882C39.3624 25.3529 38.7499 26 38.0261 26L1.3362 26C0.612427 26 0 25.3529 0 24.5882L0 1.41176C0 0.647059 0.612427 0 1.3362 0L38.0261 0C38.7499 0 39.3624 0.647059 39.3624 1.41176L39.3624 24.5882Z" transform="matrix(1 0 0 1 2.1918437E-13 2.213614E-13)" id="Path" fill="#FCFCFC" fill-rule="evenodd" stroke="none" />
      <path d="M0 11.1176L27.2252 11.1176C27.9489 11.1176 28.5614 10.4706 28.5614 9.70588L28.5614 0C25.889 1.70588 16.0901 7.76471 0 11.1176Z" transform="translate(10.856661 14.882353)" id="Path" fill="#F58220" fill-rule="evenodd" stroke="none" />
      <g id="Group" transform="translate(7.9615517 10.941176)">
        <path d="M1.94863 0C0.890803 0 0 0.882353 0 2C0 3.17647 0.835128 4.05882 1.94863 4.05882C3.06214 4.05882 3.89726 3.17647 3.89726 2.05882C3.89726 0.941176 3.00646 0 1.94863 0Z" transform="translate(10.299909 0)" id="Path" fill="url(#gradient_1)" fill-rule="evenodd" stroke="none" />
        <path d="M1.05783 0L0 0L0 3.88235L1.05783 3.88235C1.61458 3.88235 2.00431 3.76471 2.39403 3.41177C2.83943 3.05882 3.06213 2.47059 3.06213 1.94118C3.06213 0.764706 2.22701 0 1.05783 0ZM1.94863 2.88235C1.72593 3.11765 1.44755 3.17647 0.946478 3.17647L0.779453 3.17647L0.779453 0.588235L0.946478 0.588235C1.39188 0.588235 1.67026 0.647059 1.94863 0.882353C2.17133 1.11765 2.33836 1.47059 2.33836 1.82353C2.33836 2.29412 2.17133 2.64706 1.94863 2.88235Z" transform="translate(0 0.11764706)" id="Shape" fill="#001722" stroke="none" />
        <path d="M0 0L0.723778 0L0.723778 3.88235L0 3.88235L0 0Z" transform="translate(3.396186 0.11764706)" id="Rectangle" fill="#001722" fill-rule="evenodd" stroke="none" />
        <path d="M1.44755 1.52941C1.00215 1.35294 0.890803 1.23529 0.890803 1.05882C0.890803 0.823529 1.1135 0.647059 1.44755 0.647059C1.67026 0.647059 1.83728 0.764706 2.00431 0.941176L2.39403 0.411765C2.05998 0.117647 1.72593 0 1.3362 0C0.668102 0 0.167026 0.470588 0.167026 1.11765C0.167026 1.64706 0.389726 1.94118 1.05783 2.17647C1.3362 2.29412 1.50323 2.35294 1.55891 2.41176C1.72593 2.52941 1.78161 2.64706 1.78161 2.82353C1.78161 3.11765 1.55891 3.35294 1.22485 3.35294C0.890803 3.35294 0.612427 3.17647 0.445401 2.82353L0 3.29412C0.334051 3.82353 0.723777 4.05882 1.28053 4.05882C2.00431 4.05882 2.56106 3.52941 2.56106 2.76471C2.50538 2.11765 2.28268 1.82353 1.44755 1.52941Z" transform="translate(4.3983393 0.05882353)" id="Path" fill="#001722" fill-rule="evenodd" stroke="none" />
        <path d="M0 2.05882C0 3.17647 0.835128 4.11765 1.94863 4.11765C2.28268 4.11765 2.50538 4.05882 2.83943 3.88235L2.83943 3C2.56106 3.29412 2.28268 3.41176 1.94863 3.41176C1.22485 3.41176 0.723777 2.88235 0.723777 2.05882C0.723777 1.29412 1.28053 0.705882 1.94863 0.705882C2.28268 0.705882 2.56106 0.823529 2.83943 1.11765L2.83943 0.235294C2.50538 0.0588235 2.28268 0 1.94863 0C0.890803 0 0 0.941176 0 2.05882Z" transform="translate(7.1264234 0)" id="Path" fill="#001722" fill-rule="evenodd" stroke="none" />
        <path d="M1.78161 2.58824L0.779453 0L0 0L1.55891 3.94118L1.94863 3.94118L3.56321 0L2.78376 0L1.78161 2.58824Z" transform="translate(14.030147 0.11764706)" id="Path" fill="#001722" fill-rule="evenodd" stroke="none" />
        <path d="M0 3.88235L2.00431 3.88235L2.00431 3.23529L0.723777 3.23529L0.723777 2.17647L1.94863 2.17647L1.94863 1.52941L0.723777 1.52941L0.723777 0.647059L2.00431 0.647059L2.00431 0L0 0L0 3.88235Z" transform="translate(17.927408 0.11764706)" id="Path" fill="#001722" fill-rule="evenodd" stroke="none" />
        <path d="M2.33836 1.17647C2.33836 0.470588 1.83728 0 1.05783 0L0 0L0 3.88235L0.723778 3.88235L0.723778 2.29412L0.835128 2.29412L1.83728 3.88235L2.72808 3.88235L1.55891 2.23529C2.05998 2.17647 2.33836 1.76471 2.33836 1.17647ZM0.890803 1.82353L0.668102 1.82353L0.668102 0.647059L0.890803 0.647059C1.3362 0.647059 1.55891 0.823529 1.55891 1.23529C1.61458 1.58824 1.39188 1.82353 0.890803 1.82353Z" transform="translate(20.432793 0.05882353)" id="Shape" fill="#001722" stroke="none" />
        <path d="M0.281729 0.147059C0.281729 0.0735294 0.211297 0 0.140865 0L0 0L0 0.441176L0.0704324 0.441176L0.0704324 0.294118L0.211297 0.441176L0.352162 0.441176L0.211297 0.294118C0.281729 0.220588 0.281729 0.147059 0.281729 0.147059ZM0.140865 0.147059L0.140865 0.147059L0.140865 0L0.140865 0C0.211297 0 0.211297 0 0.211297 0.0735294C0.211297 0.147059 0.211297 0.147059 0.140865 0.147059Z" transform="translate(23.049526 0.29411766)" id="Shape" fill="#231F20" stroke="none" />
        <path d="M0.352162 0C0.140865 0 0 0.147059 0 0.367647C0 0.588235 0.140865 0.735294 0.352162 0.735294C0.563459 0.735294 0.704324 0.588235 0.704324 0.367647C0.704324 0.147059 0.563459 0 0.352162 0ZM0.352162 0.661765C0.211297 0.661765 0.0704324 0.514706 0.0704324 0.367647C0.0704324 0.220588 0.211297 0.0735294 0.352162 0.0735294C0.493027 0.0735294 0.633891 0.220588 0.633891 0.367647C0.633891 0.514706 0.563459 0.661765 0.352162 0.661765Z" transform="translate(22.8825 0.1764706)" id="Shape" fill="#231F20" stroke="none" />
      </g>
    </g>
    <g id="ae-copy" transform="translate(189.58197 0)">
      <path d="M39.418 24.5882C39.418 25.3529 38.8047 26 38.0799 26L1.33809 26C0.613293 26 0 25.3529 0 24.5882L0 1.41176C0 0.647059 0.613293 0 1.33809 0L38.0799 0C38.8047 0 39.418 0.647059 39.418 1.41176L39.418 24.5882Z" transform="matrix(1 0 0 1 2.7014694E-13 2.213614E-13)" id="Path" fill="#FCFCFC" fill-rule="evenodd" stroke="none" />
      <g id="Group" transform="translate(4.237299 6.8823533)">
        <path d="M8.02857 5.52941L8.02857 5.11765L7.8613 5.52941L6.24444 5.52941L6.02142 5.05882L6.02142 5.52941L2.95496 5.52941L2.62043 4.64706L2.00714 4.64706L1.61686 5.52941L0 5.52941L0 2.82353L1.17083 0.0588235L3.40099 0.0588235L3.73551 0.823529L3.73551 0.0588235L6.46746 0.0588235L7.08075 1.35294L7.63829 0L16.1686 0C16.1686 0 16.6147 0 16.8934 0.235294L16.8934 0L19.0678 0L19.0678 0.294118C19.0678 0.294118 19.4581 0 20.0157 0C20.5732 0 23.8069 0 23.8069 0L24.1415 0.823529L24.1415 0L26.5946 0L27.0407 0.823529L27.0407 0L29.3823 0L29.3823 5.47059L26.9849 5.47059L26.4274 4.52941L26.4274 5.47059L23.4167 5.47059L22.9706 4.47059L22.4131 4.47059L22.0228 5.47059L20.2387 5.47059C20.2387 5.47059 19.5696 5.47059 19.0678 5.05882C19.0678 5.23529 19.0678 5.47059 19.0678 5.47059L15.4996 5.47059C15.4996 5.47059 15.4996 4.35294 15.4996 4.17647C15.4996 4 15.3881 4 15.3881 4L15.2766 4L15.2766 5.47059L8.02857 5.47059L8.02857 5.52941Z" id="Path" fill="#FFFFFF" fill-rule="evenodd" stroke="none" />
        <path d="M0 0L4.73908 0L5.40813 0.823529L6.07718 0L9.70118 0C9.70118 0 10.0357 0 10.3702 0.176471L10.3702 0C10.3702 0 13.2137 0 13.604 0C13.9942 0 14.3845 0.235294 14.3845 0.235294L14.3845 0L18.5103 0L18.5103 0.176471C18.5103 0.176471 18.7891 0 19.1794 0C19.5696 0 21.8555 0 21.8555 0L21.8555 0.176471C21.8555 0.176471 22.1901 0 22.5803 0C22.9149 0 24.699 0 24.699 0L24.699 5.17647C24.699 5.17647 24.4202 5.52941 23.8627 5.52941L21.075 5.52941L21.075 5.35294C21.075 5.35294 20.7962 5.52941 20.4059 5.52941C20.0157 5.52941 12.9907 5.52941 12.9907 5.52941C12.9907 5.52941 12.9907 4.35294 12.9907 4.17647C12.9907 4.05882 12.9349 4 12.8234 4L12.7119 4L12.7119 5.47059L10.3702 5.47059L10.3702 4C10.3702 4 10.0915 4.11765 9.70118 4.11765C9.25515 4.11765 8.86488 4.11765 8.86488 4.11765L8.86488 5.47059L6.02142 5.47059L5.35238 4.64706L4.68333 5.47059L0.0557539 5.47059L0.0557539 0L0 0Z" transform="translate(6.188687 6.7058825)" id="Path" fill="#FFFFFF" fill-rule="evenodd" stroke="none" />
        <path d="M0 0L2.95496 0L2.95496 0.82353L0.892063 0.82353L0.892063 1.52941L2.8992 1.52941L2.8992 2.29412L0.892063 2.29412L0.892063 3.05882L2.95496 3.05882L2.95496 3.88235L0 3.88235L0 0Z" transform="translate(21.074987 7.529412)" id="Path" fill="#0078A9" fill-rule="evenodd" stroke="none" />
        <path d="M1.95139 1.41176C3.06647 1.47059 3.17797 2.05882 3.17797 2.70588C3.17797 3.41176 2.62044 3.82353 2.00714 3.82353L0.0557539 3.82353L0.0557539 3L1.56111 3C1.83988 3 2.1744 3 2.1744 2.64706C2.1744 2.47059 2.11865 2.35294 1.83988 2.35294C1.72837 2.35294 1.28234 2.29412 1.22659 2.29412C0.223016 2.29412 0 1.76471 0 1.11765C0 0.411765 0.501785 0 1.05932 0L2.95496 0L2.95496 0.823529L1.56111 0.823529C1.22659 0.823529 0.892063 0.764706 0.892063 1.17647C0.892063 1.41176 1.05932 1.47059 1.28234 1.47059C1.39385 1.41176 1.83988 1.47059 1.95139 1.41176Z" transform="translate(27.821213 7.588236)" id="Path" fill="#0078A9" fill-rule="evenodd" stroke="none" />
        <path d="M1.89563 1.41176C3.01071 1.47059 3.12222 2.05882 3.12222 2.70588C3.12222 3.41176 2.56468 3.82353 1.95139 3.82353L0.055754 3.82353L0.055754 3L1.56111 3C1.83988 3 2.1744 3 2.1744 2.64706C2.1744 2.47059 2.11865 2.35294 1.83988 2.35294C1.72837 2.35294 1.28234 2.29412 1.22659 2.29412C0.223016 2.29412 0 1.76471 0 1.11765C0 0.411765 0.501786 0 1.05932 0L2.95496 0L2.95496 0.823529L1.56111 0.823529C1.22659 0.823529 0.892063 0.764706 0.892063 1.17647C0.892063 1.41176 1.05932 1.47059 1.28234 1.47059C1.33809 1.41176 1.83988 1.47059 1.89563 1.41176Z" transform="translate(24.420223 7.588236)" id="Path" fill="#0078A9" fill-rule="evenodd" stroke="none" />
        <path d="M8.80912 0L5.63115 0L4.57182 1.23529L3.56825 0L0 0L0 3.88235L3.45674 3.88235L4.51607 2.58824L5.57539 3.88235L7.30376 3.88235L7.30376 2.58824L8.53035 2.58824C8.97638 2.58824 9.86845 2.58824 9.86845 1.23529C9.9242 0.235294 9.25515 0 8.80912 0ZM3.01071 3.05882L0.947817 3.05882L0.947817 2.29412L2.95496 2.29412L2.95496 1.52941L0.947817 1.52941L0.947817 0.823529L3.12222 0.823529L4.01428 1.88235L3.01071 3.05882ZM6.46746 3.52941L5.18512 1.88235L6.46746 0.352941L6.46746 3.52941ZM8.53035 1.76471L7.41527 1.76471L7.41527 0.823529L8.53035 0.823529C8.92063 0.823529 9.03214 1.05882 9.03214 1.29412C9.03214 1.52941 8.86487 1.76471 8.53035 1.76471Z" transform="translate(6.80198 7.529412)" id="Shape" fill="#0078A9" stroke="none" />
        <path d="M2.7877 2.11765C3.28948 1.88235 3.40099 1.52941 3.40099 1.05882C3.40099 0.235294 2.73194 0 2.34167 0L0 0L0 3.88235L0.892063 3.88235L0.892063 2.52941L2.0629 2.52941C2.39742 2.52941 2.50893 2.88235 2.50893 3.17647L2.50893 3.88235L3.40099 3.88235L3.34524 3.05882C3.40099 2.47059 3.23373 2.17647 2.7877 2.11765ZM2.00714 1.70588L0.892063 1.70588L0.892063 0.823529L2.00714 0.823529C2.39742 0.823529 2.50893 1.05882 2.50893 1.29412C2.50893 1.52941 2.39742 1.70588 2.00714 1.70588Z" transform="translate(17.17221 7.529412)" id="Shape" fill="#0078A9" stroke="none" />
        <path d="M0 0L0.892063 0L0.892063 3.88235L0 3.88235L0 0Z" transform="translate(17.506735 0.8235294)" id="Rectangle" fill="#0078A9" fill-rule="evenodd" stroke="none" />
        <path d="M0 0L2.95496 0L2.95496 0.823529L0.892063 0.823529L0.892063 1.52941L2.8992 1.52941L2.8992 2.29412L0.892063 2.29412L0.892063 3.05882L2.95496 3.05882L2.95496 3.88235L0 3.88235L0 0Z" transform="translate(10.147216 0.8235294)" id="Path" fill="#0078A9" fill-rule="evenodd" stroke="none" />
        <path d="M2.7877 2.11765C3.28948 1.88235 3.40099 1.52941 3.40099 1.05882C3.40099 0.235294 2.73194 0 2.34167 0L0 0L0 3.88235L0.892063 3.88235L0.892063 2.52941L2.0629 2.52941C2.39742 2.52941 2.50893 2.88235 2.50893 3.17647L2.50893 3.88235L3.40099 3.88235L3.34524 3.05882C3.34524 2.47059 3.17797 2.17647 2.7877 2.11765ZM2.00714 1.70588L0.892063 1.70588L0.892063 0.823529L2.00714 0.823529C2.39742 0.823529 2.50893 1.05882 2.50893 1.29412C2.50893 1.52941 2.34166 1.70588 2.00714 1.70588Z" transform="translate(13.659714 0.8235294)" id="Shape" fill="#0078A9" stroke="none" />
        <path d="M7.97281 0L6.85773 2.58824L5.74266 0L4.34881 0L4.34881 3.76471L2.7877 0L1.61686 0L0 3.88235L0.947817 3.88235L1.28234 3L3.06647 3L3.40099 3.88235L5.24087 3.88235L5.24087 1L6.46746 3.88235L7.30377 3.88235L8.53035 1.05882L8.53035 3.88235L9.42241 3.88235L9.42241 0L7.97281 0ZM1.61686 2.17647L2.1744 0.823529L2.73194 2.17647L1.61686 2.17647Z" transform="translate(0.055753935 0.8235294)" id="Shape" fill="#0078A9" stroke="none" />
        <path d="M8.80912 0L8.80912 2.70588L7.30376 0L5.96567 0L5.96567 3.64706L4.40456 1.04492e-15L3.23373 1.04492e-15L2.00714 3C2.00714 3 1.50536 3 1.4496 3C1.22659 2.94118 0.892063 2.76471 0.892063 2.11765L0.892063 1.82353C0.892063 0.882353 1.33809 0.823529 1.95139 0.823529L2.50893 0.823529L2.50893 2.08983e-15L1.33809 2.08983e-15C0.947817 2.08983e-15 0.0557539 0.352941 0 1.94118C0 3 0.446031 3.88235 1.4496 3.88235L2.62043 3.88235L2.95496 3L4.73908 3L5.07361 3.88235L6.85773 3.88235L6.85773 1.05882L8.4746 3.88235L9.70118 3.88235L9.70118 2.08983e-15L8.80912 2.08983e-15L8.80912 0ZM3.28948 2.17647L3.84702 0.823529L4.40456 2.17647L3.28948 2.17647Z" transform="translate(18.956337 0.8235294)" id="Shape" fill="#0078A9" stroke="none" />
      </g>
    </g>
  </g>
</svg>