<svg xmlns="http://www.w3.org/2000/svg" xmlns:xlink="http://www.w3.org/1999/xlink" aria-hidden="true" role="img" class="iconify iconify--iconoir" width="100%" height="100%" preserveAspectRatio="xMidYMid meet" viewBox="0 0 24 24"><g fill="none" stroke="currentColor" stroke-linecap="round" stroke-width="1.5"><path stroke-linejoin="round" stroke-miterlimit="1.5" d="M8 19a2 2 0 1 0 0-4a2 2 0 0 0 0 4m10 0a2 2 0 1 0 0-4a2 2 0 0 0 0 4"></path><path d="M10.05 17H15V6.6a.6.6 0 0 0-.6-.6H1m4.65 11H3.6a.6.6 0 0 1-.6-.6v-4.9"></path><path stroke-linejoin="round" d="M2 9h4"></path><path d="M15 9h5.61a.6.6 0 0 1 .548.356l1.79 4.028a.6.6 0 0 1 .052.243V16.4a.6.6 0 0 1-.6.6h-1.9M15 17h1"></path></g></svg>