<?xml version="1.0" encoding="utf-8"?>
<!-- Generator: Adobe Illustrator 24.2.1, SVG Export Plug-In . SVG Version: 6.00 Build 0)  -->
<svg version="1.1" id="Layer_1" xmlns="http://www.w3.org/2000/svg" xmlns:xlink="http://www.w3.org/1999/xlink" x="0px" y="0px"
	 viewBox="0 0 512 512" style="enable-background:new 0 0 512 512;" xml:space="preserve">
<style type="text/css">
	.st0{fill:#478BCC;}
	.st1{fill:none;stroke:#478BCC;stroke-width:13.5715;stroke-linecap:round;stroke-linejoin:round;stroke-miterlimit:10;}
</style>
<g>
	<g>
		<path class="st0" d="M383.8,375.8c13.2,0,24-10.7,24-24V264c0-8.8-7.2-16-16-16h-18.2c-6.9,0-13,4.4-15.2,10.9l-12.3,37h-71.6h-11
			c-35.1,0-63.5,28.4-63.5,63.5v11.7v20.7h-39.9c-30.9,0-55.9,25-55.9,55.9c0,1,0,1.9,0.1,2.9c0,0.1,0,0.1,0,0.2
			c1.6,29.4,26,52.8,55.8,52.8c28.2,0,51.5-20.8,55.3-47.9h81c3.9,27.1,27.2,47.9,55.3,47.9c29.8,0,54.2-23.4,55.8-52.8
			c0-0.1,0-0.1,0-0.2c0-1,0.1-1.9,0.1-2.9c0-30.9-25-55.9-55.9-55.9h-8v-16H383.8z M373.6,264h18.2v32H363L373.6,264z M343.9,311.9
			h47.9v39.9c0,4.4-3.6,8-8,8h-39.9V311.9z M280,311.9h47.9v16H280V311.9z M280,343.9h47.9v16H280V343.9z M280,375.8h47.9v16H280
			V375.8z M216.1,367.8c0-28.1,20.9-51.4,47.9-55.3v79.2h-47.9V367.8z M160.1,487.7c-22,0-39.9-17.9-39.9-39.9
			c0-22,17.9-39.9,39.9-39.9s39.9,17.9,39.9,39.9C200.1,469.7,182.2,487.7,160.1,487.7z M296.5,439.7h-81
			c-1.8-12.4-7.7-23.6-16.2-32h113.5C304.2,416.2,298.3,427.3,296.5,439.7z M351.9,407.8c22,0,39.9,17.9,39.9,39.9
			c0,22-17.9,39.9-39.9,39.9c-22,0-39.9-17.9-39.9-39.9C311.9,425.7,329.8,407.8,351.9,407.8z"/>
	</g>
	<path class="st0" d="M160.1,423.8c-13.2,0-24,10.8-24,24c0,13.2,10.8,24,24,24c13.2,0,24-10.8,24-24
		C184.1,434.5,173.4,423.8,160.1,423.8z M160.1,455.7c-4.4,0-8-3.6-8-8c0-4.4,3.6-8,8-8s8,3.6,8,8
		C168.1,452.1,164.5,455.7,160.1,455.7z"/>
	<path class="st0" d="M351.9,423.8c-13.2,0-24,10.8-24,24c0,13.2,10.8,24,24,24c13.2,0,24-10.8,24-24
		C375.8,434.5,365.1,423.8,351.9,423.8z M351.9,455.7c-4.4,0-8-3.6-8-8c0-4.4,3.6-8,8-8c4.4,0,8,3.6,8,8
		C359.9,452.1,356.3,455.7,351.9,455.7z"/>
	<g>
		<path class="st0" d="M324.2,214.3c1.4,0,2.3,0.9,2.3,1.3l2.9,78.4c0,0.1,0,0.3-0.3,0.6c-0.2,0.2-0.8,0.7-2,0.7h-46.3
			c-1.1,0-1.8-0.5-2-0.7c-0.3-0.3-0.3-0.5-0.3-0.6l2.9-78.4c0-0.4,0.8-1.3,2.3-1.3H324.2 M324.2,200.7h-40.5
			c-8.5,0-15.5,6.4-15.8,14.4l-2.9,78.4c-0.3,8.4,6.9,15.4,15.8,15.4h46.3c9,0,16.1-7,15.8-15.4l-2.9-78.4
			C339.7,207.1,332.7,200.7,324.2,200.7L324.2,200.7z"/>
	</g>
	<g>
		<path class="st0" d="M314.2,119.9c1.4,0,2.3,0.9,2.3,1.3l2.9,78.4c0,0.1,0,0.3-0.3,0.6c-0.2,0.2-0.8,0.7-2,0.7h-26.3
			c-1.1,0-1.8-0.5-2-0.7c-0.3-0.3-0.3-0.5-0.3-0.6l2.9-78.4c0-0.4,0.8-1.3,2.3-1.3H314.2 M314.2,106.3h-20.5
			c-8.5,0-15.5,6.4-15.8,14.4l-2.9,78.4c-0.3,8.4,6.9,15.4,15.8,15.4h26.3c9,0,16.1-7,15.8-15.4l-2.9-78.4
			C329.7,112.6,322.7,106.3,314.2,106.3L314.2,106.3z"/>
	</g>
	<path class="st0" d="M324.2,24.9c1.4,0,2.3,0.9,2.3,1.3l2.9,78.4c0,0.1,0,0.3-0.3,0.6c-0.2,0.2-0.8,0.7-2,0.7H200.8
		c-1.1,0-1.8-0.5-2-0.7c-0.3-0.3-0.3-0.5-0.3-0.6l2.9-78.4c0-0.4,0.8-1.3,2.3-1.3H324.2 M324.2,11.4H203.7
		c-8.5,0-15.5,6.4-15.8,14.4l-2.9,78.4c-0.3,8.4,6.9,15.4,15.8,15.4h126.3c9,0,16.1-7,15.8-15.4L340,25.7
		C339.7,17.7,332.7,11.4,324.2,11.4L324.2,11.4z"/>
	<path class="st0" d="M332.9,66.1H199.3c-3.7,0-6.8-3-6.8-6.8s3-6.8,6.8-6.8h133.7c3.7,0,6.8,3,6.8,6.8S336.7,66.1,332.9,66.1z"/>
	<path class="st0" d="M348.9,24.1H177.5c-3.7,0-6.8-3-6.8-6.8s3-6.8,6.8-6.8h171.3c3.7,0,6.8,3,6.8,6.8S352.6,24.1,348.9,24.1z"/>
	<line class="st1" x1="177.5" y1="113.3" x2="348.9" y2="113.3"/>
</g>
</svg>
