<?xml version="1.0" encoding="utf-8"?>
<!-- Generator: Adobe Illustrator 24.2.1, SVG Export Plug-In . SVG Version: 6.00 Build 0)  -->
<svg version="1.1" id="Layer_1" xmlns="http://www.w3.org/2000/svg" xmlns:xlink="http://www.w3.org/1999/xlink" x="0px" y="0px"
	 viewBox="0 0 512 512" style="enable-background:new 0 0 512 512;" xml:space="preserve">
<style type="text/css">
	.st0{fill:#478BCC;}
	.st1{fill:none;stroke:#478BCC;stroke-width:13.5715;stroke-linecap:round;stroke-linejoin:round;stroke-miterlimit:10;}
</style>
<g>
	<path class="st0" d="M446.3,409.5c4.1,0,7.5-3.4,7.5-7.5v-10.8c0-9.6-7.9-17.5-17.5-17.5H382l-80.7-47.5l50.4-29.6
		c4.2,1.5,8.7,2.4,13.3,2.4c21.4,0,38.8-17.4,38.8-38.8s-17.4-38.8-38.8-38.8c-5.4,0-10.6,1.1-15.3,3.1l-48.4-28.5l81.1-47.7h44.3
		c13.1,0,23.7-10.6,23.7-23.7c0-10.3-6.6-19-15.7-22.3V51.2c10.6-2.7,18.5-12.3,18.5-23.8V16.6c0-9.2-7.5-16.6-16.6-16.6h-78.9
		c-4.1,0-7.5,3.4-7.5,7.5s3.4,7.5,7.5,7.5h78.9c0.9,0,1.6,0.7,1.6,1.6v10.8c0,5.3-4.3,9.6-9.6,9.6c-14.6,0-335.3,0-345.6,0
		c-5.3,0-9.6-4.3-9.6-9.6V16.6c0-0.9,0.7-1.6,1.6-1.6h252.5c4.1,0,7.5-3.4,7.5-7.5S331.9,0,327.8,0H75.3c-9.2,0-16.6,7.5-16.6,16.6
		v10.8c0,11.5,7.9,21.1,18.5,23.8v51.2c-9.1,3.3-15.7,12.1-15.7,22.3c0,13.1,10.6,23.7,23.7,23.7h44.5l81.1,47.7l-48.4,28.5
		c-4.7-2-9.9-3.1-15.3-3.1c-21.4,0-38.8,17.4-38.8,38.8s17.4,38.8,38.8,38.8c4.7,0,9.2-0.8,13.3-2.4l50.4,29.6l-80.7,47.5H75.7
		c-9.6,0-17.5,7.9-17.5,17.5v44.5c0,19.1,15.5,34.5,34.5,34.5h22c2.4,23.4,22.3,41.7,46.3,41.7s43.9-18.3,46.3-41.7h97.2
		c2.4,23.4,22.3,41.7,46.3,41.7s43.9-18.3,46.3-41.7h22c19.1,0,34.5-15.5,34.5-34.5V432c0-4.1-3.4-7.5-7.5-7.5s-7.5,3.4-7.5,7.5v3.7
		c0,10.8-8.8,19.5-19.5,19.5h-22.8c-4.6-20.8-23.2-36.4-45.4-36.4s-40.8,15.6-45.4,36.4h-99c-4.6-20.8-23.2-36.4-45.4-36.4
		s-40.8,15.6-45.4,36.4H92.8c-10.8,0-19.5-8.8-19.5-19.5v-44.5c0-1.4,1.1-2.5,2.5-2.5h360.5c1.4,0,2.5,1.1,2.5,2.5V402
		C438.8,406.2,442.1,409.5,446.3,409.5L446.3,409.5z M350.9,433.9c17.4,0,31.6,14.2,31.6,31.6S368.3,497,350.9,497
		s-31.6-14.2-31.6-31.6S333.5,433.9,350.9,433.9L350.9,433.9z M161.1,433.9c17.4,0,31.6,14.2,31.6,31.6S178.5,497,161.1,497
		s-31.6-14.2-31.6-31.6S143.7,433.9,161.1,433.9L161.1,433.9z M341.3,260.2c0-0.1,0-0.2,0-0.2c0.2-12.9,10.8-23.4,23.7-23.4
		c13.1,0,23.8,10.7,23.8,23.8s-10.7,23.8-23.8,23.8c-13.1,0-23.8-10.7-23.8-23.8C341.3,260.3,341.3,260.2,341.3,260.2z M286.5,317.6
		l-15.7-9.2l58-34.1c2,5,4.9,9.6,8.7,13.3L286.5,317.6z M256.1,299.7l-65.3-38.4l65.3-38.4l65.3,38.4L256.1,299.7z M286.5,187.5
		l-15.7-9.2l50.6-29.8h31.3L286.5,187.5z M256.1,169.6l-35.9-21.1h71.7L256.1,169.6z M85.2,133.5c-4.8,0-8.7-3.9-8.7-8.7
		s3.9-8.7,8.7-8.7h34.9c4.1,0,7.5-3.4,7.5-7.5s-3.4-7.5-7.5-7.5h-28V52h327.6v49H150.2c-4.1,0-7.5,3.4-7.5,7.5s3.4,7.5,7.5,7.5
		h276.6c4.8,0,8.7,3.9,8.7,8.7c0,4.8-3.9,8.7-8.7,8.7H85.2z M159.3,148.5h31.3c7.6,4.4,140.5,82.7,145.7,85.7
		c-3.6,3.9-6.3,8.6-8.1,13.7L159.3,148.5z M225.6,204.9l15.7,9.2l-57.4,33.8c-1.7-5.1-4.5-9.8-8.1-13.7L225.6,204.9z M147.1,284.1
		c-13.1,0-23.8-10.7-23.8-23.8s10.7-23.8,23.8-23.8c13,0,23.6,10.5,23.7,23.4c0,0.1,0,0.2,0,0.3c0,0,0,0.1,0,0.1
		C170.9,273.4,160.2,284.1,147.1,284.1L147.1,284.1z M159.7,373.8l65.9-38.8l15.7,9.2l-50.2,29.5H159.7z M220.7,373.8l35.4-20.8
		l35.4,20.8H220.7z M321.1,373.8c-6.8-4-140.8-82.8-146.5-86.2c3.7-3.8,6.7-8.3,8.7-13.3l169.1,99.5H321.1z"/>
</g>
<path class="st0" d="M147.1,251.9c-4.6,0-8.4,3.8-8.4,8.4s3.8,8.4,8.4,8.4s8.4-3.8,8.4-8.4S151.7,251.9,147.1,251.9L147.1,251.9z"/>
<path class="st0" d="M365,268.7c4.6,0,8.4-3.8,8.4-8.4s-3.8-8.4-8.4-8.4s-8.4,3.8-8.4,8.4C356.6,264.9,360.4,268.7,365,268.7z"/>
<ellipse class="st0" cx="161" cy="465.4" rx="12.2" ry="12.2"/>
<ellipse class="st0" cx="351.1" cy="465.5" rx="12.2" ry="12.2"/>
</svg>
