<?xml version="1.0" encoding="UTF-8"?>
<svg id="Layer_1" xmlns="http://www.w3.org/2000/svg" version="1.1" viewBox="0 0 300 300">
  <!-- Generator: Adobe Illustrator 29.8.0, SVG Export Plug-In . SVG Version: 2.1.1 Build 160)  -->
  <defs>
    <style>
      .st0 {
        fill: #039;
      }

      .st1 {
        fill: #f1f1f2;
      }
    </style>
  </defs>
  <rect class="st0" x="-4.4" y="-4.4" width="308.9" height="308.9"/>
  <path class="st1" d="M187,215.4c-10.4,6.7-21.9,10-34.6,9.7-13.8,0-25.4-3-34.6-9.2-9.3-6.2-16.2-15-20.9-26.3-.7-1.8-1.4-3.6-2-5.5h70.3v-22.9h-74.9c-.3-3.6-.5-7.3-.6-11.2,0-3.7.2-7.3.5-10.8h75v-22.9h-70.4c.6-1.9,1.3-3.8,2-5.6,4.6-11.4,11.5-20.2,20.7-26.6,9.2-6.4,20.8-9.5,34.8-9.4,6.1,0,12.1.8,18,2.5,5.9,1.7,11.4,4.2,16.4,7.4l15.1-23.7c-7.2-4.5-15-7.8-23.4-10-8.4-2.2-17.1-3.3-26.1-3.3-19.3,0-35.8,4.2-49.5,12.7-13.7,8.5-24.3,20.4-31.7,35.7-3,6.3-5.5,13-7.3,20.1h-25.9v22.9h22c-.3,3.5-.5,7.1-.6,10.8,0,3.8.2,7.5.5,11.2h-21.9v22.9h25.8c1.8,6.6,4.1,12.8,7,18.7,7.5,15.4,18.1,27.5,31.9,36.3,13.8,8.8,30.4,13.2,49.8,13.2s17.6-1.1,26-3.3c8.5-2.2,16.3-5.6,23.6-10l-15-23.4Z"/>
</svg>