<svg id="Layer_1" enable-background="new 0 0 512.001 512.001" viewBox="0 0 512.001 512.001" xmlns="http://www.w3.org/2000/svg"><g><path d="m511.943 261.118c0-147.077-115.456-261.557-255.938-261.117-68.38 0-132.667 26.628-181.02 74.98-48.352 48.352-74.98 112.639-74.98 181.02 0 .212.007.423.008.635v.021c.17 68.135 26.776 132.167 74.972 180.365 48.353 48.352 112.64 74.98 181.02 74.98s132.667-26.629 181.02-74.98c46.351-46.352 72.723-107.351 74.827-172.558.157-1.114.183-2.235.091-3.346zm-68.821 121.715h-82.236l-28.317-44.625 32.6-100.173 52.145-14.959 64.269 46.62c-2.429 40.895-15.709 79.722-38.461 113.137zm-297.645 0h-76.588c-23.865-35.05-37.31-76.052-38.74-119.151l65.985-47.865 50.037 21.149 32.744 100.614zm-85.233-239.926 16.292 50.064-44.448 32.242c3.954-29.196 13.514-57.056 28.156-82.306zm146.217 182.376-30.505-93.732 79.888-57.949 79.887 57.948-30.504 93.733zm231.384-124.375 17.058-52.416c13.956 25.736 22.746 54.011 25.84 83.533zm-4.057-84.476-25.381 77.99-52.145 14.959-85.472-62-.383-53.693 67.043-48.632c29.045 11.203 55.688 28.465 78.361 51.139 6.436 6.436 12.428 13.197 17.977 20.237zm-132.815-81.978-45.621 33.093-45.326-32.879c14.964-3.077 30.349-4.666 45.98-4.666 15.277-.001 30.322 1.511 44.967 4.452zm-127.254 10.939 66.687 48.374.383 53.693-84.43 61.243-50.037-21.149-24.567-75.492c4.54-5.476 9.351-10.775 14.444-15.868 22.454-22.453 48.803-39.591 77.52-50.801zm-80.422 367.44h48.854l15.163 46.592c-22.368-10.874-43.01-25.514-61.114-43.618-.982-.981-1.942-1.978-2.903-2.974zm100.06 60.402-23.66-72.7 33.438-45.253h104.738l28.317 44.625-24.476 75.21c-17.992 4.541-36.67 6.885-55.708 6.885-21.501-.001-42.538-2.998-62.649-8.767zm153.882-10.339 16.292-50.063h55.182c-.961.996-1.921 1.993-2.903 2.974-20.1 20.101-43.322 35.946-68.571 47.089z"/></g><g/><g/><g/><g/><g/><g/><g/><g/><g/><g/><g/><g/><g/><g/><g/></svg>