<?xml version="1.0" encoding="UTF-8"?>
<svg id="Layer_1" data-name="Layer 1" xmlns="http://www.w3.org/2000/svg" version="1.1" viewBox="0 0 20 20">
  <defs>
    <style>
      .cls-1 {
        fill: none;
        stroke: #478acc;
        stroke-linecap: round;
        stroke-linejoin: round;
        stroke-width: .5px;
      }
    </style>
  </defs>
  <path class="cls-1" d="M3.7,12.3c-1.1,0-2.1.9-2.1,2.1s.9,2.1,2.1,2.1,2.1-.9,2.1-2.1-.9-2.1-2.1-2.1ZM3.7,15.2c-.5,0-.9-.4-.9-.9s.4-.9.9-.9.9.4.9.9c0,.5-.4.9-.9.9Z"/>
  <path class="cls-1" d="M11.7,12.3c-1.1,0-2.1.9-2.1,2.1s.9,2.1,2.1,2.1,2.1-.9,2.1-2.1c-.1-1.2-1-2.1-2.1-2.1ZM11.7,15.2c-.5,0-.9-.4-.9-.9s.4-.9.9-.9.9.4.9.9c0,.5-.4.9-.9.9Z"/>
  <path class="cls-1" d="M2.8,10.9l-1.4.2c-.1,0,1.5-.3,1.4-.2ZM2.8,10l-1.4.2c-.1,0,1.5-.2,1.4-.2ZM2.8,9.1l-1.4.3c-.1,0,1.5-.3,1.4-.3Z"/>
  <path class="cls-1" d="M14.8,14.1h.9-.9Z"/>
  <path class="cls-1" d="M14.8,10.4h.9-.9Z"/>
  <path class="cls-1" d="M14.6,14.7V3.6v11.1Z"/>
  <path class="cls-1" d="M14.3,14.7h.3v-3.1l-2.9-.6-2.3-7c0-.2-.3-.4-.5-.4H3.3c-.3,0-.6.2-.6.5v4.1l-1.7.3c-.2.1-.4.3-.4.5v4.2l.4,1.5-.4-1.5v-4.2c0-.2.2-.5.4-.5l1.7-.3v-4.1c0-.3.2-.5.5-.5h5.6c.2,0,.4,0,.5.4l2.4,6.9,2.9.6v3.1h-.3Z"/>
  <path class="cls-1" d="M6.4,14.7h2.7-2.7Z"/>
  <path class="cls-1" d="M11.4,9.8l-1.8,1.1c-.1,0-.1.1-.1.2l-.2.4c-.1.1-.2.2-.4.2h-2.6c-.2,0-.4-.2-.4-.4v-2c0-.2-.2-.4-.4-.4h-1c-.2,0-.4-.2-.4-.4V3.8v4.6c0,.2.2.4.4.4h.9c.2,0,.4.2.4.4v2c0,.2.2.4.4.4h2.5c.2,0,.3-.1.4-.2l.3-.4c0-.1.1-.1.1-.2l1.9-1Z"/>
  <polygon class="cls-1" points="19.4 15.2 15.9 15.2 15.9 9.4 15.9 15.2 19.4 15.2"/>
</svg>