<?xml version="1.0" encoding="utf-8"?>
<!-- Generator: Adobe Illustrator 24.2.3, SVG Export Plug-In . SVG Version: 6.00 Build 0)  -->
<svg version="1.1" id="Layer_1" xmlns="http://www.w3.org/2000/svg" xmlns:xlink="http://www.w3.org/1999/xlink" x="0px" y="0px"
	 viewBox="0 0 200 200" style="enable-background:new 0 0 200 200;" xml:space="preserve">
<style type="text/css">
	.st0{fill:#478BCC;}
</style>
<path class="st0" d="M180.6,177.3c0,0-0.3-0.5-0.6-1c0,0.1,0.1,0.1,0.1,0.1c0.2,0.5,0,1.2-0.6,1.4c-0.5,0.2-1.2,0.7-1.4,0.1
	l-0.3-0.8c0,0-0.3-0.8-0.9-2.1c-0.5-1.3-1-2.9-2.1-5.3c-1.2-2.3-2.6-5.2-4.4-8.4c-1.7-3.2-3.8-6.8-6.1-10.6c-1.1-2-2.5-3.9-3.7-5.9
	c-1.3-2-2.6-4.2-4.1-6.3c-2.9-4.3-6-8.8-9.4-13.2c-3.3-4.6-7-9.1-10.8-13.6c-1.8-2.3-3.8-4.6-5.8-6.8c-2-2.2-4-4.5-6-6.7
	c-4.1-4.4-8.4-8.6-12.5-12.9c-4.3-4-8.6-8-12.7-11.9c-4.3-3.7-8.4-7.2-12.4-10.6c-1.9-1.7-3.9-3.3-5.8-4.7c-1.9-1.5-3.8-2.9-5.6-4.3
	c-3.6-2.7-6.7-5.4-9.8-7.5c-3-2.1-5.6-4-7.7-5.5c-4.3-3.1-6.7-4.8-6.7-4.8s2.5,1.6,7,4.5c2.2,1.4,4.9,3.2,8,5.2
	c3.1,1.9,6.4,4.5,10.1,7.2c1.8,1.4,3.7,2.8,5.7,4.2c2,1.4,4,3,6,4.7c4,3.3,8.2,6.8,12.5,10.5c4.2,3.8,8.5,7.8,12.8,11.9
	c4.2,4.3,8.5,8.5,12.6,12.9c2,2.2,4,4.5,6.1,6.7c2,2.2,4,4.5,5.9,6.8c3.8,4.6,7.6,9.1,10.9,13.6c3.5,4.5,6.6,9,9.6,13.2
	c2.8,4,5.2,7.9,7.5,11.6c2.9-1.9,5-4.8,5.3-10.7c0.5-7.5-0.4-14-5.8-25.4l-5.2,1.5l2.5-7.1c-3.8-7.9-6.8-16.3-12.6-24.6l-6.6,7.4
	l3.7-10.7C139,68.2,129.9,59.4,120,50.1l-4,7.4l0-11.2c-14.1-12.9-28.9-20.1-42.6-24L70.6,32l-1.4-10.7c-28.4-6.7-51,0.9-49.9,1.3
	c0.5,0.8,10.5,20.6,27.6,42l14.8-5.4l-12.1,8.8c5.3,6.4,11.2,12.8,17.7,18.9l14.5-3.9l-11.4,7c2.8,2.6,3.7,3.1,6.7,5.5
	c4.3,3.4,8.6,6.9,12.7,10.6l13.4-2.2l-8.1,6.9c7.8,7.1,15.3,14.4,22.3,21l13.3,0L122,136c9.9,9.2,16.8,14.9,24.1,18.4
	c6.4,2.8,9.7-0.5,14.1-2.7c0.2-0.1,0.4-0.2,0.6-0.3c0.2,0.3,0.3,0.6,0.5,0.9c2.1,3.9,4.1,7.5,5.7,10.8c1.7,3.2,2.9,6.1,4,8.5
	c1,2.4,1.8,4.3,2.3,5.5c0.5,1.3,1.2,3.2,1.2,3.2l0,0.1c0,0,0,0.1,0,0.1c0.7,1.6,2.1,1.2,3.7,0.6
	C179.8,180.2,181.2,178.9,180.6,177.3z"/>
</svg>
