<?xml version="1.0" encoding="utf-8"?>
<!-- Generator: Adobe Illustrator 24.2.3, SVG Export Plug-In . SVG Version: 6.00 Build 0)  -->
<svg version="1.1" id="Layer_1" xmlns="http://www.w3.org/2000/svg" xmlns:xlink="http://www.w3.org/1999/xlink" x="0px" y="0px"
	 viewBox="0 0 200 200" style="enable-background:new 0 0 200 200;" xml:space="preserve">
<style type="text/css">
	.st0{fill:#478BCC;}
</style>
<g>
	<path class="st0" d="M162.4,30.9l-62.7,0c-3.7,0-6.7,3-6.7,6.8c0,3.7,3,6.7,6.7,6.7h46.4l-36.4,36.4c2.4,1.1,4.5,2.5,6.3,4.4
		c1.4,1.4,2.6,3,3.6,4.7l36-36v46.4c0,3.7,3,6.8,6.8,6.8s6.8-3,6.8-6.8l0-62.7C169.1,33.9,166.1,30.9,162.4,30.9
		C162.4,30.9,162.4,30.9,162.4,30.9L162.4,30.9z"/>
	<path class="st0" d="M44.4,146.1l0-46.4c0-3.7-3-6.8-6.7-6.8c-3.7,0-6.8,3-6.8,6.7c0,0,0,0,0,0v62.7c0,3.7,3,6.7,6.7,6.8
		c0,0,0,0,0,0h62.7c3.7,0,6.8-3,6.8-6.7c0-3.7-3-6.8-6.7-6.8c0,0,0,0,0,0l-46.4,0l35.9-35.9c-1.7-1-3.3-2.2-4.7-3.6
		c-1.8-1.8-3.3-4-4.4-6.3L44.4,146.1z"/>
	<path class="st0" d="M97.8,92.7c-1.2,0.4-2.3,1.1-3.2,2c-0.9,0.9-1.6,2-2,3.2c-1.5,4.4,0.8,9.2,5.2,10.8c0.9,0.3,1.8,0.5,2.7,0.5
		c4.7,0,8.5-3.7,8.5-8.4c0,0,0-0.1,0-0.1c-0.1-4.7-3.9-8.4-8.6-8.3C99.5,92.2,98.6,92.4,97.8,92.7L97.8,92.7z"/>
</g>
</svg>
