<?xml version="1.0" encoding="utf-8"?>
<!-- Generator: Adobe Illustrator 24.2.3, SVG Export Plug-In . SVG Version: 6.00 Build 0)  -->
<svg version="1.1" id="Layer_1" xmlns="http://www.w3.org/2000/svg" xmlns:xlink="http://www.w3.org/1999/xlink" x="0px" y="0px"
	 viewBox="0 0 200 200" style="enable-background:new 0 0 200 200;" xml:space="preserve">
<style type="text/css">
	.st0{fill:#478BCC;}
</style>
<path class="st0" d="M85.4,146.7c-17.3,2.8-13.9-8.6-13.9-8.6c0-6.9,7.4-7.8,7.4-7.8h37c7.2,2.2,4,8.5,4,8.5c-2.3,2-3.1,1.6-3.1,1.6
	l-10.4,2.7L85.4,146.7z M85.4,53.3c-17.3-2.8-13.9,8.6-13.9,8.6c0,6.9,7.4,7.8,7.4,7.8h37c7.2-2.2,4-8.5,4-8.5
	c-2.3-2-3.1-1.6-3.1-1.6L106.4,57L85.4,53.3z M189.1,75.1v50.4h7.4v6.7c-5.4,0.4-32.6,6.1-32.6,6.1l-13.4,8.4l-27.2-2.7
	c0-23.8-25.5-22.1-25.5-22.1c-32.9,0-28.9,22.1-28.9,22.1L55,144.5c-5,0-6-5.7-6-5.7v-0.2l-12.8-0.3c0,0-27.2-5.6-32.6-6.1v-6.7h7.4
	V75.1H3.5v-6.7c5.4-0.4,32.6-6.1,32.6-6.1l12.8-0.4v0c0,0,1-5.7,6-5.7l13.8,0.4c0,0-4,22.1,28.9,22.1c0,0,25.5,1.8,25.5-22.1
	l27.2-2.7l13.4,8.4c0,0,0,0,0,0c0,0,27.2,5.6,32.6,6.1v6.7L189.1,75.1L189.1,75.1z M36.1,75.1H24.5v50.4h11.7L36.1,75.1L36.1,75.1z
	 M175.5,75.1h-11.7V98v4.7v22.9h11.7V75.1z"/>
</svg>
