<?xml version="1.0" encoding="utf-8"?>
<!-- Generator: Adobe Illustrator 24.2.3, SVG Export Plug-In . SVG Version: 6.00 Build 0)  -->
<svg version="1.1" id="Layer_1" xmlns="http://www.w3.org/2000/svg" xmlns:xlink="http://www.w3.org/1999/xlink" x="0px" y="0px"
	 viewBox="0 0 200 200" style="enable-background:new 0 0 200 200;" xml:space="preserve">
<style type="text/css">
	.st0{fill:#478BCC;}
</style>
<g>
	<path class="st0" d="M86.2,43.7c4.4-1.4,9.3-1.8,14.2-1.8c5.9,0,11.3,0.8,16.6,2.6c1-8.9-4.9-18-11.7-24.3
		c-6.5-5.7-2-14.2-1.8-14.6s0.2-1-0.2-1.6c-0.4-0.4-1-0.6-1.6-0.4c-0.4,0.2-10.3,3.4-13.3,10.5c-1.4,3.2-1,6.7,0.8,10.3
		c4.4,8.9,3.6,9.9-1.2,16.8C87.4,42.1,87,42.9,86.2,43.7z"/>
	<path class="st0" d="M39.3,54.4c9.3,3,9.5,4.4,10.9,12.7c0.2,0.8,0.4,2,0.4,3c5.3-9.1,12.9-16.4,22.2-21.4
		c-5.7-7.1-16.4-9.3-25.5-8.7h-0.6c-8.1,0-10.7-8.7-10.9-9.1c-0.2-0.6-0.6-0.8-1-1c-0.6-0.2-1,0.2-1.4,0.8c-0.2,0.4-4.9,9.5-2,16.8
		C32.8,51,35.5,53,39.3,54.4z"/>
	<path class="st0" d="M151.3,72.4c7.1-5.7,9.3-16.4,8.7-25.5c-0.4-8.5,8.7-11.5,9.1-11.5c0.6-0.2,0.8-0.6,1-1c0-0.6-0.2-1-0.8-1.4
		c-0.4-0.2-9.5-4.9-16.8-2c-3.2,1.4-5.5,4-6.9,7.9c-3,9.3-4.4,9.5-12.7,10.9c-0.8,0.2-2,0.4-3,0.4C139,55.5,146.3,63.1,151.3,72.4z"
		/>
	<path class="st0" d="M41.9,112.1c0.8,0.6,1.6,1,2.6,1.8c-1.4-4.4-1.8-9.3-1.8-14.2c0-5.9,0.8-11.3,2.6-16.6
		c-8.9-1-18,4.9-24.3,11.7c-5.7,6.5-14.2,2-14.6,1.8c-0.4-0.2-1-0.2-1.6,0.2c-0.4,0.4-0.6,1-0.4,1.6C4.7,98.9,8,108.8,15,111.9
		c3.2,1.4,6.7,1,10.3-0.8C33.8,106.4,35.1,107.2,41.9,112.1z"/>
	<path class="st0" d="M185.9,87.8c-3.2-1.4-6.7-1-10.3,0.8c-8.9,4.4-9.9,3.6-16.8-1.2c-0.8-0.6-1.6-1-2.6-1.8
		c1.4,4.4,1.8,9.3,1.8,14.2c0,5.9-0.8,11.3-2.6,16.6c8.9,1,18.2-4.9,24.3-11.7c5.7-6.5,14.2-2,14.6-1.8s1,0.2,1.6-0.2
		c0.4-0.4,0.6-0.8,0.4-1.4C196.2,100.8,193,91,185.9,87.8z"/>
	<path class="st0" d="M161.4,145c-9.3-3-9.5-4.4-10.9-12.7c-0.2-0.8-0.4-2-0.4-3c-5.3,9.1-12.9,16.4-22.2,21.4
		c5.7,7.1,16.4,9.3,25.5,8.7h0.6c8.1,0,10.7,8.7,10.9,9.1c0.2,0.6,0.6,0.8,1.2,1c0,0,0,0,0.2,0c0.4,0,1-0.4,1.2-0.8
		c0.2-0.4,4.9-9.5,2-16.8C167.9,148.7,165.3,146.5,161.4,145z"/>
	<path class="st0" d="M49.4,127.2c-7.1,5.7-9.3,16.4-8.7,25.5c0.4,8.5-8.7,11.5-9.1,11.5c-0.6,0.2-0.8,0.6-1,1c0,0.6,0.2,1,0.8,1.4
		c0.2,0.2,5.7,3,11.5,3c1.8,0,3.4-0.4,5.3-1c3.2-1.4,5.7-4,6.9-7.9c3-9.3,4.4-9.5,12.7-10.9c0.8-0.2,2-0.4,3-0.4
		C61.7,144,54.5,136.3,49.4,127.2z"/>
	<path class="st0" d="M114.5,155.8c-4.4,1.4-9.3,1.8-14.2,1.8c-5.9,0-11.3-0.8-16.6-2.6c-1,8.9,4.9,18.2,11.7,24.3
		c6.5,5.7,2,14.2,1.8,14.6c-0.2,0.4-0.2,1,0.2,1.6c0.2,0.4,0.6,0.4,1,0.4H99c0.4-0.2,10.3-3.4,13.3-10.5c1.4-3.2,1-6.7-0.8-10.3
		c-4.4-8.9-3.6-9.9,1.2-16.8C113.3,157.6,113.7,156.6,114.5,155.8z"/>
	<circle class="st0" cx="100.4" cy="99.7" r="44.7"/>
</g>
</svg>
