<svg xmlns="http://www.w3.org/2000/svg" xmlns:xlink="http://www.w3.org/1999/xlink" id="Layer_1" x="0px" y="0px" viewBox="0 0 512 512" style="enable-background:new 0 0 512 512;" xml:space="preserve">
<style type="text/css">
	.st0{fill:#478BCC;}
</style>
<g>
	<path class="st0" d="M229.8,55.2c10.2,0,19.8,4.6,26.2,12.6c6.4-7.9,16-12.6,26.2-12.6c9.3,0,17.7,3.8,23.8,9.9   c4.3,4.3,7.5,9.9,9,16l0.4-0.2c5.2-2.8,11.1-4.4,17.3-4.4c10.1,0,19.3,4.1,25.9,10.7c6.6,6.6,10.7,15.8,10.7,25.9   c0,3.3-0.5,6.5-1.3,9.8c7.6,3.3,14.1,8.4,19.2,14.8c6.7,8.4,10.7,19.1,10.7,30.6s-4,22.2-10.7,30.6c-5,6.4-11.6,11.5-19.2,14.7   c0.9,3.2,1.3,6.4,1.3,9.8c0,10.1-4.1,19.3-10.7,25.9c-6.6,6.6-15.8,10.7-25.9,10.7c-6.3,0-12.2-1.6-17.7-4.6   c-1.5,6.2-4.6,11.7-9,16c-1.9,1.9-4.1,3.6-6.4,5l-17.5,93.6h35.5v-33.1c0-6.1,1.6-11.3,4.5-15.8c3.1-4.7,7.1-7.8,11.8-10.5   c24.4-13.8,44.7-33.9,58.8-58.1c13.7-23.4,21.5-50.6,21.5-79.6c0-21.9-4.5-42.8-12.5-61.7c-8.4-19.7-20.6-37.4-35.8-52   c-3-2.9-3.1-7.6-0.2-10.6s7.6-3.1,10.6-0.2c16.6,16,30,35.4,39.2,56.9c8.8,20.8,13.7,43.7,13.7,67.6c0,31.8-8.6,61.6-23.5,87.2   c-15.4,26.4-37.7,48.4-64.4,63.6c-2.5,1.4-5.1,3.3-6.7,5.7c-1.3,2-2,4.5-2,7.6v40.6v57.7c0,42.3-34.3,76.6-76.6,76.6   c-21.1,0-40.3-8.6-54.1-22.4c-13.9-13.9-22.4-33-22.4-54.1v-57.7v-40.6c0-2.8-0.7-5.2-2-7.3c-1.7-2.7-3.9-4.5-6.6-6   c-4.7-2.7-9.3-5.6-13.8-8.8c-4.5-3.1-8.8-6.5-13.1-10.1c-3.1-2.7-3.5-7.4-0.9-10.5c2.7-3.1,7.4-3.5,10.5-0.9   c3.8,3.2,7.8,6.3,12,9.2c4.1,2.9,8.4,5.6,12.7,8c4.9,2.8,9,6.5,11.9,11c2.8,4.4,4.3,9.5,4.3,15.2v33.1h35.5l-17.5-93.6   c-2.3-1.4-4.5-3.1-6.4-5c-4.3-4.3-7.5-9.9-9-16l-0.4,0.2c-5.2,2.8-11.1,4.4-17.3,4.4c-10.1,0-19.3-4.1-25.9-10.7   c-6.6-6.6-10.7-15.8-10.7-25.9c0-3.3,0.5-6.6,1.3-9.8c-7.6-3.3-14.1-8.4-19.2-14.7c-6.7-8.4-10.7-19.1-10.7-30.6   c0-11.5,4-22.2,10.7-30.6c5-6.4,11.6-11.5,19.2-14.8c-0.9-3.2-1.3-6.4-1.3-9.8c0-10.1,4.1-19.2,10.7-25.9   c6.6-6.6,15.8-10.7,25.9-10.7c6.3,0,12.2,1.6,17.7,4.6c1.5-6.2,4.6-11.7,9-16C212.1,59,220.5,55.2,229.8,55.2L229.8,55.2z    M283.5,281.5c-10.6,0.4-20.8-4.3-27.5-12.5c-6.7,8.2-16.9,13-27.5,12.5l16.6,88.8h21.8L283.5,281.5z M317.6,427.9v-42.7H194.4   v42.7H239c4.1,0,7.5,3.3,7.5,7.5c0,4.1-3.3,7.5-7.5,7.5h-44.2c1.7,14,8.1,26.6,17.6,36.1c11.1,11.1,26.5,18,43.5,18   c31.5,0,57.4-23.6,61.1-54.1H273c-4.1,0-7.5-3.3-7.5-7.5c0-4.2,3.3-7.5,7.5-7.5H317.6z M131.1,270.3c2.6,3.2,2,7.9-1.3,10.5   c-3.3,2.5-7.9,2-10.5-1.3c-11.7-15-20.9-31.9-27.2-50.1c-6-17.6-9.3-36.5-9.3-56.2c0-47.8,19.4-91.1,50.7-122.5   C164.9,19.4,208.2,0,256,0c16.6,0,32.8,2.4,48.1,6.8c15.8,4.6,30.7,11.3,44.2,19.9c3.5,2.2,4.5,6.8,2.4,10.3   c-2.2,3.5-6.8,4.5-10.3,2.4c-12.4-7.9-26-14-40.5-18.2c-13.9-4-28.6-6.2-44-6.2c-43.7,0-83.2,17.7-111.8,46.3   c-28.6,28.6-46.3,68.1-46.3,111.8c0,18,3,35.3,8.5,51.3C112.1,241.2,120.5,256.7,131.1,270.3L131.1,270.3z M344.8,205.6   c-3.5-2.4-7.7-3.7-12.1-3.7c-2.4,0-4.4,0.3-6.7,1c-3.9,1.3-8.2-0.9-9.4-4.8c-1.3-3.9,0.9-8.1,4.8-9.4c3.5-1.1,7.6-1.8,11.3-1.8   c7.5,0,14.6,2.3,20.5,6.3c2.9,2,5.6,4.4,7.9,7.2c5.7-2.3,10.7-6,14.4-10.7c4.6-5.8,7.4-13.3,7.4-21.4s-2.8-15.5-7.4-21.4   c-4.7-6-11.4-10.3-19.1-12.2c-4-0.9-6.5-5-5.6-9c0.2-0.9,0.5-1.6,1-2.3c0.8-1.5,1.4-3.1,1.9-4.8c0.5-1.7,0.7-3.6,0.7-5.5   c0-6-2.4-11.4-6.3-15.3s-9.3-6.3-15.3-6.3c-3.7,0-7.2,0.9-10.2,2.5c-4.7,2.5-8.3,6.7-10.1,11.7c-0.8,2.3-1.2,4.7-1.2,7.4   c0,4.4,1.3,8.4,3.5,11.8c2.3,3.5,5.6,6.3,9.5,8c3.8,1.6,5.5,6,3.9,9.8c-1.6,3.8-6,5.5-9.8,3.9c-6.6-2.9-12.2-7.6-16-13.5   c-3.8-5.8-6-12.6-6-20c0-4.3,0.8-8.5,2.2-12.4c0.7-2,1.6-3.9,2.7-5.7v-6.1c0-5.1-2.1-9.8-5.5-13.2c-3.4-3.4-8.1-5.5-13.2-5.5   c-5.2,0-9.8,2.1-13.2,5.5c-3.4,3.4-5.5,8.1-5.5,13.2v77.5c0,5.2,2.1,9.8,5.5,13.2c3.4,3.4,8.1,5.5,13.2,5.5c5.2,0,9.8-2.1,13.2-5.5   c3.4-3.4,5.5-8.1,5.5-13.2c0-4.2,3.3-7.5,7.5-7.5c4.1,0,7.5,3.3,7.5,7.5c0,9.3-3.8,17.7-9.9,23.8c-6.1,6.1-14.5,9.9-23.8,9.9   c-6.9,0-13.4-2.1-18.7-5.7v53.3c0,5.1,2.1,9.8,5.5,13.2c3.4,3.4,8.1,5.5,13.2,5.5c5.1,0,9.8-2.1,13.2-5.5c3.4-3.4,5.5-8.1,5.5-13.2   v-8.2c0-4.1,3.3-7.5,7.5-7.5c2.8,0,5.2,1.5,6.5,3.7c1.9,2.8,4.5,5.1,7.6,6.7s6.5,2.6,10.2,2.6c6,0,11.4-2.4,15.3-6.4   c3.9-3.9,6.3-9.3,6.3-15.3c0-2-0.2-3.8-0.7-5.5C352.3,212.9,349.2,208.5,344.8,205.6L344.8,205.6z M150.9,200.4   c2.3-2.8,4.9-5.2,7.9-7.2c5.9-4,13-6.3,20.5-6.3c3.7,0,7.8,0.6,11.3,1.8c3.9,1.3,6.1,5.5,4.8,9.4c-1.3,3.9-5.5,6.1-9.4,4.8   c-2.3-0.7-4.3-1-6.7-1c-4.4,0-8.6,1.4-12.1,3.7c-4.4,2.9-7.5,7.3-8.8,12.4c-0.5,1.7-0.7,3.6-0.7,5.5c0,6,2.4,11.4,6.3,15.3   c3.9,3.9,9.3,6.4,15.3,6.4c3.7,0,7.2-0.9,10.2-2.6s5.6-3.9,7.6-6.7c1.3-2.2,3.7-3.7,6.5-3.7c4.1,0,7.5,3.4,7.5,7.5v8.2   c0,5.1,2.1,9.8,5.5,13.2c3.4,3.4,8.1,5.5,13.2,5.5c5.2,0,9.8-2.1,13.2-5.5c3.4-3.4,5.5-8.1,5.5-13.2v-53.3   c-5.3,3.6-11.8,5.7-18.7,5.7c-9.3,0-17.7-3.8-23.8-9.9c-6.1-6.1-9.9-14.5-9.9-23.8c0-4.2,3.4-7.5,7.5-7.5s7.5,3.3,7.5,7.5   c0,5.2,2.1,9.8,5.5,13.2c3.4,3.4,8.1,5.5,13.2,5.5c5.2,0,9.9-2.1,13.2-5.5c3.4-3.4,5.5-8.1,5.5-13.2V88.9c0-5.1-2.1-9.8-5.5-13.2   c-3.4-3.4-8.1-5.5-13.2-5.5c-5.1,0-9.8,2.1-13.2,5.5c-3.4,3.4-5.5,8.1-5.5,13.2V95c1,1.8,2,3.7,2.7,5.7c1.4,3.9,2.2,8.1,2.2,12.4   c0,7.4-2.2,14.3-6,20c-3.9,5.9-9.5,10.7-16,13.5c-3.8,1.7-8.2-0.1-9.8-3.9c-1.6-3.8,0.1-8.2,3.9-9.8c3.9-1.7,7.2-4.5,9.5-8   c2.2-3.4,3.5-7.5,3.5-11.8c0-2.6-0.4-5.1-1.2-7.4c-1.8-5-5.4-9.2-10.1-11.7c-3-1.6-6.5-2.5-10.2-2.5c-6,0-11.4,2.4-15.3,6.3   c-3.9,3.9-6.3,9.3-6.3,15.3c0,2,0.2,3.8,0.7,5.5c0.7,2.7,2.4,4.9,2.9,7.1c0.9,4-1.6,8-5.6,9c-7.7,1.8-14.4,6.2-19.1,12.2   c-4.6,5.8-7.4,13.3-7.4,21.4s2.8,15.5,7.4,21.4C140.3,194.4,145.2,198.1,150.9,200.4L150.9,200.4z"></path>
</g>
</svg>