<?xml version="1.0" encoding="UTF-8"?>
<svg id="Layer_1" xmlns="http://www.w3.org/2000/svg" version="1.1" viewBox="0 0 231.5 76.6">
  <!-- Generator: Adobe Illustrator 29.6.1, SVG Export Plug-In . SVG Version: 2.1.1 Build 9)  -->
  <defs>
    <style>
      .st0 {
        fill: #fff;
      }
    </style>
  </defs>
  <path class="st0" d="M33,63.2H3.5V13.4h8v41.7h21.6v8h0Z"/>
  <path class="st0" d="M61.7,51.2l6.5,2.2c-.9,3.1-2.7,5.7-5.2,7.7-2.5,2-5.7,3.1-9.4,3.1s-8.5-1.7-11.7-5-4.8-7.8-4.8-13.3,1.6-9.5,4.7-12.9c3.1-3.4,6.8-5,11.1-5s8.8,1.6,11.6,4.8c2.8,3.2,4.2,7.5,4.2,12.9s0,2.3-.2,2.6h-23.6c0,2.6,1,4.7,2.7,6.4s3.8,2.5,6.1,2.5c4.2,0,6.9-2,8.1-6h-.1ZM44.9,42.3h15.9c0-2.1-.8-3.9-2.2-5.4-1.4-1.4-3.3-2.2-5.8-2.2s-4.2.8-5.6,2.3c-1.4,1.5-2.2,3.3-2.3,5.3Z"/>
  <path class="st0" d="M73.9,53.9c0-2.9.9-5.2,2.7-7,1.8-1.8,4.2-2.9,7.1-3.3l8.3-1.3c1.6-.2,2.4-1.1,2.4-2.5s-.5-2.8-1.5-3.8-2.5-1.4-4.6-1.4-3.5.6-4.6,1.7c-1.2,1.1-1.8,2.6-2,4.5l-7-1.7c.3-3.1,1.7-5.7,4.2-7.9,2.5-2.2,5.6-3.3,9.4-3.3s8.2,1.2,10.4,3.6c2.2,2.4,3.4,5.4,3.4,9.2v17c0,2.2,0,4.1.4,5.5h-7.2c-.2-.7-.3-2.1-.3-4.3-2.1,3.6-5.4,5.4-10,5.4s-5.9-1-7.9-3.1c-2-2-3-4.5-3-7.3h-.2ZM86.4,57.8c2.4,0,4.3-.7,5.8-2.1,1.5-1.4,2.2-3.6,2.2-6.8v-1.5l-8.4,1.3c-2.9.5-4.3,2.1-4.3,4.6s.4,2.3,1.3,3.1c.8.9,2,1.3,3.5,1.3h0Z"/>
  <path class="st0" d="M120.9,18.6v10.4h6.7v7.2h-6.7v15.8c0,1.5.3,2.6,1,3.3s1.7,1,3.1,1,1.8,0,2.7-.3v6.7c-1.2.5-2.7.8-4.7.8-3,0-5.4-.9-7.1-2.7s-2.6-4.3-2.6-7.5v-17.2h-6v-7.2h1.7c1.6,0,2.9-.5,3.7-1.5.8-1,1.3-2.3,1.3-3.9v-5.1h7v.2Z"/>
  <path class="st0" d="M142.3,43.1v20.1h-7.7V12.4h7.7v19.9c2.1-2.9,5.2-4.3,9.2-4.3s6.7,1.3,8.8,3.8,3.1,5.8,3.1,9.7v21.6h-7.7v-20.2c0-2.3-.5-4.1-1.6-5.5s-2.7-2.1-5-2.1-3.6.7-4.8,2.2c-1.2,1.4-1.8,3.3-1.9,5.5h-.1Z"/>
  <path class="st0" d="M194.8,51.2l6.5,2.2c-.9,3.1-2.7,5.7-5.2,7.7s-5.7,3.1-9.4,3.1-8.5-1.7-11.7-5-4.8-7.8-4.8-13.3,1.6-9.5,4.7-12.9,6.8-5,11.1-5,8.8,1.6,11.6,4.8c2.8,3.2,4.2,7.5,4.2,12.9s0,2.3-.2,2.6h-23.6c0,2.6,1,4.7,2.7,6.4s3.8,2.5,6.1,2.5c4.2,0,6.9-2,8.1-6h-.1ZM178.1,42.3h15.9c0-2.1-.8-3.9-2.2-5.4-1.4-1.4-3.3-2.2-5.8-2.2s-4.2.8-5.6,2.3c-1.4,1.5-2.2,3.3-2.3,5.3h0Z"/>
  <path class="st0" d="M228,28.8v8.3c-.9,0-1.7-.2-2.5-.2-5.8,0-8.7,3.3-8.7,10v16.3h-7.7V29h7.5v5.5c.8-1.8,2-3.3,3.7-4.3,1.7-1.1,3.6-1.6,5.7-1.6s1.4,0,2.1.2h-.1Z"/>
</svg>