<?xml version="1.0" encoding="utf-8"?>
<!-- Generator: Adobe Illustrator 24.3.0, SVG Export Plug-In . SVG Version: 6.00 Build 0)  -->
<svg version="1.1" id="Layer_1" xmlns="http://www.w3.org/2000/svg" xmlns:xlink="http://www.w3.org/1999/xlink" x="0px" y="0px"
	 viewBox="0 0 138 56" style="enable-background:new 0 0 138 56;" xml:space="preserve">
<style type="text/css">
	.st0{fill:#FFFFFF;}
	.st1{fill:#211D41;}
</style>
<g>
	<g>
		<g>
			<path class="st1" d="M20.6,15.9c0.4,0,0.6,0.1,0.8,0.3c0.2,0.2,0.3,0.5,0.5,0.8L36,53.2c0,0.1,0,0.1,0,0.2c0,0.2-0.1,0.4-0.3,0.6
				c-0.2,0.2-0.4,0.3-0.6,0.3h-2.4c-0.4,0-0.7-0.1-0.9-0.3c-0.2-0.2-0.3-0.4-0.4-0.5l-7.6-19.1H13.6l-1.4,3.6
				c-0.1,0.2-0.2,0.4-0.4,0.5c-0.2,0.2-0.5,0.3-0.9,0.3H8.5c-0.2,0-0.4-0.1-0.6-0.3c-0.2-0.2-0.3-0.4-0.3-0.6c0-0.1,0-0.2,0-0.2
				l8-20.8c0.1-0.4,0.3-0.7,0.5-0.8c0.2-0.2,0.4-0.3,0.8-0.3H20.6z M22.4,30.3l-3.6-9.4l-3.6,9.4H22.4z"/>
			<path class="st1" d="M46.5,31.6c0-0.3,0.2-0.5,0.3-0.6c0.2-0.1,0.4-0.2,0.6-0.2h2.7c0.2,0,0.5,0.1,0.6,0.2
				c0.2,0.2,0.3,0.4,0.2,0.6c-0.1,0.9-0.3,1.8-0.7,2.7c-0.4,0.9-1,1.7-1.8,2.4c-0.8,0.7-1.8,1.3-3,1.8c-1.2,0.5-2.7,0.7-4.4,0.7
				c-1.5,0-2.8-0.2-4-0.7c-1.2-0.4-2.1-1.1-3-1.9c-0.8-0.8-1.4-1.8-1.9-2.9c-0.4-1.1-0.7-2.3-0.8-3.6c0-0.8-0.1-1.8-0.1-2.8
				c0-1,0-1.9,0.1-2.8c0.1-1.3,0.4-2.5,0.8-3.6c0.4-1.1,1.1-2.1,1.9-2.9c0.8-0.8,1.8-1.4,3-1.9c1.2-0.4,2.5-0.7,4-0.7
				c1.7,0,3.2,0.2,4.4,0.7c1.2,0.5,2.2,1.1,3,1.8s1.4,1.5,1.8,2.4c0.4,0.9,0.6,1.8,0.7,2.7c0,0.3-0.1,0.5-0.2,0.6
				c-0.2,0.2-0.4,0.2-0.6,0.2h-2.7c-0.2,0-0.4-0.1-0.6-0.2s-0.3-0.4-0.4-0.6c-0.1-0.4-0.2-0.9-0.5-1.3c-0.2-0.4-0.6-0.8-1-1.1
				c-0.4-0.3-0.9-0.6-1.6-0.8c-0.6-0.2-1.4-0.3-2.2-0.3c-0.9,0-1.6,0.1-2.2,0.4c-0.6,0.3-1.2,0.6-1.6,1.1c-0.4,0.4-0.8,1-1,1.6
				c-0.2,0.6-0.4,1.3-0.4,1.9c0,0.8-0.1,1.8-0.1,2.8c0,1,0,1.9,0.1,2.8c0,0.7,0.2,1.4,0.4,2c0.2,0.6,0.6,1.1,1,1.6
				c0.4,0.4,1,0.8,1.6,1.1c0.6,0.3,1.4,0.4,2.2,0.4c0.9,0,1.6-0.1,2.2-0.3c0.6-0.2,1.2-0.5,1.6-0.8c0.4-0.3,0.8-0.7,1-1.1
				C46.3,32.5,46.5,32,46.5,31.6z"/>
			<path class="st1" d="M69,31.6c0-0.3,0.2-0.5,0.3-0.6c0.2-0.1,0.4-0.2,0.6-0.2h2.7c0.2,0,0.5,0.1,0.6,0.2c0.2,0.2,0.3,0.4,0.2,0.6
				c-0.1,0.9-0.3,1.8-0.7,2.7c-0.4,0.9-1,1.7-1.8,2.4c-0.8,0.7-1.8,1.3-3,1.8c-1.2,0.5-2.7,0.7-4.4,0.7c-1.5,0-2.8-0.2-4-0.7
				c-1.2-0.4-2.1-1.1-3-1.9s-1.4-1.8-1.9-2.9c-0.4-1.1-0.7-2.3-0.8-3.6c0-0.8-0.1-1.8-0.1-2.8c0-1,0-1.9,0.1-2.8
				c0.1-1.3,0.4-2.5,0.8-3.6s1.1-2.1,1.9-2.9c0.8-0.8,1.8-1.4,3-1.9c1.2-0.4,2.5-0.7,4-0.7c1.7,0,3.2,0.2,4.4,0.7
				c1.2,0.5,2.2,1.1,3,1.8c0.8,0.7,1.4,1.5,1.8,2.4c0.4,0.9,0.6,1.8,0.7,2.7c0,0.3-0.1,0.5-0.2,0.6c-0.2,0.2-0.4,0.2-0.6,0.2H70
				c-0.2,0-0.4-0.1-0.6-0.2S69,23.5,69,23.2c-0.1-0.4-0.2-0.9-0.5-1.3c-0.2-0.4-0.6-0.8-1-1.1c-0.4-0.3-0.9-0.6-1.6-0.8
				c-0.6-0.2-1.4-0.3-2.2-0.3c-0.9,0-1.6,0.1-2.2,0.4c-0.6,0.3-1.2,0.6-1.6,1.1c-0.4,0.4-0.8,1-1,1.6c-0.2,0.6-0.4,1.3-0.4,1.9
				c0,0.8-0.1,1.8-0.1,2.8c0,1,0,1.9,0.1,2.8c0,0.7,0.2,1.4,0.4,2c0.2,0.6,0.6,1.1,1,1.6c0.4,0.4,1,0.8,1.6,1.1
				c0.6,0.3,1.4,0.4,2.2,0.4c0.9,0,1.6-0.1,2.2-0.3c0.6-0.2,1.2-0.5,1.6-0.8c0.4-0.3,0.8-0.7,1-1.1C68.8,32.5,69,32,69,31.6z"/>
			<path class="st1" d="M92.7,34.8c0.2,0,0.4,0.1,0.6,0.3c0.2,0.2,0.3,0.4,0.3,0.6V38c0,0.2-0.1,0.4-0.3,0.6
				c-0.2,0.2-0.4,0.3-0.6,0.3H78.3c-0.2,0-0.4-0.1-0.6-0.3c-0.2-0.2-0.3-0.4-0.3-0.6V16.8c0-0.2,0.1-0.4,0.3-0.6
				c0.2-0.2,0.4-0.3,0.6-0.3h14.2c0.2,0,0.4,0.1,0.6,0.3c0.2,0.2,0.3,0.4,0.3,0.6v2.3c0,0.2-0.1,0.4-0.3,0.6
				c-0.2,0.2-0.4,0.3-0.6,0.3H81.8v5.2h9.9c0.2,0,0.4,0.1,0.6,0.3c0.2,0.2,0.3,0.4,0.3,0.6v2.3c0,0.2-0.1,0.4-0.3,0.6
				c-0.2,0.2-0.4,0.3-0.6,0.3h-9.9v5.5H92.7z"/>
			<path class="st1" d="M105.5,15.6c1.5,0,2.8,0.2,3.9,0.6c1.1,0.4,2,0.9,2.8,1.5c0.7,0.6,1.3,1.2,1.7,2c0.4,0.7,0.6,1.4,0.6,2
				c0,0.3-0.1,0.5-0.2,0.6c-0.2,0.2-0.4,0.2-0.6,0.2h-2.3c-0.4,0-0.7-0.1-0.8-0.2c-0.2-0.1-0.4-0.3-0.5-0.6c-0.3-0.5-0.8-1-1.5-1.4
				c-0.7-0.4-1.7-0.6-3-0.6c-0.6,0-1.1,0.1-1.6,0.2c-0.5,0.1-1,0.3-1.3,0.5c-0.4,0.2-0.7,0.5-0.9,0.8c-0.2,0.3-0.3,0.7-0.3,1.1
				c0,0.5,0.1,0.9,0.3,1.2c0.2,0.3,0.6,0.6,1.1,0.8c0.5,0.2,1.1,0.4,2,0.6c0.8,0.2,1.8,0.4,3,0.7c1.3,0.3,2.4,0.6,3.4,1
				c1,0.4,1.7,0.8,2.3,1.4c0.6,0.5,1.1,1.2,1.3,1.9c0.3,0.7,0.4,1.5,0.4,2.4c0,1-0.2,1.9-0.7,2.7s-1.1,1.6-1.9,2.2
				c-0.8,0.6-1.8,1.1-3,1.4s-2.5,0.5-4,0.5c-1.2,0-2.4-0.1-3.5-0.4c-1.1-0.3-2.1-0.7-3-1.3c-0.9-0.6-1.6-1.2-2.1-2
				c-0.5-0.8-0.8-1.7-0.9-2.6c0-0.3,0.1-0.5,0.2-0.6c0.2-0.2,0.4-0.2,0.6-0.2h2.3c0.4,0,0.7,0.1,0.9,0.2c0.2,0.1,0.4,0.3,0.5,0.6
				c0.2,0.3,0.3,0.6,0.6,0.9c0.2,0.3,0.5,0.5,0.9,0.8c0.4,0.2,0.8,0.4,1.4,0.5c0.6,0.1,1.3,0.2,2.1,0.2c0.7,0,1.3,0,1.9-0.1
				c0.6-0.1,1.2-0.3,1.6-0.5c0.5-0.2,0.8-0.5,1.1-0.9c0.3-0.3,0.4-0.8,0.4-1.3c0-0.5-0.2-0.9-0.5-1.2c-0.3-0.3-0.8-0.6-1.4-0.8
				c-0.6-0.2-1.4-0.4-2.3-0.6c-0.9-0.2-2-0.4-3.2-0.8c-1.1-0.3-2.1-0.6-2.9-0.9c-0.8-0.4-1.5-0.8-2-1.3c-0.5-0.5-0.9-1.1-1.2-1.9
				c-0.3-0.7-0.4-1.6-0.4-2.5c0-1,0.2-1.9,0.7-2.7c0.4-0.8,1-1.5,1.8-2.1c0.8-0.6,1.7-1.1,2.7-1.4C103.2,15.7,104.3,15.6,105.5,15.6
				z"/>
			<path class="st1" d="M126.8,15.6c1.5,0,2.8,0.2,3.9,0.6c1.1,0.4,2,0.9,2.8,1.5c0.7,0.6,1.3,1.2,1.7,2c0.4,0.7,0.6,1.4,0.6,2
				c0,0.3-0.1,0.5-0.2,0.6c-0.2,0.2-0.4,0.2-0.6,0.2h-2.3c-0.4,0-0.7-0.1-0.8-0.2c-0.2-0.1-0.4-0.3-0.5-0.6c-0.3-0.5-0.8-1-1.5-1.4
				c-0.7-0.4-1.7-0.6-3-0.6c-0.6,0-1.1,0.1-1.6,0.2c-0.5,0.1-1,0.3-1.3,0.5c-0.4,0.2-0.7,0.5-0.9,0.8c-0.2,0.3-0.3,0.7-0.3,1.1
				c0,0.5,0.1,0.9,0.3,1.2c0.2,0.3,0.6,0.6,1.1,0.8c0.5,0.2,1.1,0.4,2,0.6c0.8,0.2,1.8,0.4,3,0.7c1.3,0.3,2.4,0.6,3.4,1
				c1,0.4,1.7,0.8,2.3,1.4c0.6,0.5,1.1,1.2,1.3,1.9c0.3,0.7,0.4,1.5,0.4,2.4c0,1-0.2,1.9-0.7,2.7c-0.4,0.8-1.1,1.6-1.9,2.2
				c-0.8,0.6-1.8,1.1-3,1.4c-1.2,0.3-2.5,0.5-4,0.5c-1.2,0-2.4-0.1-3.5-0.4c-1.1-0.3-2.1-0.7-3-1.3c-0.9-0.6-1.6-1.2-2.1-2
				c-0.5-0.8-0.8-1.7-0.9-2.6c0-0.3,0.1-0.5,0.2-0.6c0.2-0.2,0.4-0.2,0.6-0.2h2.3c0.4,0,0.7,0.1,0.9,0.2c0.2,0.1,0.4,0.3,0.5,0.6
				c0.2,0.3,0.3,0.6,0.6,0.9c0.2,0.3,0.5,0.5,0.9,0.8c0.4,0.2,0.8,0.4,1.4,0.5c0.6,0.1,1.3,0.2,2.1,0.2c0.7,0,1.3,0,1.9-0.1
				c0.6-0.1,1.2-0.3,1.6-0.5c0.5-0.2,0.8-0.5,1.1-0.9c0.3-0.3,0.4-0.8,0.4-1.3c0-0.5-0.2-0.9-0.5-1.2c-0.3-0.3-0.8-0.6-1.4-0.8
				c-0.6-0.2-1.4-0.4-2.3-0.6c-0.9-0.2-2-0.4-3.2-0.8c-1.1-0.3-2.1-0.6-2.9-0.9c-0.8-0.4-1.5-0.8-2-1.3c-0.5-0.5-0.9-1.1-1.2-1.9
				c-0.3-0.7-0.4-1.6-0.4-2.5c0-1,0.2-1.9,0.7-2.7c0.4-0.8,1-1.5,1.8-2.1c0.8-0.6,1.7-1.1,2.7-1.4S125.6,15.6,126.8,15.6z"/>
		</g>
		<g>
			<path class="st1" d="M21.2,2.4c-0.4,0-0.7,0-1,0.1c-0.3,0.1-0.6,0.3-0.8,0.5c-0.2,0.2-0.4,0.5-0.5,0.8c-0.1,0.3-0.2,0.8-0.2,1.2
				c0,0.8,0,1.5,0,2.3c0,0.5,0.1,0.9,0.2,1.2c0.1,0.3,0.3,0.6,0.5,0.8c0.2,0.2,0.5,0.4,0.8,0.5c0.3,0.1,0.7,0.1,1,0.1
				c0.4,0,0.7-0.1,1-0.2c0.3-0.1,0.6-0.3,0.8-0.5c0.2-0.2,0.4-0.5,0.6-0.8c0.1-0.3,0.2-0.7,0.2-1.2V6.8h-2.2c-0.2,0-0.3-0.1-0.3-0.3
				V6.3c0-0.2,0.1-0.3,0.3-0.3h2.7c0.2,0,0.3,0.1,0.3,0.3v1.1c0,0.5-0.1,1-0.2,1.4c-0.2,0.4-0.4,0.8-0.7,1.1
				c-0.3,0.3-0.7,0.5-1.1,0.7c-0.4,0.2-0.9,0.2-1.5,0.2c-0.6,0-1-0.1-1.5-0.2c-0.4-0.2-0.8-0.4-1.1-0.7c-0.3-0.3-0.5-0.7-0.7-1.1
				c-0.1-0.4-0.2-0.9-0.2-1.4c0-0.4,0-0.8,0-1.2s0-0.8,0-1.2c0-0.5,0.1-1,0.3-1.4c0.2-0.4,0.4-0.8,0.7-1.1s0.6-0.5,1.1-0.7
				c0.4-0.2,0.9-0.2,1.4-0.2c0.6,0,1.1,0.1,1.5,0.3c0.4,0.2,0.8,0.4,1,0.6c0.3,0.2,0.5,0.5,0.6,0.8c0.1,0.3,0.2,0.5,0.2,0.7
				c0,0.1,0,0.1-0.1,0.2c-0.1,0-0.1,0.1-0.2,0.1h-0.3c-0.1,0-0.1,0-0.2-0.1c0,0-0.1-0.1-0.1-0.2c-0.1-0.2-0.2-0.4-0.3-0.6
				c-0.1-0.2-0.3-0.4-0.5-0.5c-0.2-0.1-0.4-0.3-0.7-0.4C21.9,2.5,21.6,2.4,21.2,2.4z"/>
			<path class="st1" d="M42.2,10c0.2,0,0.3,0.1,0.3,0.3v0.2c0,0.2-0.1,0.3-0.3,0.3h-5.1c-0.2,0-0.3-0.1-0.3-0.3V2.1
				c0-0.2,0.1-0.3,0.3-0.3h5c0.2,0,0.3,0.1,0.3,0.3v0.2c0,0.2-0.1,0.3-0.3,0.3h-4.5v3.3h4.2c0.2,0,0.3,0.1,0.3,0.3v0.2
				c0,0.2-0.1,0.3-0.3,0.3h-4.2V10H42.2z"/>
			<path class="st1" d="M60,10c0.2,0,0.3,0.1,0.3,0.3v0.2c0,0.2-0.1,0.3-0.3,0.3h-5.1c-0.2,0-0.3-0.1-0.3-0.3V2.1
				c0-0.2,0.1-0.3,0.3-0.3h5c0.2,0,0.3,0.1,0.3,0.3v0.2c0,0.2-0.1,0.3-0.3,0.3h-4.5v3.3h4.2c0.2,0,0.3,0.1,0.3,0.3v0.2
				c0,0.2-0.1,0.3-0.3,0.3h-4.2V10H60z"/>
			<path class="st1" d="M73.2,10h4.4c0.2,0,0.3,0.1,0.3,0.3v0.2c0,0.2-0.1,0.3-0.3,0.3h-4.9c-0.2,0-0.3-0.1-0.3-0.3V2.1
				c0-0.2,0.1-0.3,0.3-0.3h0.2c0.2,0,0.3,0.1,0.3,0.3V10z"/>
			<path class="st1" d="M92.6,1.7c0.5,0,0.9,0.1,1.4,0.2C94.3,2,94.7,2.2,95,2.5c0.3,0.3,0.5,0.7,0.7,1.1c0.2,0.4,0.3,1,0.3,1.6
				c0,0.4,0,0.7,0,1.1s0,0.7,0,1.1c0,1.2-0.3,2.1-0.9,2.7c-0.6,0.6-1.4,0.9-2.5,0.9c-1.1,0-1.9-0.3-2.5-0.9
				c-0.6-0.6-0.9-1.5-0.9-2.7c0-0.4,0-0.7,0-1.1s0-0.7,0-1.1c0-0.6,0.1-1.1,0.3-1.6c0.2-0.4,0.4-0.8,0.7-1.1c0.3-0.3,0.6-0.5,1-0.7
				C91.6,1.7,92,1.7,92.6,1.7z M92.6,2.4c-0.4,0-0.7,0.1-1,0.2c-0.3,0.1-0.6,0.3-0.8,0.5c-0.2,0.2-0.4,0.5-0.5,0.9
				C90.1,4.3,90,4.8,90,5.2c0,0.2,0,0.4,0,0.5c0,0.2,0,0.3,0,0.5s0,0.3,0,0.5c0,0.2,0,0.3,0,0.5c0,0.5,0.1,0.9,0.2,1.3
				c0.1,0.4,0.3,0.6,0.5,0.9c0.2,0.2,0.5,0.4,0.8,0.5c0.3,0.1,0.6,0.2,1,0.2c0.4,0,0.7-0.1,1-0.2c0.3-0.1,0.6-0.3,0.8-0.5
				c0.2-0.2,0.4-0.5,0.5-0.9c0.1-0.4,0.2-0.8,0.2-1.3c0-0.2,0-0.4,0-0.5c0-0.2,0-0.3,0-0.5s0-0.3,0-0.5c0-0.2,0-0.3,0-0.5
				c0-0.5-0.1-0.9-0.2-1.3c-0.1-0.4-0.3-0.7-0.5-0.9c-0.2-0.2-0.5-0.4-0.8-0.5C93.2,2.5,92.9,2.4,92.6,2.4z"/>
			<path class="st1" d="M109,3.4v7.1c0,0.2-0.1,0.3-0.3,0.3h-0.2c-0.2,0-0.3-0.1-0.3-0.3V2.1c0-0.2,0.1-0.3,0.3-0.3h0.3
				c0.1,0,0.1,0,0.2,0.1c0,0,0.1,0.1,0.1,0.1l4.7,7.2V2.1c0-0.2,0.1-0.3,0.3-0.3h0.2c0.2,0,0.3,0.1,0.3,0.3v8.4
				c0,0.2-0.1,0.3-0.3,0.3H114c-0.1,0-0.1,0-0.2-0.1c0,0-0.1-0.1-0.1-0.1L109,3.4z"/>
			<path class="st1" d="M130.3,2.4c-0.4,0-0.7,0-1,0.1c-0.3,0.1-0.6,0.3-0.8,0.5c-0.2,0.2-0.4,0.5-0.5,0.8c-0.1,0.3-0.2,0.8-0.2,1.2
				c0,0.8,0,1.5,0,2.3c0,0.5,0.1,0.9,0.2,1.2c0.1,0.3,0.3,0.6,0.5,0.8c0.2,0.2,0.5,0.4,0.8,0.5c0.3,0.1,0.7,0.1,1,0.1
				c0.4,0,0.7-0.1,1-0.2c0.3-0.1,0.6-0.3,0.8-0.5c0.2-0.2,0.4-0.5,0.6-0.8c0.1-0.3,0.2-0.7,0.2-1.2V6.8h-2.2c-0.2,0-0.3-0.1-0.3-0.3
				V6.3c0-0.2,0.1-0.3,0.3-0.3h2.7c0.2,0,0.3,0.1,0.3,0.3v1.1c0,0.5-0.1,1-0.2,1.4c-0.2,0.4-0.4,0.8-0.7,1.1
				c-0.3,0.3-0.7,0.5-1.1,0.7c-0.4,0.2-0.9,0.2-1.5,0.2c-0.6,0-1-0.1-1.5-0.2c-0.4-0.2-0.8-0.4-1.1-0.7s-0.5-0.7-0.7-1.1
				c-0.1-0.4-0.2-0.9-0.2-1.4c0-0.4,0-0.8,0-1.2s0-0.8,0-1.2c0-0.5,0.1-1,0.3-1.4c0.2-0.4,0.4-0.8,0.7-1.1s0.6-0.5,1.1-0.7
				c0.4-0.2,0.9-0.2,1.4-0.2c0.6,0,1.1,0.1,1.5,0.3c0.4,0.2,0.8,0.4,1,0.6c0.3,0.2,0.5,0.5,0.6,0.8c0.1,0.3,0.2,0.5,0.2,0.7
				c0,0.1,0,0.1-0.1,0.2c-0.1,0-0.1,0.1-0.2,0.1H133c-0.1,0-0.1,0-0.2-0.1c0,0-0.1-0.1-0.1-0.2c-0.1-0.2-0.2-0.4-0.3-0.6
				c-0.1-0.2-0.3-0.4-0.5-0.5s-0.4-0.3-0.7-0.4C131,2.5,130.6,2.4,130.3,2.4z"/>
		</g>
		<path class="st1" d="M23.4,43.7c0.6,0,1.2,0.4,1.4,1l2.1,5.7c0.2,0.5,0.5,1.4,0.7,1.9l0.4,1c0.2,0.5-0.1,1-0.7,1h-25
			c-0.6,0-0.9-0.4-0.7-1L5,44.7c0.2-0.5,0.8-1,1.4-1H23.4z"/>
		<g>
			<path class="st1" d="M135.4,43.7H36.5c-0.6,0-0.9,0.4-0.6,1l3.7,8.7c0.2,0.5,0.9,1,1.4,1h94.4c0.6,0,1-0.5,1-1v-8.6
				C136.5,44.2,136,43.7,135.4,43.7z"/>
		</g>
	</g>
</g>
</svg>
