<?xml version="1.0" encoding="UTF-8"?>
<svg id="svg464" xmlns="http://www.w3.org/2000/svg" xmlns:svg="http://www.w3.org/2000/svg" xmlns:sodipodi="http://sodipodi.sourceforge.net/DTD/sodipodi-0.dtd" xmlns:inkscape="http://www.inkscape.org/namespaces/inkscape" version="1.1" viewBox="0 0 1176.9 210">
  <!-- Generator: Adobe Illustrator 29.8.0, SVG Export Plug-In . SVG Version: 2.1.1 Build 160)  -->
  <defs>
    <style>
      .st0 {
        fill: #53565a;
      }
    </style>
  </defs>
  <sodipodi:namedview id="namedview466" bordercolor="#000000" borderopacity="0.25" inkscape:current-layer="svg464" inkscape:cx="218.3058" inkscape:cy="589.1266" inkscape:deskcolor="#d1d1d1" inkscape:pagecheckerboard="0" inkscape:pageopacity="0.0" inkscape:showpageshadow="2" inkscape:window-height="1772" inkscape:window-maximized="1" inkscape:window-width="3200" inkscape:window-x="3192" inkscape:window-y="-8" inkscape:zoom="0.8359833" pagecolor="#ffffff" showgrid="false"/>
  <g id="Fill_1">
    <path id="path416" class="st0" d="M199.3-362.5l-60.4,147.1h-1.1l-60.9-147.1h-38.7v194.2h26v-159.6h.6l64.7,159.6h17.3l64.7-159.7h.6v159.7h26v-194.2h-38.8Z" vector-effect="non-scaling-stroke"/>
  </g>
  <g id="Fill_2">
    <path id="path419" class="st0" d="M387.3-165.9h-24.6v-20h-.6c-3.4,7.2-9,13.1-16.1,16.8-8.1,4.4-17.3,6.6-26.5,6.4-6.1,0-12.2-.9-18.1-2.9-5.5-1.9-10.6-4.9-14.9-8.9-4.5-4.3-8-9.6-10.3-15.4-2.7-7.1-4-14.7-3.8-22.3v-83.3h24.6v76.6c-.1,5.3.7,10.5,2.5,15.5,1.4,3.9,3.6,7.4,6.6,10.4,2.7,2.6,5.9,4.6,9.4,5.7,3.6,1.2,7.3,1.8,11.1,1.8s9.7-.8,14.2-2.5c4.4-1.6,8.3-4.3,11.5-7.8,3.5-3.9,6.1-8.5,7.7-13.5,1.9-6.3,2.9-12.8,2.7-19.4v-66.8h24.6v129.6h0Z" vector-effect="non-scaling-stroke"/>
  </g>
  <g id="Fill_4">
    <path id="path427" class="st0" d="M441.9-166h-24.6v-129.6h24.6v129.6h0ZM429.6-324.1c-4.8,0-9.4-1.9-12.7-5.3-3.4-3.3-5.4-7.9-5.3-12.7,0-4.8,1.9-9.4,5.3-12.7,3.3-3.4,7.9-5.4,12.7-5.3,4.8,0,9.4,1.9,12.7,5.3,3.4,3.3,5.4,7.9,5.3,12.7,0,4.8-1.9,9.4-5.3,12.7-3.3,3.5-7.9,5.4-12.7,5.3Z" vector-effect="non-scaling-stroke"/>
  </g>
  <g id="Fill_6">
    <path id="path433" class="st0" d="M473.3-295.5h24.6v20h.6c1.7-3.5,3.9-6.7,6.6-9.4,2.7-2.8,5.8-5.3,9.1-7.3,3.5-2,7.2-3.7,11.1-4.8,3.9-1.2,7.9-1.8,12-1.8s7.4.5,11,1.7l-1.1,26.5c-2-.6-4-1-6-1.4s-4-.6-6-.6c-10.2-.7-20.2,3-27.6,10.1-6.4,6.7-9.6,17.2-9.6,31.4v65.1h-24.6v-129.5h-.1Z" vector-effect="non-scaling-stroke"/>
  </g>
  <g id="Fill_7">
    <path id="path439" class="st0" d="M566.8-372.7h24.6v97.1h.6c3.4-7.2,9-13.1,16.1-16.8,8.1-4.4,17.3-6.6,26.5-6.4,6.1,0,12.1,1,17.9,2.9,5.6,1.8,10.7,4.9,15,8.9,4.5,4.3,8,9.6,10.3,15.4,2.7,7.1,4,14.7,3.8,22.3v83.3h-24.6v-76.6c0-5.3-.7-10.5-2.5-15.5-1.4-3.9-3.6-7.4-6.6-10.4-2.7-2.6-5.9-4.6-9.4-5.7-3.6-1.2-7.3-1.8-11.1-1.8s-9.7.8-14.2,2.5c-4.4,1.6-8.3,4.3-11.5,7.8-3.5,3.9-6.1,8.5-7.7,13.5-1.9,6.3-2.9,12.8-2.7,19.4v66.8h-24.6v-206.7h.1Z" vector-effect="non-scaling-stroke"/>
  </g>
  <g id="Fill_8">
    <path id="path445" class="st0" d="M767.2-162.8c-9.5.1-18.9-1.6-27.8-5.2-8-3.2-15.1-8.1-21-14.4-5.8-6.2-10.3-13.6-13.3-21.6-3.1-8.6-4.7-17.8-4.6-26.9,0-9.2,1.6-18.4,5.1-26.9,3.2-8,8-15.4,13.9-21.6,6-6.2,13.2-11,21.2-14.4,8.5-3.5,17.6-5.3,26.8-5.2,10-.3,20,1.8,29.1,6,7.6,3.7,14.3,9.1,19.6,15.7,5.1,6.5,8.9,13.9,11.1,21.9,2.3,8.1,3.4,16.4,3.4,24.7v8.8h-104c0,5.4,1.2,10.7,3.7,15.4,2.4,4.6,5.7,8.6,9.7,11.9,4.2,3.4,8.9,6,13.9,7.7,5.3,1.8,10.8,2.7,16.4,2.7,7,.2,14-1.7,20-5.3,5.9-3.8,11.2-8.6,15.6-14.1l18.6,14.2c-6.5,8.5-14.9,15.3-24.6,19.9-10.3,4.7-21.5,6.9-32.8,6.7h0ZM766.9-279.3c-5.7,0-11.3,1.1-16.5,3.4-4.8,2.1-9.1,5.1-12.7,8.9-3.4,3.5-6.1,7.7-8.1,12.2-1.8,4.2-2.8,8.7-2.9,13.3h77.7c0-5.1-1-10.2-2.6-15.1-1.5-4.4-3.9-8.5-7-11.9-3.2-3.5-7.2-6.2-11.6-7.9-5.2-2-10.7-3-16.3-2.9h0Z" vector-effect="non-scaling-stroke"/>
  </g>
  <g id="Fill_9">
    <path id="path451" class="st0" d="M895-162.8c-9.1-.4-18-2.6-26.3-6.4-5.9-2.7-11.1-6.7-15.1-11.7-4.5-6-6.8-13.3-6.7-20.7,0-13.9,7.8-26.7,20.2-33,8.3-4.7,17.3-7.9,26.7-9.5,9.2-1.6,18.4-2.4,27.8-2.3h18v-5.5c0-3.4-.7-6.7-1.9-9.8-1.3-3.3-3.3-6.3-5.7-8.9-2.7-2.7-6-4.9-9.6-6.3-4.4-1.6-9-2.4-13.7-2.3-4.2,0-8.4.4-12.4,1.4-3.3.8-6.6,2-9.7,3.4-2.8,1.3-5.5,2.9-7.9,4.8s-4.7,3.6-6.8,5.2l-14.8-15.3c6.9-6.4,15.1-11.3,24.1-14.4,8.8-3.1,18-4.7,27.3-4.8,8.3-.2,16.6,1,24.5,3.6,6.2,2,11.9,5.3,16.8,9.6,4.2,3.8,7.5,8.5,9.7,13.8,2.1,5.2,3.2,10.7,3.1,16.3v66.2c0,4.5,0,8.8.3,12.6s.5,7.5.8,10.9h-21.9c-.6-6.5-.8-13.1-.8-19.7h-.6c-4.7,7.6-11.4,13.8-19.4,17.8-8.2,3.4-17.1,5.2-26,5h0ZM926.5-228.4c-6,0-12,.3-17.9,1-5.7.6-11.3,1.8-16.6,3.7-4.6,1.6-8.8,4.2-12.3,7.7-3.2,3.4-4.9,7.9-4.8,12.6-.5,6.3,2.3,12.5,7.5,16.1,6.2,3.6,13.2,5.3,20.4,4.9,5.9.2,11.8-1,17.2-3.4,4.4-2.1,8.4-5.1,11.5-8.9,2.9-3.6,5-7.7,6.3-12.2,1.3-4.3,1.9-8.8,1.9-13.3v-8.2h-13.2Z" vector-effect="non-scaling-stroke"/>
  </g>
  <g id="Fill_10">
    <path id="path457" class="st0" d="M1048.8-162.7c-9.3.1-18.6-1.6-27.2-5.2-7.9-3.3-15-8.2-20.8-14.5s-10.3-13.6-13.3-21.6c-3.2-8.6-4.7-17.7-4.7-26.8s1.5-18.3,4.7-26.9c2.9-8,7.4-15.4,13.3-21.6,5.9-6.2,12.9-11.1,20.8-14.4,8.6-3.6,17.9-5.3,27.2-5.2,9.1,0,18.1,2,26.3,5.9,7.7,3.5,14.2,9,18.9,16h.6v-95.7h24.6v206.7h-24.6v-18.6h-.6c-4.9,7.1-11.7,12.6-19.5,16.1-8.1,3.8-16.8,5.8-25.7,5.8h0ZM1051.8-275.9c-6.1,0-12.1,1.1-17.8,3.4-5.1,2.1-9.6,5.3-13.4,9.3-3.8,4.1-6.6,9-8.5,14.2-4,11.8-4,24.6,0,36.4,1.8,5.3,4.7,10.1,8.5,14.2,3.8,4,8.3,7.2,13.4,9.3,5.6,2.3,11.7,3.5,17.8,3.4,6.1.1,12.1-1.1,17.8-3.4,5.1-2.1,9.6-5.3,13.4-9.3,3.8-4.1,6.6-9,8.5-14.2,4-11.8,4-24.6,0-36.4-1.8-5.3-4.7-10.1-8.5-14.2-3.8-4-8.3-7.2-13.4-9.3-5.6-2.3-11.7-3.5-17.8-3.4h0Z" vector-effect="non-scaling-stroke"/>
  </g>
  <g>
    <polygon class="st0" points="196.9 13.1 135.9 159.7 134.8 159.7 73.3 13.1 34.2 13.1 34.2 206.7 60.4 206.7 60.4 47.6 61 47.6 126.3 206.7 143.9 206.7 209.2 47.6 209.8 47.6 209.8 206.7 236 206.7 236 13.1 196.9 13.1"/>
    <path class="st0" d="M383.4,206.7h-24.6v-20h-.6c-3.1,6.9-8.5,12.5-16.1,16.8-7.7,4.3-16.5,6.4-26.5,6.4s-12.4-.9-18.1-2.9c-5.7-1.9-10.6-4.9-14.9-8.9-4.3-4-7.7-9.2-10.3-15.5-2.5-6.3-3.8-13.7-3.8-22.3v-83.4h24.6v76.6c0,6,.8,11.2,2.5,15.4,1.6,4.3,3.8,7.8,6.6,10.4,2.7,2.6,5.9,4.6,9.4,5.7,3.6,1.2,7.3,1.8,11.1,1.8s9.8-.8,14.2-2.5c4.4-1.6,8.2-4.2,11.5-7.8,3.3-3.6,5.8-8.1,7.7-13.5,1.8-5.5,2.7-11.9,2.7-19.4v-66.7h24.6v129.7Z"/>
    <path class="st0" d="M407.7,30.6c0-4.9,1.8-9.2,5.3-12.7,3.6-3.6,7.8-5.3,12.7-5.3s9.2,1.8,12.7,5.3c3.6,3.6,5.3,7.8,5.3,12.7s-1.8,9.2-5.3,12.7c-3.6,3.6-7.8,5.3-12.7,5.3s-9.2-1.8-12.7-5.3c-3.6-3.5-5.3-7.8-5.3-12.7M438.1,206.8h-24.6V77.1h24.6v129.6Z"/>
    <path class="st0" d="M469.5,77.1h24.6v20h.6c1.6-3.5,3.8-6.6,6.6-9.4,2.7-2.8,5.8-5.2,9.2-7.3,3.4-2,7.1-3.6,11.1-4.8,4-1.2,8-1.8,12-1.8s7.7.5,10.9,1.6l-1.1,26.5c-2-.6-4-1-6-1.4-2-.4-4-.6-6-.6-12,0-21.2,3.4-27.6,10.1-6.4,6.7-9.6,17.2-9.6,31.4v65.1h-24.6V77.1Z"/>
    <path class="st0" d="M562.9,0h24.6v97.1h.6c3.1-6.9,8.5-12.5,16.1-16.8,7.7-4.3,16.5-6.4,26.5-6.4s12.2,1,17.9,2.9c5.7,1.9,10.8,4.9,15.1,8.9,4.3,4,7.7,9.2,10.3,15.5,2.5,6.3,3.8,13.7,3.8,22.3v83.4h-24.6v-76.6c0-6-.8-11.2-2.5-15.5-1.6-4.3-3.8-7.7-6.6-10.4-2.7-2.6-5.9-4.6-9.4-5.7-3.6-1.2-7.2-1.8-11.1-1.8s-9.9.8-14.2,2.5c-4.4,1.6-8.2,4.2-11.5,7.8-3.3,3.6-5.8,8.1-7.7,13.5-1.8,5.5-2.7,11.9-2.7,19.4v66.7h-24.6V0Z"/>
    <path class="st0" d="M722.9,151c0,5.6,1.2,10.8,3.7,15.4,2.5,4.6,5.7,8.6,9.7,11.9,4,3.3,8.7,5.8,14,7.7,5.3,1.8,10.8,2.7,16.4,2.7s14.3-1.8,20-5.3c5.6-3.6,10.8-8.3,15.6-14.1l18.6,14.2c-13.7,17.7-32.8,26.5-57.4,26.5s-19.5-1.7-27.8-5.2c-8.3-3.5-15.3-8.2-21.1-14.4-5.7-6.1-10.2-13.3-13.3-21.6-3.1-8.3-4.7-17.3-4.7-26.9s1.7-18.6,5.1-26.9c3.4-8.3,8-15.5,14-21.6,5.9-6.1,13-10.9,21.2-14.4s17.1-5.2,26.8-5.2,21.2,2,29.1,6c7.9,4,14.5,9.3,19.6,15.7,5.1,6.5,8.8,13.8,11.1,21.9,2.3,8.1,3.4,16.4,3.4,24.7v8.8h-103.9ZM800.6,131.3c-.2-5.5-1-10.5-2.6-15.1-1.6-4.6-3.9-8.5-7-11.9-3.1-3.4-7-6-11.6-7.9-4.6-1.9-10.1-2.9-16.3-2.9s-11.5,1.1-16.6,3.4c-5,2.3-9.3,5.2-12.7,8.9-3.5,3.6-6.2,7.7-8.1,12.2-1.9,4.5-2.9,8.9-2.9,13.3h77.7Z"/>
    <path class="st0" d="M853.3,93c6.9-6.4,15-11.2,24.1-14.4,9.1-3.2,18.2-4.8,27.3-4.8s17.6,1.2,24.5,3.6c6.8,2.4,12.4,5.6,16.8,9.6,4.4,4,7.6,8.6,9.7,13.8,2.1,5.2,3.1,10.6,3.1,16.3v66.2c0,4.6,0,8.8.3,12.6.2,3.8.4,7.5.8,10.9h-21.9c-.6-6.6-.8-13.1-.8-19.7h-.6c-5.5,8.4-11.9,14.3-19.4,17.8-7.5,3.5-16.1,5.2-26,5.2s-48.1-4.1-48.1-38.8,38.2-41,46.9-42.5c8.7-1.5,17.9-2.3,27.8-2.3h18v-5.5c0-3.3-.6-6.6-1.9-9.8-1.3-3.3-3.2-6.2-5.7-8.9-2.5-2.6-5.7-4.7-9.6-6.3-3.8-1.5-8.4-2.3-13.7-2.3s-8.9.4-12.5,1.4c-3.6.9-6.8,2.1-9.7,3.4-2.9,1.4-5.6,3-7.9,4.8-2.4,1.8-4.6,3.6-6.8,5.2l-14.8-15.3ZM922.8,144.4c-5.8,0-11.8.3-17.9,1-6.1.6-11.7,1.9-16.7,3.7-5,1.8-9.1,4.4-12.3,7.7-3.2,3.3-4.8,7.5-4.8,12.6,0,7.5,2.5,12.8,7.5,16.1,5,3.3,11.8,4.9,20.4,4.9s12.5-1.1,17.2-3.4c4.7-2.3,8.6-5.2,11.5-8.9,2.9-3.6,5-7.7,6.3-12.2,1.3-4.5,1.9-8.9,1.9-13.3v-8.2h-13.1Z"/>
    <path class="st0" d="M1115.6,206.7h-24.6v-18.6h-.6c-4.7,6.9-11.3,12.3-19.6,16.1-8.3,3.8-16.8,5.8-25.6,5.8s-19.1-1.7-27.2-5.2c-8.1-3.5-15.1-8.3-20.8-14.5-5.7-6.2-10.2-13.4-13.3-21.6-3.1-8.2-4.6-17.1-4.6-26.8s1.5-18.6,4.6-26.9c3.1-8.3,7.5-15.5,13.3-21.6,5.7-6.1,12.7-10.9,20.8-14.4,8.1-3.5,17.2-5.2,27.2-5.2s18.1,2,26.3,5.9c8.2,3.9,14.5,9.3,18.9,16h.6V0h24.6v206.8ZM1048.3,187.1c6.6,0,12.5-1.1,17.8-3.4,5.3-2.3,9.8-5.4,13.4-9.3,3.6-3.9,6.5-8.7,8.5-14.2,2-5.6,3-11.6,3-18.2s-1-12.6-3-18.2c-2-5.6-4.8-10.3-8.5-14.2-3.7-3.9-8.1-7-13.4-9.3-5.3-2.3-11.2-3.4-17.8-3.4s-12.5,1.1-17.8,3.4c-5.3,2.3-9.8,5.4-13.4,9.3-3.7,3.9-6.5,8.7-8.5,14.2-2,5.6-3,11.6-3,18.2s1,12.6,3,18.2c2,5.6,4.8,10.3,8.5,14.2,3.6,3.9,8.1,7,13.4,9.3,5.3,2.3,11.2,3.4,17.8,3.4"/>
    <path class="st0" d="M1147.5,188.7c1,0,1.7-.2,2.2-.7.5-.4.8-1,.8-1.8,0-1.7-1-2.6-3-2.6h-2.2v5.1h2.2ZM1145.3,197.8h-3.2v-17h5.9c.8,0,1.6.1,2.3.4.7.3,1.3.6,1.8,1.1.5.5.9,1,1.2,1.7.3.7.4,1.4.4,2.1,0,1.2-.3,2.2-1,3.1-.7.9-1.6,1.5-2.7,1.9l3.8,6.6h-3.7l-3.6-6.4h-1.3v6.4ZM1135.1,189.4c0,1.8.3,3.4.9,5,.6,1.5,1.5,2.9,2.6,4,1.1,1.1,2.4,2,3.9,2.6,1.5.7,3,1,4.7,1s3.3-.3,4.7-1c1.5-.6,2.8-1.5,3.9-2.6,1.1-1.1,2-2.4,2.6-4,.6-1.5.9-3.2.9-5s-.3-3.4-.9-5c-.6-1.5-1.5-2.9-2.6-4-1.1-1.1-2.4-2-3.9-2.6-1.5-.6-3.1-1-4.7-1s-3.3.3-4.7,1c-1.5.6-2.8,1.5-3.9,2.6-1.1,1.1-2,2.4-2.6,4-.6,1.5-.9,3.2-.9,5M1131.8,189.4c0-2.2.4-4.2,1.2-6.1.8-1.9,1.9-3.5,3.3-5,1.4-1.4,3-2.5,4.9-3.4,1.9-.8,3.9-1.2,6-1.2s4.2.4,6.1,1.2c1.9.8,3.5,1.9,4.9,3.4,1.4,1.4,2.5,3.1,3.3,5,.8,1.9,1.2,3.9,1.2,6.1s-.4,4.2-1.2,6.1c-.8,1.9-1.9,3.6-3.3,5-1.4,1.4-3,2.5-4.9,3.4-1.9.8-3.9,1.2-6.1,1.2s-4.2-.4-6-1.2c-1.9-.8-3.5-2-4.9-3.4-1.4-1.4-2.5-3.1-3.3-5-.8-1.9-1.2-3.9-1.2-6.1"/>
  </g>
</svg>