<?xml version="1.0" encoding="UTF-8"?>
<svg id="Layer_1" data-name="Layer 1" xmlns="http://www.w3.org/2000/svg" version="1.1" viewBox="0 0 935.4 170.1">
  <defs>
    <style>
      .cls-1 {
        fill: #7ac143;
        stroke-width: 0px;
      }
    </style>
  </defs>
  <g>
    <path class="cls-1" d="M47.6,108.4c-4.2,0-6.2-3.5-4.4-7.7l13.8-31.7c1.8-4.2,6.8-7.7,11.1-7.7h33.7c4.2,0,7.2,1.4,6.5,3.1-.7,1.7,2.1,2.1,6.2.8,0,0,6.7-2.1,14.3-3.3,7.7-1.2,16-1.8,25.1-1.8,14.1,0,25.3,1.3,33.6,4,8.3,2.7,12.5,6.3,12.5,10.9s0,1.8-.5,2.8c-.4,1-9.9,22.6-9.9,22.6-1.8,4.3-6.7,7.8-10.9,7.8h-38.2c-4.2,0-6.3-3.5-4.5-7.8l8.6-19.8s.3-.6.3-1.4c0-1.5-1.6-2.8-4.8-3.8-3.1-1-7.2-1.5-12.4-1.5s-11.9.8-15.8,2.3c-3.8,1.5-6.4,3.8-7.8,7l-7.3,17.3c-1.8,4.3-6.7,7.7-11,7.7h-38.4Z"/>
    <path class="cls-1" d="M415,89.9c0,.2-.2.5-.2.9,0,1.4,1.3,2.4,3.6,2.9,2.4.6,6.2.8,11.6.8h6.5l-2.4,5.6c-1.8,4.2-6.7,7.8-11,7.9,0,0-2.9,0-7.9.2-5,.1-9.8.2-14.5.2-12.9,0-23-.9-30.1-2.8-7.1-1.8-10.7-4.5-10.7-8s.1-1.4.4-2.3c.3-.8.6-1.8,1.2-3l5.2-12.7c1.7-4.3-.3-7.8-4.5-7.8h-12.2c-4.2,0-9.2,3.5-11,7.7l-9,21.1c-1.8,4.2-6.8,7.7-11,7.7h-38.6c-4.2,0-6.2-3.5-4.4-7.7l9.1-21.1c1.8-4.2-.1-7.7-4.4-7.7h-4c-4.2,0-6.7-2.4-5.4-5.3,1.2-2.9,5.7-5.3,10-5.3h3.7c4.2,0,9.8-3.1,12.3-6.9,0,0,3.4-5.1,11.9-7.8,8.5-2.7,22.6-4.1,42.2-4.1s8.4,0,12.6.1c4.2,0,8.3.3,12.3.6l-1.6,3.5c-1.9,4.2-4.3,7.6-5.4,7.5h-6.1c-5.9,0-8.7.5-11.4,1.6-2.7,1.1-4.3,2.9-5,5.5h20c4.2,0,9.1-3.2,10.8-7.2,1.7-3.9,6.6-7.1,10.8-7.1h36.9c4.2,0,6.3,3.2,4.6,7.1-1.7,3.9.3,7.2,4.6,7.2h46.5c4.2,0,9,3.5,10.7,7.9l5.3,14c1.6,4.3,5.8,5.6,9.2,2.8l23.9-19.6c3.4-2.8,9.7-5.1,13.9-5.1h39c4.2,0,4.8,2,1.2,4.5l-62.5,43.3c-3.6,2.5-9.6,6.3-13.4,8.4,0,0-8.6,4.9-17.3,6.9-8.7,2-20.1,3-34.1,3s-7.4,0-12.3-.2c-4.8-.1-10.4-.4-16.6-.6l2.1-5c1.8-4.3,6.7-7.6,10.9-7.5,0,0,.6,0,2.7,0,2.2,0,3.9,0,5.4,0,5.2,0,9.1-.4,11.7-1.2,2.6-.8,3.9-2,3.9-3.6s-.2-1.4-.4-2.2c-.3-.8-.7-1.6-1.2-2.4l-20-33.1h-13.1c-4.2,0-9.1,3.5-10.9,7.8,0,0-4.2,10-4.2,10.2Z"/>
    <g>
      <path class="cls-1" d="M203,108.4c-4.2,0-6.2-3.5-4.4-7.7l13.8-31.7c1.8-4.2,6.8-7.7,11-7.7h38.2c4.2,0,6.2,3.5,4.4,7.7l-13.6,31.6c-1.8,4.2-6.8,7.7-11,7.7h-38.3Z"/>
      <path class="cls-1" d="M224.5,55.7c-3.5,0-5-2.9-3.3-6.5h0c1.7-3.7,5.9-6.6,9.4-6.6h40.5c3.5,0,5.1,3,3.5,6.6-1.5,3.6-5.7,6.6-9.2,6.6h-41Z"/>
    </g>
  </g>
  <g>
    <path class="cls-1" d="M582.4,108.3c-4.2,0-6.2-3.5-4.4-7.7l21.8-50.4c1.8-4.2,6.8-7.7,11-7.7h42.2c4.2,0,6.2,3.5,4.4,7.7l-21.7,50.4c-1.8,4.2-6.8,7.7-11,7.7h-42.3Z"/>
    <path class="cls-1" d="M887.2,61.3c4.2,0,6.7,2.4,5.4,5.3-1.2,2.9-5.7,5.3-10,5.3h-6.4c-4.2,0-9.1,3.5-10.9,7.8,0,0-4.2,10-4.2,10.2,0,.2-.2.5-.2.9,0,1.4,1.3,2.4,3.6,2.9,2.4.6,6.2.8,11.6.8h6.5l-2.4,5.6c-1.8,4.2-6.7,7.8-11,7.9,0,0-2.9,0-7.9.2-5,.1-9.8.2-14.5.2-12.9,0-23-.9-30.1-2.8-7.1-1.8-10.7-4.5-10.7-8s.1-1.4.4-2.3c.3-.8.6-1.8,1.2-3l5.2-12.7c1.7-4.3-.3-7.8-4.5-7.8h-12.2c-4.2,0-9.2,3.5-11,7.7l-9,21.1c-1.8,4.2-6.8,7.7-11,7.7h-38.6c-4.2,0-6.2-3.5-4.4-7.7l9.1-21.1c1.8-4.2-.1-7.7-4.4-7.7h-4c-4.2,0-6.7-2.4-5.4-5.3,1.2-2.9,5.7-5.3,10-5.3h3.7c4.3,0,9.8-3.1,12.3-6.9,0,0,3.4-5.1,11.9-7.8,8.5-2.7,22.6-4.1,42.2-4.1s8.4,0,12.6.1c4.2,0,8.3.3,12.3.6l-1.6,3.5c-1.9,4.2-4.3,7.6-5.4,7.5h-6.1c-5.9,0-8.7.5-11.4,1.6-2.7,1.1-4.3,2.9-5,5.5h20c4.2,0,9.1-3.2,10.8-7.2,1.7-3.9,6.6-7.1,10.8-7.1h36.9c4.2,0,6.3,3.2,4.6,7.1-1.7,3.9.3,7.2,4.6,7.2h6.4Z"/>
    <g>
      <path class="cls-1" d="M649.1,108.4c-4.2,0-6.2-3.5-4.4-7.7l13.8-31.7c1.8-4.2,6.8-7.7,11-7.7h38.2c4.2,0,6.2,3.5,4.4,7.7l-13.6,31.6c-1.8,4.2-6.8,7.7-11,7.7h-38.3Z"/>
      <path class="cls-1" d="M670.8,55.7c-3.5,0-5-2.9-3.3-6.5h0c1.7-3.7,5.9-6.6,9.4-6.6h40.5c3.5,0,5.1,3,3.5,6.6-1.5,3.6-5.7,6.6-9.2,6.6h-41Z"/>
    </g>
  </g>
</svg>