<svg xmlns="http://www.w3.org/2000/svg" xmlns:xlink="http://www.w3.org/1999/xlink" width="29" height="29" viewBox="0 0 29 29"><defs><clipPath id="a"><path d="M0,0H29V29H0Z" fill="none"/></clipPath></defs><path d="M0,0H29V29H0Z" fill="none"/><g clip-path="url(#a)"><path d="M21.65,29a.613.613,0,0,1-.547-.335L15.8,18.076,9.158,23.723a7.294,7.294,0,0,1,.391,2.248,2.1,2.1,0,0,1-.412,1.3,1.748,1.748,0,0,1-1.4.6,2.455,2.455,0,0,1-1.54-.535L1.671,22.817a2.268,2.268,0,0,1-.544-1.551,1.747,1.747,0,0,1,.6-1.4,2.116,2.116,0,0,1,1.3-.412h.1a7.474,7.474,0,0,1,2.15.39L10.923,13.2.33,7.894A.61.61,0,0,1,.056,7.1l1.13-2.257a.6.6,0,0,1,.532-.327.578.578,0,0,1,.117.012L16.549,7.475c1.5-1.6,4.272-4.3,5.395-5.392l.038-.037A6.265,6.265,0,0,1,26.151,0a2.9,2.9,0,0,1,2.067.779A2.905,2.905,0,0,1,29,2.849a6.241,6.241,0,0,1-2.037,4.159c-.018.02-3.5,3.634-5.438,5.443l2.948,14.716a.6.6,0,0,1-.316.649L21.9,28.942A.577.577,0,0,1,21.65,29ZM15.995,16.547a.667.667,0,0,1,.125.012.6.6,0,0,1,.419.313L21.9,27.61l1.325-.662-2.916-14.59a.6.6,0,0,1,.167-.538c1.98-1.838,5.587-5.6,5.618-5.63a5.252,5.252,0,0,0,1.716-3.342,1.738,1.738,0,0,0-.442-1.221,1.732,1.732,0,0,0-1.219-.441,5.5,5.5,0,0,0-3.332,1.707l-.048.037s-.111.109-.29.283c-.939.911-3.8,3.685-5.3,5.3a.611.611,0,0,1-.432.181.584.584,0,0,1-.11-.01L2.051,5.773,1.389,7.1,12.13,12.462a.583.583,0,0,1,.31.418.6.6,0,0,1-.126.509L5.926,20.9a.6.6,0,0,1-.448.2.578.578,0,0,1-.185-.03,7.472,7.472,0,0,0-2.129-.437l-.1,0a1.054,1.054,0,0,0-.589.151c-.083.067-.165.159-.165.477a1.276,1.276,0,0,0,.257.76l4.436,4.431a1.261,1.261,0,0,0,.727.23c.315,0,.409-.082.477-.166a1.052,1.052,0,0,0,.151-.588,7.236,7.236,0,0,0-.435-2.227.6.6,0,0,1,.167-.629l7.52-6.394A.571.571,0,0,1,15.995,16.547Z" fill="#53565a"/></g></svg>