<?xml version="1.0" encoding="utf-8"?>
<!-- Generator: Adobe Illustrator 27.8.0, SVG Export Plug-In . SVG Version: 6.00 Build 0)  -->
<svg version="1.1" id="Layer_1" xmlns="http://www.w3.org/2000/svg" xmlns:xlink="http://www.w3.org/1999/xlink" x="0px" y="0px"
	 viewBox="0 0 100 100" style="enable-background:new 0 0 100 100;" xml:space="preserve">
<style type="text/css">
	.st0{fill:#FFFFFF;}
</style>
<g>
	<g>
		<path class="st0" d="M80.5,30.7c-0.7,0-1.2-0.6-1.2-1.2v-19c0-1.8-1.4-2.8-2.8-2.8h-53c-1.8,0-2.8,1.4-2.8,2.8v19
			c0,0.7-0.6,1.2-1.2,1.2s-1.2-0.6-1.2-1.2v-19c0-2.6,2-5.2,5.2-5.2h53c2.6,0,5.2,2,5.2,5.2v19C81.7,30.2,81.2,30.7,80.5,30.7z"/>
		<path class="st0" d="M63.5,30.7c-0.7,0-1.2-0.6-1.2-1.2v-23c0-0.7,0.6-1.2,1.2-1.2s1.2,0.6,1.2,1.2v23
			C64.7,30.2,64.2,30.7,63.5,30.7z"/>
		<path class="st0" d="M36.5,30.7c-0.7,0-1.2-0.6-1.2-1.2v-23c0-0.7,0.6-1.2,1.2-1.2s1.2,0.6,1.2,1.2v23
			C37.7,30.2,37.2,30.7,36.5,30.7z"/>
		<path class="st0" d="M84,40.2H16c-0.7,0-1.2-0.6-1.2-1.2v-9.5c0-0.7,0.6-1.2,1.2-1.2h68c0.7,0,1.2,0.6,1.2,1.2V39
			C85.2,39.7,84.7,40.2,84,40.2z M17.2,37.8h65.5v-7H17.2V37.8z"/>
		<path class="st0" d="M80.5,19.2h-61c-0.7,0-1.2-0.6-1.2-1.2s0.6-1.2,1.2-1.2h61c0.7,0,1.2,0.6,1.2,1.2S81.2,19.2,80.5,19.2z"/>
		<path class="st0" d="M57.5,91.1h-15c-0.7,0-1.2-0.6-1.2-1.2v-7.5c0-0.7,0.6-1.2,1.2-1.2h15c0.7,0,1.2,0.6,1.2,1.2v7.5
			C58.7,90.6,58.2,91.1,57.5,91.1z M43.7,88.7h12.5v-5H43.7V88.7z"/>
		<path class="st0" d="M29,94.7c-4.3,0-7.7-3.5-7.7-7.7s3.5-7.7,7.7-7.7s7.7,3.5,7.7,7.7S33.3,94.7,29,94.7z M29,81.7
			c-2.9,0-5.3,2.4-5.3,5.3s2.4,5.3,5.3,5.3s5.3-2.4,5.3-5.3S31.9,81.7,29,81.7z"/>
		<path class="st0" d="M84,87.2h-7.5c-0.7,0-1.2-0.6-1.2-1.2s0.6-1.2,1.2-1.2h6.3v-8.5H17.2v8.5h6.3c0.7,0,1.2,0.6,1.2,1.2
			s-0.6,1.2-1.2,1.2H16c-0.7,0-1.2-0.6-1.2-1.2V75c0-0.7,0.6-1.2,1.2-1.2h68c0.7,0,1.2,0.6,1.2,1.2v11C85.2,86.7,84.7,87.2,84,87.2z
			"/>
		<path class="st0" d="M65,87.2h-7.5c-0.7,0-1.2-0.6-1.2-1.2s0.6-1.2,1.2-1.2H65c0.7,0,1.2,0.6,1.2,1.2S65.7,87.2,65,87.2z"/>
		<path class="st0" d="M42.5,87.2H35c-0.7,0-1.2-0.6-1.2-1.2s0.6-1.2,1.2-1.2h7.5c0.7,0,1.2,0.6,1.2,1.2S43.2,87.2,42.5,87.2z"/>
		<path class="st0" d="M71,94.7c-4.3,0-7.7-3.5-7.7-7.7s3.5-7.7,7.7-7.7s7.7,3.5,7.7,7.7S75.3,94.7,71,94.7z M71,81.7
			c-2.9,0-5.3,2.4-5.3,5.3s2.4,5.3,5.3,5.3s5.3-2.4,5.3-5.3S73.9,81.7,71,81.7z"/>
		<path class="st0" d="M72.5,76.2c-0.2,0-0.3,0-0.5-0.1l-41.5-18c-0.5-0.2-0.7-0.6-0.7-1.1s0.3-0.9,0.7-1.1l41.5-18
			c0.6-0.3,1.4,0,1.6,0.6c0.3,0.6,0,1.3-0.6,1.6L34.1,57L73,73.9c0.6,0.3,0.9,1,0.6,1.6C73.4,76,73,76.2,72.5,76.2z"/>
		<path class="st0" d="M27.5,76.2c-0.5,0-0.9-0.3-1.1-0.7c-0.3-0.6,0-1.3,0.6-1.6L65.9,57L27,40.1c-0.6-0.3-0.9-1-0.6-1.6
			c0.3-0.6,1-0.9,1.6-0.6l41.5,18c0.5,0.2,0.7,0.6,0.7,1.1s-0.3,0.9-0.7,1.1L28,76.1C27.8,76.2,27.7,76.2,27.5,76.2z"/>
	</g>
</g>
</svg>
