<?xml version="1.0" encoding="UTF-8"?>
<svg id="Layer_1" data-name="Layer 1" xmlns="http://www.w3.org/2000/svg" viewBox="0 0 250 250">
  <defs>
    <style>
      .cls-1 {
        fill: #fff;
        fill-rule: evenodd;
      }
    </style>
  </defs>
  <path class="cls-1" d="M226.56,234.55c-2.13,0-4.14-.83-5.65-2.34l-53.28-53.28c-.28-.28-.54-.58-.77-.89l-1.24-1.67-1.62,1.31c-16.15,13.06-36.5,20.25-57.31,20.25-50.31,0-91.24-40.93-91.24-91.24S56.38,15.45,106.69,15.45s91.24,40.93,91.24,91.24c0,20.81-7.19,41.17-20.25,57.31l-1.31,1.62,1.67,1.24c.31.23.61.49.89.77l53.28,53.28c3.12,3.12,3.12,8.18,0,11.3-1.51,1.51-3.52,2.34-5.65,2.34ZM106.69,31.43c-41.5,0-75.26,33.76-75.26,75.26s33.76,75.26,75.26,75.26,75.26-33.76,75.26-75.26S148.18,31.43,106.69,31.43Z"/>
</svg>