<?xml version="1.0" encoding="UTF-8"?>
<svg id="Layer_1" data-name="Layer 1" xmlns="http://www.w3.org/2000/svg" version="1.1" viewBox="0 0 270 82.4">
  <defs>
    <style>
      .cls-1 {
        fill: #e63c2f;
      }

      .cls-1, .cls-2 {
        stroke-width: 0px;
      }

      .cls-2 {
        fill: #6f7271;
      }
    </style>
  </defs>
  <g>
    <path class="cls-1" d="M138,69.6c0,1.1-.4,1.9-1.2,2.5-.8.6-1.9.9-3.2.9s-1.8-.1-2.5-.3c-.7-.2-1.3-.6-1.9-1.2l1.7-1.7c.6.6,1.6,1,2.8,1s.9,0,1.3-.3c.4-.2.5-.4.5-.8,0-.6-.4-.9-1.1-1l-1.6-.2c-2-.2-3-1.2-3-2.9s.4-1.8,1.2-2.4c.8-.6,1.7-.9,2.8-.9,1.8,0,3.1.4,3.9,1.2l-1.6,1.6c-.5-.5-1.3-.7-2.4-.7s-.9,0-1.1.3c-.2.2-.4.4-.4.7,0,.5.4.8,1.1.9l1.6.2c1,0,1.8.4,2.3.9.5.5.8,1.2.8,2.1Z"/>
    <path class="cls-1" d="M142.5,60.8h-2.6v-2.1h2.6v2.1ZM142.4,72.9h-2.6v-10.3h2.6v10.3Z"/>
    <path class="cls-1" d="M159.6,72.9h-2.6v-6.2c0-.6-.2-1.1-.5-1.4-.3-.3-.7-.5-1.2-.5s-.9.1-1.2.4c-.3.3-.5.8-.5,1.4v6.3h-2.6v-6.2c0-.6-.2-1.1-.5-1.4-.3-.3-.7-.5-1.2-.5s-.9.2-1.2.5c-.3.3-.5.8-.5,1.4v6.2h-2.6v-10.3h2.5v1c.7-.7,1.5-1.1,2.6-1.1s2.1.4,2.7,1.3c.8-.9,1.9-1.3,3.1-1.3s1.9.3,2.5.9c.8.8,1.1,1.7,1.1,2.9v6.6Z"/>
    <path class="cls-1" d="M170.6,66.1c0,.4,0,.9,0,1.6s0,1.2,0,1.6c0,.4-.1.9-.3,1.4-.2.6-.4,1-.7,1.3-.6.6-1.5.9-2.5.9s-1.9-.3-2.5-1v4.7h-2.6v-14.1h2.5v1c.6-.7,1.5-1.1,2.6-1.1s1.9.3,2.5.9c.3.3.6.7.7,1.3.2.5.3,1,.3,1.4ZM168.1,67.7c0-1-.1-1.7-.3-2.2-.2-.5-.7-.7-1.4-.7s-1.2.2-1.4.7c-.2.5-.3,1.2-.3,2.2s0,.9,0,1.2c0,.3.1.6.2.9.1.3.3.5.5.7.2.1.5.2.9.2s.7,0,.9-.2c.2-.2.4-.4.5-.7.1-.3.2-.6.2-.9,0-.3,0-.7,0-1.2Z"/>
    <path class="cls-1" d="M177.3,72.9h-1.5c-1,0-1.7-.3-2.2-.9-.5-.6-.8-1.3-.8-2.1v-11.2h2.6v11c0,.6.3.9.9.9h1v2.2Z"/>
    <path class="cls-1" d="M187,62.6l-4.4,12c-.2.6-.5,1-.8,1.3-.5.5-1.3.8-2.2.8h-1v-2.3h.6c.4,0,.6,0,.8-.2.2-.1.3-.4.5-.7l.4-1.3-3.5-9.6h2.7l2.1,6.4,2.1-6.4h2.7Z"/>
    <path class="cls-2" d="M200.2,63.4l-1.9,2c-.4-.4-.9-.6-1.4-.6s-.8.2-1.2.5c-.3.3-.5.8-.5,1.4v6.2h-2.6v-10.3h2.5v1c.3-.3.6-.6,1.1-.8.5-.2,1-.3,1.5-.3,1,0,1.8.3,2.4,1Z"/>
    <path class="cls-2" d="M209.8,68.5h-6.5c0,.7.2,1.2.6,1.7.4.4,1,.6,1.7.6s1,0,1.3-.2c.3-.1.7-.4,1-.7l1.6,1.5c-.6.6-1.1,1-1.7,1.2-.6.3-1.3.4-2.2.4s-1.3,0-1.8-.2c-.5-.2-1-.4-1.5-.8-.5-.4-.8-.9-1.1-1.6-.3-.7-.4-1.6-.4-2.6,0-1.7.4-2.9,1.2-3.9.8-.9,1.9-1.4,3.3-1.4s2.5.5,3.3,1.4c.8.9,1.2,2.1,1.2,3.6v1.1ZM207.2,66.8c0-.4,0-.8-.2-1.1-.3-.7-.9-1.1-1.7-1.1s-1.4.3-1.7,1.1c-.1.3-.2.7-.2,1.1h3.9Z"/>
    <path class="cls-2" d="M216.2,72.9h-1.5c-1,0-1.7-.3-2.2-.9-.5-.6-.8-1.3-.8-2.1v-11.2h2.6v11c0,.6.3.9.9.9h1v2.2Z"/>
    <path class="cls-2" d="M220.6,60.8h-2.6v-2.1h2.6v2.1ZM220.5,72.9h-2.6v-10.3h2.6v10.3Z"/>
    <path class="cls-2" d="M230.9,72.9h-2.5v-.9c-.4.4-.7.6-1.1.8-.4.1-.9.2-1.4.2-1.1,0-2-.3-2.6-.9-.6-.6-.9-1.4-.9-2.3s.3-1.6.9-2.1c.6-.6,1.5-.8,2.6-.8h2.4v-.5c0-.6-.2-1-.5-1.2-.3-.3-.8-.4-1.5-.4s-.9,0-1.2.2c-.3.1-.5.3-.8.7l-1.6-1.6c.5-.5,1-.9,1.6-1.1.6-.2,1.3-.3,2.2-.3,2.9,0,4.4,1.2,4.4,3.6v6.8ZM228.4,69.1v-.6h-2c-.5,0-.8.1-1.1.3-.2.2-.4.5-.4.9,0,.8.5,1.2,1.5,1.2s1.3-.2,1.6-.5c.2-.2.4-.7.4-1.3Z"/>
    <path class="cls-2" d="M242,66.1c0,.4,0,.9,0,1.6s0,1.2,0,1.6c0,.4-.1.9-.3,1.4-.2.6-.4,1-.7,1.3-.6.6-1.5.9-2.5.9s-1.9-.4-2.6-1.1v1h-2.5v-14.1h2.6v4.7c.6-.7,1.5-1,2.5-1s1.9.3,2.5.9c.3.3.6.7.7,1.3.2.5.3,1,.3,1.4ZM239.5,67.7c0-1-.1-1.7-.3-2.2-.2-.5-.7-.7-1.4-.7s-1.2.2-1.4.7c-.2.5-.3,1.2-.3,2.2s0,.9,0,1.2c0,.3.1.6.2.9.1.3.3.5.5.7.2.1.6.2.9.2s.7,0,.9-.2c.2-.2.4-.4.5-.7.1-.3.2-.6.2-.9,0-.3,0-.7,0-1.2Z"/>
    <path class="cls-2" d="M248.6,72.9h-1.5c-1,0-1.7-.3-2.2-.9-.5-.6-.8-1.3-.8-2.1v-11.2h2.6v11c0,.6.3.9.9.9h1v2.2Z"/>
    <path class="cls-2" d="M258.9,68.5h-6.5c0,.7.2,1.2.6,1.7.4.4,1,.6,1.7.6s1,0,1.3-.2c.3-.1.7-.4,1-.7l1.6,1.5c-.6.6-1.1,1-1.7,1.2-.6.3-1.3.4-2.2.4s-1.3,0-1.8-.2c-.5-.2-1-.4-1.5-.8-.5-.4-.8-.9-1.1-1.6-.3-.7-.4-1.6-.4-2.6,0-1.7.4-2.9,1.2-3.9.8-.9,1.9-1.4,3.3-1.4s2.5.5,3.3,1.4c.8.9,1.2,2.1,1.2,3.6v1.1ZM256.4,66.8c0-.4,0-.8-.2-1.1-.3-.7-.9-1.1-1.7-1.1s-1.4.3-1.7,1.1c-.1.3-.2.7-.2,1.1h3.9Z"/>
  </g>
  <path class="cls-2" d="M37,26.4v5c-5.8-1.5-10.4-2.2-13.9-2.2s-3.5.2-4.7.6c-1.2.4-1.7.9-1.7,1.5s.4,1,1.3,1.4c.8.4,2.9,1,6.1,1.7,3.2.7,5.8,1.4,7.8,2,1.9.6,3.6,1.5,5,2.6,1.4,1.1,2.1,2.5,2.1,4.2,0,2.4-1.5,4.3-4.6,5.7-3.1,1.4-7.1,2.1-12.2,2.1s-10.7-.8-15.8-2.5v-5.6c2.9,1.2,5.5,2,7.8,2.5,2.3.5,4.7.8,7.2.8,4.3,0,6.4-.8,6.4-2.4s-.4-1-1.3-1.5c-.9-.5-2.9-1.1-6.2-1.8-3.3-.7-5.9-1.4-7.8-2-1.9-.6-3.6-1.4-5-2.5-1.4-1.1-2.1-2.5-2.1-4.2s1.5-4,4.5-5.4c3-1.4,7.1-2.1,12.2-2.1s9.6.7,14.8,2Z"/>
  <path class="cls-2" d="M74.5,24.8l-11.9,12.2,20.5,13.8h-13.6l-18.4-12.2v12.2h-10.9v-26h10.9v11.7l11.4-11.7h12Z"/>
  <path class="cls-1" d="M90.8,50.8v-12l-15.2-14h11.6l9.1,8.2,32.9-27.3v10.5l-27.4,22.5v12.1h-10.9Z"/>
  <path class="cls-2" d="M129.1,30.7v17.7c0,6.7-5.2,10-15.5,10s-2,0-3.2,0v-5.1c.6,0,1.1,0,1.7,0,4.1,0,6.1-1.6,6.1-4.8v-8.8l10.9-9Z"/>
  <path class="cls-2" d="M160.2,24.8l19.3,26h-11.7l-3.6-5.1h-19.6l-3.2,5.1h-11.5l17.5-26h12.8ZM161.1,41.1l-7.1-10.1-6.4,10.1h13.5Z"/>
  <path class="cls-2" d="M215.9,42.8v5.7c-5.5,1.7-11.2,2.6-17.2,2.6s-13.9-1.3-18.5-3.8c-4.6-2.5-6.9-5.7-6.9-9.4s2.4-6.9,7.3-9.5c4.8-2.6,11.2-3.9,19-3.9s11.5.8,15.8,2.3v5.8c-5.3-1.8-10.3-2.7-15-2.7s-8.5.7-11.4,2.2c-3,1.5-4.4,3.4-4.4,5.6s1.5,4.2,4.4,5.7c2.9,1.5,6.6,2.2,11.2,2.2s4.4-.2,6.5-.5c2.1-.4,5.2-1.1,9.3-2.4Z"/>
  <path class="cls-2" d="M253.9,24.8l-14.1,12.2,19.2,13.8h-13.6l-17.1-12.2v12.2h-10.9v-26h10.9v11.7l13.7-11.7h12Z"/>
  <polygon class="cls-1" points="144.1 16.2 118.2 37.3 118.1 27.6 144.1 6 144.1 16.2"/>
  <g>
    <path class="cls-2" d="M259.9,48.1h-.9v-.3h2.2v.3h-.9v2.7h-.4v-2.7Z"/>
    <path class="cls-2" d="M264.1,49.4c0-.4,0-.9,0-1.3h0c-.1.4-.2.7-.4,1.1l-.5,1.5h-.3l-.5-1.4c-.1-.4-.3-.8-.3-1.2h0c0,.4,0,.9,0,1.3v1.3h-.4l.2-3h.5l.5,1.4c.1.4.2.7.3,1h0c0-.3.2-.6.3-1l.5-1.4h.5l.2,3h-.4v-1.3Z"/>
  </g>
</svg>