<?xml version="1.0" encoding="UTF-8"?>
<svg id="Layer_1" xmlns="http://www.w3.org/2000/svg" version="1.1" viewBox="0 0 1046.9 242.9">
  <!-- Generator: Adobe Illustrator 29.7.0, SVG Export Plug-In . SVG Version: 2.1.1 Build 138)  -->
  <defs>
    <style>
      .st0 {
        fill: #fff;
      }
    </style>
  </defs>
  <path class="st0" d="M316.5,61.7c0-6.3,5.8-10,14.1-10s15.8,5.9,15.8,14.1l8.9-9.1c-3.2-8.3-12-14.6-24.7-14.6s-25.2,7.9-25.2,20.2c0,26.9,40.8,13.4,40.8,30.7s-6.3,10.5-14.9,10.5-17-6.5-17-16.6h0s-1.9,1.9-1.9,1.9l-7.5,7.5c3.5,10.6,13.7,16.7,26.4,16.7s26.2-7.5,26.2-20.5c0-27.4-40.9-14.4-40.9-31Z"/>
  <path class="st0" d="M411.4,75.3l-9.4,5.5c-1.3-5.8-6.8-9.2-12.8-9.2-8.8,0-14.8,6-14.8,15.9s5.8,15.7,14.8,15.7,11.4-3.9,12.9-9l9.2,5.5c-3.2,7.6-11.7,13.3-22,13.3-15.4,0-25.8-10.4-25.8-25.5s10.8-25.6,25.8-25.6c10.4,0,19,5.7,22.2,13.4Z"/>
  <path class="st0" d="M467.5,87.5c0,15-11.3,25.5-26.1,25.5s-26.1-10.5-26.1-25.5,11.2-25.6,26.1-25.6c14.8,0,26.1,10.5,26.1,25.6ZM441.4,103.3c8.7,0,15-6.1,15-15.7,0-9.7-6.3-15.8-15-15.8s-15.1,6.1-15.1,15.8,6.5,15.7,15.1,15.7Z"/>
  <path class="st0" d="M489.4,45.5v18.1h13.7v9.2h-13.7v23.4c0,5.9,2.3,7.1,7.1,7.1,2,0,3.9-.3,5.8-.7v9.3c-2.4.7-4.9,1-7.4,1-10.4,0-16.2-4.3-16.2-15.3v-24.8h-8.6v-9.2h8.6v-7.6l10.6-10.6Z"/>
  <path class="st0" d="M526.9,45.5v18.1h13.7v9.2h-13.7v23.4c0,5.9,2.3,7.1,7.1,7.1,2,0,3.9-.3,5.8-.7v9.3c-2.4.7-4.9,1-7.4,1-10.4,0-16.2-4.3-16.2-15.3v-24.8h-8.6v-9.2h8.6v-7.6l10.6-10.6Z"/>
  <path class="st0" d="M546.9,43.7h11.5v11.2h-11.5v-11.2ZM558,63.6v48.1h-10.6v-48.1h10.6Z"/>
  <path class="st0" d="M608.1,75.8l-10.1,3.8c-.4-5.8-4.4-9.2-11.1-9.2s-8.9,2.6-8.9,6.2c0,9.9,30.6,2.3,30.6,21.5s-8.9,15.1-20.6,15.1-20.7-5.5-22.4-14.4l10.3-4.3c.4,7.1,5.5,10.3,12.1,10.3s9.2-1.9,9.2-5.9c0-10.2-30.1-2.1-30.1-21.5s9.1-15.3,19.8-15.3c11.6,0,19.6,5.5,21.2,13.9Z"/>
  <path class="st0" d="M661.1,82.9v28.8h-10.6v-27.3c0-8.7-3.2-12.7-10.4-12.7s-12.2,5.2-12.2,14.3v25.6h-10.6V43.7h10.6v26.2c3-5,7.9-8,15.2-8,11.7,0,18,7.5,18,21Z"/>
  <path class="st0" d="M690.3,43.7h11v57.7h33v10.3h-44V43.7Z"/>
  <path class="st0" d="M785,86.7c0,1.4-.1,2.8-.3,4.3h-35.7c1.1,9.2,6.6,13.1,13.9,13.1s11.1-2.7,13.7-8.6l7.7,6.8c-4.5,7.3-12.8,10.7-21.6,10.7-15.2,0-24.8-10.4-24.8-25.3s10.2-25.8,24.1-25.8c14.1,0,23,10.1,23,24.8ZM773.5,83.2c0-7.4-4.3-12.3-11.7-12.3s-11.4,4-12.7,12.3h24.4Z"/>
  <path class="st0" d="M807,84.4c13.9-2.4,16-2.8,16-7.2s-4.3-6.8-10-6.8-11.7,3.9-11.7,10.7l-9.4-3.7c1.4-9.1,9.9-15.3,21.1-15.3s20.3,5.8,20.3,16.6v23.6l1.7,9.5h-9.4l-2-5.9c-3.5,4.8-9.5,7.2-16.2,7.2-9.6,0-16.4-5.3-16.4-13.9,0-8.2,6.3-12.9,16-14.7ZM809.8,104.9c8.7,0,13.2-5.5,13.2-12.6v-4.2c-1.5,1.3-4.3,1.7-13,3.3-4.5.9-7.8,2.8-7.8,7s2.8,6.4,7.6,6.4Z"/>
  <path class="st0" d="M858.2,45.5v18.1h13.7v9.2h-13.7v23.4c0,5.9,2.3,7.1,7.1,7.1,2,0,3.9-.3,5.8-.7v9.3c-2.4.7-4.9,1-7.4,1-10.4,0-16.2-4.3-16.2-15.3v-24.8h-8.6v-9.2h8.6v-7.5l10.6-10.6Z"/>
  <path class="st0" d="M922.9,82.9v28.8h-10.6v-27.3c0-8.7-3.2-12.7-10.4-12.7s-12.2,5.2-12.2,14.3v25.6h-10.6V43.7h10.6v26.2c3-5,7.9-8,15.2-8,11.7,0,18,7.5,18,21Z"/>
  <path class="st0" d="M977.9,86.7c0,1.4-.1,2.8-.3,4.3h-35.7c1.1,9.2,6.6,13.1,13.9,13.1s11.1-2.7,13.7-8.6l7.7,6.8c-4.5,7.3-12.8,10.7-21.6,10.7-15.2,0-24.8-10.4-24.8-25.3s10.2-25.8,24.1-25.8c14.1,0,23,10.1,23,24.8ZM966.4,83.2c0-7.4-4.3-12.3-11.7-12.3s-11.4,4-12.7,12.3h24.4Z"/>
  <path class="st0" d="M997.3,63.6v7.6c3.5-6.9,9.2-8.7,13.7-8.7,1.4,0,2.9.1,4.3.6v10.5c-1.8-.6-3.6-.8-5.5-.8-7.4,0-12.5,5-12.5,15.6v23.2h-10.6v-48.1h10.6Z"/>
  <path class="st0" d="M303.7,165c0-21.8,15.8-35.5,35.1-35.5s22.3,4.9,28.5,14l-7.8,7.8c-3.7-7.4-11.4-11.8-20.9-11.8-13.4,0-23.9,9.6-23.9,25.4s9.6,25.6,23.3,25.6,19.1-7.3,20.4-17.9h-20.3l9.9-9.8h21.5v36.3h-10.9v-9.5c-3.9,5.5-10.5,10.9-22.1,10.9-18.6,0-32.8-14.1-32.8-35.5Z"/>
  <path class="st0" d="M391.7,151v7.6c3.5-6.9,9.2-8.7,13.7-8.7,1.4,0,2.9.1,4.3.6v10.5c-1.8-.6-3.6-.8-5.5-.8-7.4,0-12.5,5-12.5,15.6v23.2h-10.6v-48.1h10.6Z"/>
  <path class="st0" d="M464.5,175c0,15-11.3,25.5-26.1,25.5s-26.1-10.5-26.1-25.5,11.2-25.6,26.1-25.6,26.1,10.5,26.1,25.6ZM438.5,190.7c8.7,0,15-6.1,15-15.7s-6.3-15.8-15-15.8-15.1,6.1-15.1,15.8,6.5,15.7,15.1,15.7Z"/>
  <path class="st0" d="M515.1,199.1h-10.6v-5.8c-3.2,5.1-8.3,7.2-14.4,7.2-11.1,0-17.8-7.1-17.8-18.9v-30.6h10.6v29.2c0,7.4,3.2,11.1,9.7,11.1s11.9-5.5,11.9-14.1v-26.2h10.6v48.1Z"/>
  <path class="st0" d="M536.5,193.1v25.9c0,0-10.5,0-10.5,0v-68h10.6v5.6c3.8-4.4,9.4-7.3,16.7-7.3,14.5,0,24.3,11.2,24.3,25.7s-9.9,25.4-24.3,25.4c-7.7,0-13-3-16.8-7.4ZM551.4,190.8c9.1,0,15.3-6.6,15.3-15.7s-6.2-16.1-15.3-16.1-15.2,6.7-15.2,16.1,6.5,15.7,15.2,15.7Z"/>
  <path class="st0" d="M187.6,242.9l-66.2-66.2-66.2,66.2-11.5-11.5,77.7-77.7,77.7,77.7-11.5,11.5Z"/>
  <path class="st0" d="M231.4,199.1l-77.7-77.7,77.7-77.7,11.5,11.5-66.2,66.2,66.2,66.2-11.5,11.5Z"/>
  <path class="st0" d="M11.5,199.1l-11.5-11.5,66.2-66.2L0,55.2l11.5-11.5,77.7,77.7L11.5,199.1Z"/>
  <path class="st0" d="M121.4,89.2L43.7,11.5,55.2,0l66.2,66.2L187.6,0l11.5,11.5-77.7,77.7Z"/>
  <path class="st0" d="M1023.6,41.1v-1.8h9.3v1.8h-3.6v9.9h-2.1v-9.9h-3.6ZM1034.7,39.4h2.6l3.5,8.4h.1l3.5-8.4h2.6v11.6h-2v-8h-.1l-3.2,8h-1.5l-3.2-8h-.1v8h-2v-11.6Z"/>
</svg>