<svg xmlns="http://www.w3.org/2000/svg" width="1046.909" height="242.85" viewBox="0 0 1046.909 242.85"><defs><style>.a{fill:#101820;}.b{fill:#008ca0;}</style></defs><path class="a" d="M317.248,62.129c0-6.288,5.825-9.987,14.055-9.987,9.8,0,15.812,5.918,15.812,14.148l8.9-9.066C352.829,48.9,344.049,42.618,331.3,42.618c-13.685,0-25.244,7.86-25.244,20.25,0,26.908,40.778,13.408,40.778,30.7,0,6.565-6.287,10.541-14.887,10.541-10.726,0-17.014-6.473-17.014-16.551l-.022.022-1.869,1.866-7.527,7.516c3.463,10.56,13.659,16.671,26.432,16.671,14.887,0,26.169-7.49,26.169-20.527C358.119,65.735,317.248,78.681,317.248,62.129Z" transform="translate(-0.725 -0.458)"/><path class="a" d="M412.076,75.8l-9.432,5.548c-1.294-5.825-6.75-9.247-12.76-9.247-8.785,0-14.8,6.01-14.8,15.9,0,9.8,5.825,15.719,14.8,15.719,6.1,0,11.373-3.883,12.853-8.969l9.154,5.456c-3.236,7.582-11.651,13.315-22.007,13.315-15.35,0-25.8-10.356-25.8-25.521,0-15.072,10.819-25.614,25.8-25.614C400.24,62.394,408.932,68.127,412.076,75.8Z" transform="translate(-0.725 -0.458)"/><path class="a" d="M468.179,88.008c0,14.98-11.281,25.521-26.076,25.521-14.888,0-26.076-10.541-26.076-25.521,0-15.072,11.188-25.614,26.076-25.614C456.9,62.394,468.179,72.936,468.179,88.008ZM442.1,103.727c8.692,0,14.979-6.1,14.979-15.719C457.082,78.3,450.8,72.2,442.1,72.2s-15.07,6.1-15.07,15.808C427.03,97.624,433.5,103.727,442.1,103.727Z" transform="translate(-0.725 -0.458)"/><path class="a" d="M490.077,45.935V64.059h13.685v9.154H490.077V96.607c0,5.918,2.312,7.12,7.121,7.12a32.486,32.486,0,0,0,5.825-.739v9.339a29.11,29.11,0,0,1-7.4,1.017c-10.449,0-16.182-4.346-16.182-15.35V73.213h-8.6V64.059h8.6V56.491Z" transform="translate(-0.725 -0.458)"/><path class="a" d="M527.657,45.935V64.059h13.686v9.154H527.657V96.607c0,5.918,2.312,7.12,7.121,7.12a32.487,32.487,0,0,0,5.825-.739v9.339a29.11,29.11,0,0,1-7.4,1.017c-10.449,0-16.182-4.346-16.182-15.35V73.213h-8.6V64.059h8.6V56.491Z" transform="translate(-0.725 -0.458)"/><path class="a" d="M547.632,44.178H559.1V55.367H547.632Zm11.1,19.881v48.083H548.094V64.059Z" transform="translate(-0.725 -0.458)"/><path class="a" d="M608.864,76.264l-10.079,3.792c-.369-5.826-4.438-9.247-11.1-9.247-5.64,0-8.877,2.589-8.877,6.2,0,9.894,30.607,2.312,30.607,21.453,0,10.079-8.877,15.072-20.62,15.072-12.3,0-20.713-5.456-22.377-14.425l10.263-4.346c.37,7.12,5.456,10.264,12.114,10.264,5.086,0,9.247-1.942,9.247-5.918,0-10.172-30.145-2.127-30.145-21.453,0-8.877,9.062-15.257,19.788-15.257C599.248,62.394,607.293,67.85,608.864,76.264Z" transform="translate(-0.725 -0.458)"/><path class="a" d="M661.8,83.385v28.757H651.161V84.864c0-8.692-3.236-12.668-10.356-12.668-7.583,0-12.206,5.178-12.206,14.332v25.614H617.965V44.178H628.6V70.346c2.959-4.993,7.86-7.952,15.165-7.952C655.507,62.394,661.8,69.884,661.8,83.385Z" transform="translate(-0.725 -0.458)"/><path class="a" d="M691.017,44.178h11v57.7h33.012v10.264H691.017Z" transform="translate(-0.725 -0.458)"/><path class="a" d="M785.687,87.175a36.1,36.1,0,0,1-.278,4.254H749.717c1.11,9.154,6.566,13.131,13.871,13.131,6.749,0,11.1-2.682,13.685-8.6l7.674,6.843c-4.53,7.305-12.76,10.726-21.637,10.726-15.164,0-24.781-10.449-24.781-25.336s10.171-25.8,24.134-25.8C776.811,62.394,785.687,72.473,785.687,87.175Zm-11.466-3.513c0-7.4-4.346-12.3-11.743-12.3-6.288,0-11.374,3.976-12.669,12.3Z" transform="translate(-0.725 -0.458)"/><path class="a" d="M807.732,84.864c13.871-2.4,16-2.774,16-7.213,0-4.715-4.345-6.842-9.986-6.842-6.843,0-11.651,3.883-11.651,10.726l-9.432-3.7c1.387-9.062,9.9-15.349,21.083-15.349,12.483,0,20.343,5.825,20.343,16.552v23.579l1.665,9.524h-9.432l-2.034-5.918c-3.514,4.808-9.524,7.213-16.182,7.213-9.617,0-16.367-5.271-16.367-13.871C791.736,91.337,798.024,86.621,807.732,84.864Zm2.774,20.528c8.692,0,13.223-5.456,13.223-12.576V88.655c-1.479,1.294-4.253,1.664-13.037,3.329-4.531.925-7.767,2.774-7.767,7.027C802.925,102.618,805.7,105.392,810.506,105.392Z" transform="translate(-0.725 -0.458)"/><path class="a" d="M858.935,45.935V64.059H872.62v9.154H858.935V96.607c0,5.918,2.311,7.12,7.12,7.12a32.51,32.51,0,0,0,5.826-.739v9.339a29.126,29.126,0,0,1-7.4,1.017c-10.448,0-16.181-4.346-16.181-15.35V73.213h-8.6V64.059h8.6V56.581Z" transform="translate(-0.725 -0.458)"/><path class="a" d="M923.645,83.385v28.757H913.012V84.864c0-8.692-3.236-12.668-10.357-12.668-7.583,0-12.206,5.178-12.206,14.332v25.614H879.816V44.178h10.633V70.346c2.96-4.993,7.86-7.952,15.165-7.952C917.357,62.394,923.645,69.884,923.645,83.385Z" transform="translate(-0.725 -0.458)"/><path class="a" d="M978.591,87.175a36.311,36.311,0,0,1-.278,4.254H942.621c1.11,9.154,6.566,13.131,13.87,13.131,6.75,0,11.1-2.682,13.685-8.6l7.674,6.843c-4.53,7.305-12.76,10.726-21.636,10.726-15.164,0-24.781-10.449-24.781-25.336s10.171-25.8,24.134-25.8C969.714,62.394,978.591,72.473,978.591,87.175Zm-11.466-3.513c0-7.4-4.347-12.3-11.744-12.3-6.287,0-11.373,3.976-12.668,12.3Z" transform="translate(-0.725 -0.458)"/><path class="a" d="M998.01,64.059v7.582c3.514-6.935,9.247-8.692,13.685-8.692a10.81,10.81,0,0,1,4.254.647V74.138a17.71,17.71,0,0,0-5.455-.833c-7.4,0-12.484,4.994-12.484,15.627v23.21H987.377V64.059Z" transform="translate(-0.725 -0.458)"/><path class="a" d="M304.386,165.468c0-21.822,15.812-35.508,35.138-35.508,11.32,0,22.267,4.871,28.521,14.006l-7.824,7.824c-3.668-7.36-11.419-11.843-20.882-11.843-13.408,0-23.857,9.617-23.857,25.429,0,16.182,9.616,25.613,23.3,25.613,11.374,0,19.141-7.3,20.435-17.939H338.876l9.886-9.8h21.461v36.34H359.312v-9.524c-3.884,5.455-10.542,10.911-22.1,10.911C318.626,200.976,304.386,186.921,304.386,165.468Z" transform="translate(-0.725 -0.458)"/><path class="a" d="M392.474,151.506v7.582c3.514-6.935,9.247-8.692,13.685-8.692a10.807,10.807,0,0,1,4.254.647v10.542a17.721,17.721,0,0,0-5.456-.833c-7.4,0-12.483,4.993-12.483,15.627v23.21H381.84V151.506Z" transform="translate(-0.725 -0.458)"/><path class="a" d="M465.266,175.455c0,14.98-11.28,25.521-26.075,25.521-14.888,0-26.076-10.541-26.076-25.521,0-15.072,11.188-25.614,26.076-25.614C453.986,149.841,465.266,160.383,465.266,175.455Zm-26.075,15.719c8.692,0,14.979-6.1,14.979-15.719,0-9.71-6.287-15.813-14.979-15.813s-15.073,6.1-15.073,15.813c0,9.616,6.473,15.719,15.073,15.719Z" transform="translate(-0.725 -0.458)"/><path class="a" d="M515.775,199.589H505.141v-5.826c-3.237,5.086-8.322,7.213-14.425,7.213-11.1,0-17.846-7.12-17.846-18.864V151.506H483.5v29.219q0,11.1,9.709,11.1c7.768,0,11.929-5.456,11.929-14.148V151.506h10.634Z" transform="translate(-0.725 -0.458)"/><path class="a" d="M537.247,193.579l.092,25.89H526.706V151.506h10.633v5.64c3.792-4.438,9.432-7.3,16.737-7.3,14.518,0,24.319,11.189,24.319,25.706,0,14.425-9.894,25.429-24.319,25.429C546.4,200.976,541.038,198.017,537.247,193.579Zm14.887-2.313c9.062,0,15.257-6.564,15.257-15.719,0-9.339-6.2-16.089-15.257-16.089-8.692,0-15.164,6.657-15.164,16.089,0,9.339,6.472,15.719,15.164,15.719Z" transform="translate(-0.725 -0.458)"/><path class="b" d="M187.642,242.85l-66.217-66.217L55.208,242.85,43.72,231.362l77.705-77.706,77.705,77.706Z"/><path class="b" d="M231.362,199.13l-77.706-77.705L231.362,43.72,242.85,55.208l-66.217,66.217,66.217,66.217Z"/><path class="b" d="M11.488,199.13,0,187.642l66.217-66.217L0,55.208,11.488,43.72l77.706,77.705Z"/><path class="b" d="M121.425,89.194,43.72,11.488,55.208,0l66.217,66.217L187.642,0,199.13,11.488Z"/><path class="a" d="M.636-9.868v-1.768H9.918v1.768h-3.6V0H4.232V-9.868ZM11.7-11.636h2.582L17.736-3.2h.136l3.455-8.432h2.582V0H21.882V-8h-.1L18.559-.036H17.05L13.832-8.014h-.1V0H11.7Z" transform="translate(1023 51)"/></svg>