<svg xmlns="http://www.w3.org/2000/svg" xmlns:xlink="http://www.w3.org/1999/xlink" width="36.664" height="28.322" viewBox="0 0 36.664 28.322"><defs><clipPath id="a"><path d="M0,0H36.664V28.322H0Z" transform="translate(0 0.019)" fill="none"/></clipPath></defs><g transform="translate(0 -0.019)"><path d="M0,0H36.664V28.322H0Z" transform="translate(0 0.019)" fill="none"/><g clip-path="url(#a)"><path d="M4.936,28.323H3.526V25.559H2.115A2.1,2.1,0,0,1,0,23.486V8.98A2.1,2.1,0,0,1,2.115,6.908H3.526V2.073A2.1,2.1,0,0,1,5.641,0H31.024a2.1,2.1,0,0,1,2.115,2.073V6.908h1.409A2.1,2.1,0,0,1,36.663,8.98V23.486a2.1,2.1,0,0,1-2.115,2.073H33.139v2.762H31.728V25.559H4.936v2.763ZM30.317,8.289a.7.7,0,0,0-.7.691V23.486a.7.7,0,0,0,.7.691h4.231a.7.7,0,0,0,.706-.691V8.98a.7.7,0,0,0-.706-.691ZM8.461,18.651v4.836a1.97,1.97,0,0,1-.13.691h20a2.03,2.03,0,0,1-.129-.691V18.651ZM2.115,8.289a.7.7,0,0,0-.7.691V23.486a.7.7,0,0,0,.7.691H6.346a.7.7,0,0,0,.7-.691V8.98a.7.7,0,0,0-.7-.691ZM8.461,15.2V17.27H28.2V15.2ZM5.641,1.382a.7.7,0,0,0-.706.691V6.908h1.41A2.1,2.1,0,0,1,8.461,8.98v4.836H28.2V8.98a2.1,2.1,0,0,1,2.115-2.073h1.41V2.073a.7.7,0,0,0-.7-.691Z" transform="translate(0 0.019)" fill="#53565a"/></g><path d="M1,0A1,1,0,1,1,0,1,1,1,0,0,1,1,0" transform="translate(13 7)" fill="#53565a"/><path d="M1,0A1,1,0,1,1,0,1,1,1,0,0,1,1,0" transform="translate(22 7)" fill="#53565a"/></g></svg>