<?xml version="1.0" encoding="UTF-8"?>
<svg id="Layer_1" data-name="Layer 1" xmlns="http://www.w3.org/2000/svg" viewBox="0 0 250 250">
  <defs>
    <style>
      .cls-1 {
        fill: #53565a;
      }
    </style>
  </defs>
  <path class="cls-1" d="M125,132.39c-31.26,0-56.69-25.44-56.69-56.69s25.44-56.69,56.69-56.69,56.69,25.44,56.69,56.69-25.44,56.69-56.69,56.69ZM125,33.8c-23.07,0-41.9,18.83-41.9,41.9s18.83,41.9,41.9,41.9,41.9-18.83,41.9-41.9-18.83-41.9-41.9-41.9Z"/>
  <path class="cls-1" d="M209.69,230.99c-4.04,0-7.39-3.35-7.39-7.39,0-34.02-34.71-61.62-77.3-61.62s-77.3,27.61-77.3,61.62c0,4.04-3.35,7.39-7.39,7.39s-7.39-3.35-7.39-7.39c0-42.1,41.31-76.41,92.09-76.41s92.09,34.31,92.09,76.41c0,4.04-3.35,7.39-7.39,7.39Z"/>
</svg>