<?xml version="1.0" encoding="UTF-8"?>
<svg id="Layer_1" data-name="Layer 1" xmlns="http://www.w3.org/2000/svg" viewBox="0 0 250 250">
  <defs>
    <style>
      .cls-1 {
        fill: #fff;
      }
    </style>
  </defs>
  <path class="cls-1" d="M125,132.76c-32.79,0-59.47-26.69-59.47-59.47S92.21,13.81,125,13.81s59.47,26.69,59.47,59.47-26.69,59.47-59.47,59.47ZM125,29.32c-24.2,0-43.96,19.76-43.96,43.96s19.76,43.96,43.96,43.96,43.96-19.76,43.96-43.96-19.76-43.96-43.96-43.96Z"/>
  <path class="cls-1" d="M213.85,236.19c-4.24,0-7.76-3.52-7.76-7.76,0-35.68-36.41-64.65-81.09-64.65s-81.09,28.96-81.09,64.65c0,4.24-3.52,7.76-7.76,7.76s-7.76-3.52-7.76-7.76c0-44.17,43.34-80.16,96.61-80.16s96.61,35.99,96.61,80.16c0,4.24-3.52,7.76-7.76,7.76Z"/>
</svg>